<?xml version="1.0" encoding="utf-8" standalone="no"?>
<!DOCTYPE svg PUBLIC "-//W3C//DTD SVG 1.1//EN"
  "http://www.w3.org/Graphics/SVG/1.1/DTD/svg11.dtd">
<svg xmlns:xlink="http://www.w3.org/1999/xlink" width="410.22pt" height="204.48pt" viewBox="0 0 410.22 204.48" xmlns="http://www.w3.org/2000/svg" version="1.1">
 <metadata>
  <rdf:RDF xmlns:dc="http://purl.org/dc/elements/1.1/" xmlns:cc="http://creativecommons.org/ns#" xmlns:rdf="http://www.w3.org/1999/02/22-rdf-syntax-ns#">
   <cc:Work>
    <dc:type rdf:resource="http://purl.org/dc/dcmitype/StillImage"/>
    <dc:date>2026-05-07T17:54:14.465130</dc:date>
    <dc:format>image/svg+xml</dc:format>
    <dc:creator>
     <cc:Agent>
      <dc:title>Matplotlib v3.10.8, https://matplotlib.org/</dc:title>
     </cc:Agent>
    </dc:creator>
   </cc:Work>
  </rdf:RDF>
 </metadata>
 <defs>
  <style type="text/css">*{stroke-linejoin: round; stroke-linecap: butt}</style>
 </defs>
 <g id="figure_1">
  <g id="patch_1">
   <path d="M 0 204.48 
L 410.22 204.48 
L 410.22 0 
L 0 0 
z
" style="fill: #f7f1e6"/>
  </g>
  <g id="axes_1">
   <g id="patch_2">
    <path d="M 0 204.48 
L 410.22 204.48 
L 410.22 0 
L 0 0 
z
" style="fill: #ffffff"/>
   </g>
   <g id="patch_3">
    <path d="M 0 204.48 
L 410.22 204.48 
L 410.22 0 
L 0 0 
z
" clip-path="url(#p74288ec85b)" style="fill: #f7f1e6"/>
   </g>
   <g id="line2d_1">
    <path d="M 135.1584 182.88 
L 135.1584 21.6 
" clip-path="url(#p74288ec85b)" style="fill: none; stroke: #d9cfbd; stroke-width: 0.5; stroke-linecap: square"/>
   </g>
   <g id="line2d_2">
    <path d="M 275.0616 182.88 
L 275.0616 21.6 
" clip-path="url(#p74288ec85b)" style="fill: none; stroke: #d9cfbd; stroke-width: 0.5; stroke-linecap: square"/>
   </g>
   <g id="matplotlib.axis_1"/>
   <g id="matplotlib.axis_2"/>
   <g id="line2d_3">
    <path d="M 205.11 30.9168 
L 205.11 54.252288 
" clip-path="url(#p74288ec85b)" style="fill: none; stroke: #7a3d14; stroke-width: 0.7"/>
   </g>
   <g id="patch_4">
    <path d="M 201.08664 54.252288 
L 209.13336 54.252288 
L 205.11 71.1504 
z
" clip-path="url(#p74288ec85b)" style="fill: #7a3d14"/>
   </g>
   <g id="text_1">
    <!-- Aplomb -->
    <g style="fill: #1a1512" transform="translate(137.032484 111.938516) scale(0.43 -0.43)">
     <defs>
      <path id="CormorantGaramond-LightItalic-41" d="M -218 0 
Q -243 0 -243 38 
Q -243 77 -218 77 
Q -51 77 157 214 
Q 365 352 602 768 
L 2445 4064 
Q 2458 4090 2506 4080 
Q 2554 4070 2560 4051 
L 3091 538 
Q 3117 365 3158 262 
Q 3200 160 3296 118 
Q 3392 77 3590 77 
Q 3616 77 3616 38 
Q 3616 0 3590 0 
Q 3443 0 3289 13 
Q 3136 26 2957 26 
Q 2778 26 2640 13 
Q 2502 0 2349 0 
Q 2330 0 2330 38 
Q 2330 77 2349 77 
Q 2662 77 2739 173 
Q 2816 269 2778 538 
L 2310 3648 
L 2419 3757 
L 826 851 
Q 640 512 621 345 
Q 602 179 710 128 
Q 819 77 1011 77 
Q 1037 77 1037 38 
Q 1037 0 1005 0 
Q 883 0 710 13 
Q 538 26 371 26 
Q 186 26 67 13 
Q -51 0 -218 0 
z
M 1274 1837 
L 1370 1952 
L 2739 1952 
L 2752 1837 
L 1274 1837 
z
" transform="scale(0.015625)"/>
      <path id="CormorantGaramond-LightItalic-70" d="M -352 -1760 
Q -378 -1766 -384 -1728 
Q -390 -1690 -365 -1683 
Q -218 -1658 -144 -1619 
Q -70 -1581 -32 -1481 
Q 6 -1382 38 -1184 
L 691 2470 
Q 691 2490 729 2528 
Q 768 2566 819 2624 
Q 870 2682 915 2758 
Q 960 2835 979 2931 
Q 986 2957 1021 2950 
Q 1056 2944 1050 2918 
L 326 -1139 
Q 282 -1402 358 -1485 
Q 435 -1568 710 -1530 
Q 736 -1517 745 -1555 
Q 755 -1594 723 -1600 
L -352 -1760 
z
M 928 -6 
Q 672 -6 563 13 
Q 454 32 365 51 
L 429 371 
Q 550 288 707 230 
Q 864 173 1094 173 
Q 1395 173 1603 333 
Q 1811 493 1939 774 
Q 2067 1056 2112 1408 
Q 2144 1632 2121 1837 
Q 2099 2042 1984 2173 
Q 1869 2304 1600 2304 
Q 1299 2304 1001 2125 
Q 704 1946 307 1632 
Q 288 1626 262 1654 
Q 237 1683 256 1690 
Q 634 2029 1037 2272 
Q 1440 2515 1824 2515 
Q 2176 2515 2329 2284 
Q 2483 2054 2419 1619 
Q 2374 1293 2230 998 
Q 2086 704 1878 477 
Q 1670 250 1424 122 
Q 1178 -6 928 -6 
z
" transform="scale(0.015625)"/>
      <path id="CormorantGaramond-LightItalic-6c" d="M 576 -58 
Q 422 -58 384 80 
Q 346 218 410 570 
L 1056 4013 
Q 1094 4218 1004 4275 
Q 915 4333 614 4186 
Q 589 4173 573 4211 
Q 557 4250 582 4256 
L 1370 4640 
Q 1395 4653 1420 4627 
Q 1446 4602 1440 4589 
L 691 570 
Q 646 371 681 275 
Q 717 179 800 179 
Q 870 179 985 265 
Q 1101 352 1242 493 
Q 1267 518 1292 492 
Q 1318 467 1293 442 
Q 1082 205 912 73 
Q 742 -58 576 -58 
z
" transform="scale(0.015625)"/>
      <path id="CormorantGaramond-LightItalic-6f" d="M 979 -90 
Q 685 -90 489 86 
Q 294 262 220 563 
Q 147 864 218 1235 
Q 288 1606 483 1904 
Q 678 2202 956 2378 
Q 1235 2554 1549 2554 
Q 1875 2554 2073 2371 
Q 2272 2189 2336 1888 
Q 2400 1587 2330 1235 
Q 2253 838 2041 537 
Q 1830 237 1548 73 
Q 1267 -90 979 -90 
z
M 1203 70 
Q 1485 70 1721 300 
Q 1958 531 2035 954 
Q 2080 1178 2064 1427 
Q 2048 1677 1968 1897 
Q 1888 2118 1737 2259 
Q 1587 2400 1363 2400 
Q 1075 2400 835 2157 
Q 595 1914 512 1510 
Q 461 1274 480 1024 
Q 499 774 585 556 
Q 672 339 829 204 
Q 986 70 1203 70 
z
" transform="scale(0.015625)"/>
      <path id="CormorantGaramond-LightItalic-6d" d="M 3494 -58 
Q 3347 -58 3312 80 
Q 3277 218 3341 570 
L 3526 1587 
Q 3590 1965 3536 2150 
Q 3482 2336 3296 2336 
Q 3091 2336 2860 2067 
Q 2630 1798 2428 1283 
Q 2227 768 2093 38 
L 2029 45 
Q 2157 787 2381 1353 
Q 2605 1920 2886 2237 
Q 3168 2554 3475 2554 
Q 3731 2554 3811 2358 
Q 3891 2163 3814 1709 
L 3610 570 
Q 3578 371 3606 275 
Q 3635 179 3712 179 
Q 3789 179 3904 265 
Q 4019 352 4160 493 
Q 4186 518 4211 492 
Q 4237 467 4211 442 
Q 4000 205 3830 73 
Q 3661 -58 3494 -58 
z
M 525 -51 
Q 442 -51 419 -41 
Q 397 -32 397 -13 
Q 397 6 429 150 
Q 461 294 486 435 
L 755 1901 
Q 819 2291 646 2291 
Q 570 2291 448 2214 
Q 326 2138 186 1990 
Q 166 1965 137 1993 
Q 109 2022 134 2042 
Q 346 2285 528 2406 
Q 710 2528 870 2528 
Q 1018 2528 1053 2390 
Q 1088 2253 1024 1901 
L 691 38 
Q 672 -51 525 -51 
z
M 1933 -51 
Q 1850 -51 1827 -41 
Q 1805 -32 1805 -13 
Q 1805 6 1840 169 
Q 1875 333 1901 474 
L 2106 1587 
Q 2157 1965 2109 2150 
Q 2061 2336 1888 2336 
Q 1690 2336 1459 2067 
Q 1229 1798 1027 1283 
Q 826 768 691 38 
L 621 45 
Q 749 787 973 1353 
Q 1197 1920 1478 2237 
Q 1760 2554 2067 2554 
Q 2310 2554 2396 2358 
Q 2483 2163 2394 1709 
L 2093 38 
Q 2080 -51 1933 -51 
z
" transform="scale(0.015625)"/>
      <path id="CormorantGaramond-LightItalic-62" d="M 928 -83 
Q 621 -83 451 67 
Q 282 218 326 480 
L 998 4013 
Q 1037 4218 937 4275 
Q 838 4333 538 4186 
Q 512 4173 499 4211 
Q 486 4250 512 4256 
L 1293 4640 
Q 1318 4653 1344 4627 
Q 1370 4602 1363 4589 
L 634 614 
Q 595 378 752 227 
Q 909 77 1197 77 
Q 1408 77 1622 233 
Q 1837 390 2006 688 
Q 2176 986 2253 1408 
Q 2304 1651 2288 1852 
Q 2272 2054 2176 2176 
Q 2080 2298 1882 2298 
Q 1606 2298 1356 2086 
Q 1107 1875 918 1497 
Q 730 1120 634 614 
L 602 742 
Q 659 1107 806 1436 
Q 954 1766 1165 2016 
Q 1376 2266 1622 2410 
Q 1869 2554 2118 2554 
Q 2419 2554 2560 2288 
Q 2701 2022 2611 1606 
Q 2528 1190 2339 873 
Q 2150 557 1904 345 
Q 1658 134 1402 25 
Q 1146 -83 928 -83 
z
" transform="scale(0.015625)"/>
     </defs>
     <use xlink:href="#CormorantGaramond-LightItalic-41"/>
     <use xlink:href="#CormorantGaramond-LightItalic-70" transform="translate(59.899994 0)"/>
     <use xlink:href="#CormorantGaramond-LightItalic-6c" transform="translate(100.599991 0)"/>
     <use xlink:href="#CormorantGaramond-LightItalic-6f" transform="translate(124.099976 0)"/>
     <use xlink:href="#CormorantGaramond-LightItalic-6d" transform="translate(163.699966 0)"/>
     <use xlink:href="#CormorantGaramond-LightItalic-62" transform="translate(231.09996 0)"/>
    </g>
   </g>
   <g id="text_2">
    <!-- ROOTS — BOTANICAL HAIR SERUM -->
    <g style="fill: #1a1512" transform="translate(148.906016 158.994) scale(0.07 -0.07)">
     <defs>
      <path id="IBMPlexSans-Regular-52" d="M 1133 1920 
L 1133 0 
L 595 0 
L 595 4467 
L 2374 4467 
Q 2765 4467 3043 4320 
Q 3322 4173 3472 3891 
Q 3622 3610 3622 3200 
Q 3622 2714 3392 2394 
Q 3162 2074 2726 1971 
L 3750 0 
L 3142 0 
L 2176 1920 
L 1133 1920 
z
M 1133 2381 
L 2374 2381 
Q 2586 2381 2736 2454 
Q 2886 2528 2966 2672 
Q 3046 2816 3046 3021 
L 3046 3354 
Q 3046 3558 2966 3702 
Q 2886 3846 2736 3920 
Q 2586 3994 2374 3994 
L 1133 3994 
L 1133 2381 
z
" transform="scale(0.015625)"/>
      <path id="IBMPlexSans-Regular-4f" d="M 2266 -77 
Q 1690 -77 1264 188 
Q 838 454 604 969 
Q 371 1485 371 2234 
Q 371 2982 604 3497 
Q 838 4013 1264 4278 
Q 1690 4544 2266 4544 
Q 2842 4544 3267 4278 
Q 3693 4013 3926 3497 
Q 4160 2982 4160 2234 
Q 4160 1485 3926 969 
Q 3693 454 3267 188 
Q 2842 -77 2266 -77 
z
M 2266 403 
Q 2656 403 2950 585 
Q 3245 768 3414 1094 
Q 3584 1421 3584 1862 
L 3584 2605 
Q 3584 3046 3414 3376 
Q 3245 3706 2950 3885 
Q 2656 4064 2266 4064 
Q 1882 4064 1584 3885 
Q 1286 3706 1116 3376 
Q 947 3046 947 2605 
L 947 1862 
Q 947 1421 1116 1094 
Q 1286 768 1584 585 
Q 1882 403 2266 403 
z
" transform="scale(0.015625)"/>
      <path id="IBMPlexSans-Regular-54" d="M 3520 3994 
L 2099 3994 
L 2099 0 
L 1562 0 
L 1562 3994 
L 141 3994 
L 141 4467 
L 3520 4467 
L 3520 3994 
z
" transform="scale(0.015625)"/>
      <path id="IBMPlexSans-Regular-53" d="M 1850 -77 
Q 1312 -77 925 131 
Q 538 339 269 704 
L 666 1037 
Q 902 723 1190 560 
Q 1478 397 1869 397 
Q 2349 397 2601 627 
Q 2854 858 2854 1242 
Q 2854 1453 2771 1600 
Q 2688 1747 2505 1846 
Q 2323 1946 2029 2010 
L 1664 2093 
Q 1261 2189 979 2342 
Q 698 2496 550 2739 
Q 403 2982 403 3322 
Q 403 3718 588 3990 
Q 774 4262 1110 4403 
Q 1446 4544 1882 4544 
Q 2387 4544 2748 4358 
Q 3110 4173 3360 3814 
L 2957 3520 
Q 2778 3776 2512 3923 
Q 2246 4070 1856 4070 
Q 1427 4070 1180 3884 
Q 934 3699 934 3341 
Q 934 3130 1027 2989 
Q 1120 2848 1305 2755 
Q 1491 2662 1773 2598 
L 2138 2515 
Q 2573 2419 2848 2252 
Q 3123 2086 3254 1843 
Q 3386 1600 3386 1267 
Q 3386 858 3200 557 
Q 3014 256 2672 89 
Q 2330 -77 1850 -77 
z
" transform="scale(0.015625)"/>
      <path id="IBMPlexSans-Regular-20" transform="scale(0.015625)"/>
      <path id="IBMPlexSans-Regular-2014" d="M 4762 1702 
L 230 1702 
L 230 2189 
L 4762 2189 
L 4762 1702 
z
" transform="scale(0.015625)"/>
      <path id="IBMPlexSans-Regular-42" d="M 595 0 
L 595 4467 
L 2432 4467 
Q 2982 4467 3302 4153 
Q 3622 3840 3622 3315 
Q 3622 2982 3504 2784 
Q 3386 2586 3216 2490 
Q 3046 2394 2899 2368 
L 2899 2330 
Q 3021 2323 3171 2262 
Q 3322 2202 3459 2080 
Q 3597 1958 3686 1766 
Q 3776 1574 3776 1293 
Q 3776 928 3625 633 
Q 3475 339 3216 169 
Q 2957 0 2624 0 
L 595 0 
z
M 1133 2074 
L 1133 474 
L 2458 474 
Q 2688 474 2854 554 
Q 3021 634 3110 787 
Q 3200 941 3200 1165 
L 3200 1382 
Q 3200 1606 3110 1760 
Q 3021 1914 2854 1994 
Q 2688 2074 2458 2074 
L 1133 2074 
z
M 1133 3994 
L 1133 2534 
L 2368 2534 
Q 2579 2534 2729 2608 
Q 2880 2682 2963 2819 
Q 3046 2957 3046 3155 
L 3046 3373 
Q 3046 3571 2963 3708 
Q 2880 3846 2729 3920 
Q 2579 3994 2368 3994 
L 1133 3994 
z
" transform="scale(0.015625)"/>
      <path id="IBMPlexSans-Regular-41" d="M 3955 0 
L 3392 0 
L 2944 1318 
L 1139 1318 
L 691 0 
L 147 0 
L 1709 4467 
L 2394 4467 
L 3955 0 
z
M 2810 1792 
L 2246 3411 
L 2054 3968 
L 2022 3968 
L 1830 3411 
L 1267 1792 
L 2810 1792 
z
" transform="scale(0.015625)"/>
      <path id="IBMPlexSans-Regular-4e" d="M 3309 0 
L 1677 2726 
L 1139 3718 
L 1120 3718 
L 1120 2726 
L 1120 0 
L 595 0 
L 595 4467 
L 1216 4467 
L 2848 1741 
L 3386 749 
L 3405 749 
L 3405 1741 
L 3405 4467 
L 3930 4467 
L 3930 0 
L 3309 0 
z
" transform="scale(0.015625)"/>
      <path id="IBMPlexSans-Regular-49" d="M 2176 0 
L 384 0 
L 384 448 
L 1011 448 
L 1011 4019 
L 384 4019 
L 384 4467 
L 2176 4467 
L 2176 4019 
L 1549 4019 
L 1549 448 
L 2176 448 
L 2176 0 
z
" transform="scale(0.015625)"/>
      <path id="IBMPlexSans-Regular-43" d="M 2170 -77 
Q 1606 -77 1203 182 
Q 800 442 585 950 
Q 371 1459 371 2208 
Q 371 2957 585 3478 
Q 800 4000 1203 4272 
Q 1606 4544 2170 4544 
Q 2726 4544 3110 4288 
Q 3494 4032 3706 3565 
L 3270 3302 
Q 3136 3648 2861 3856 
Q 2586 4064 2170 4064 
Q 1594 4064 1270 3645 
Q 947 3226 947 2541 
L 947 1875 
Q 947 1190 1270 796 
Q 1594 403 2170 403 
Q 2598 403 2886 624 
Q 3174 845 3309 1210 
L 3738 941 
Q 3526 474 3126 198 
Q 2726 -77 2170 -77 
z
" transform="scale(0.015625)"/>
      <path id="IBMPlexSans-Regular-4c" d="M 3034 0 
L 595 0 
L 595 4467 
L 1133 4467 
L 1133 474 
L 3034 474 
L 3034 0 
z
" transform="scale(0.015625)"/>
      <path id="IBMPlexSans-Regular-48" d="M 3392 0 
L 3392 2022 
L 1133 2022 
L 1133 0 
L 595 0 
L 595 4467 
L 1133 4467 
L 1133 2496 
L 3392 2496 
L 3392 4467 
L 3930 4467 
L 3930 0 
L 3392 0 
z
" transform="scale(0.015625)"/>
      <path id="IBMPlexSans-Regular-45" d="M 3322 0 
L 595 0 
L 595 4467 
L 3322 4467 
L 3322 3994 
L 1133 3994 
L 1133 2496 
L 3194 2496 
L 3194 2022 
L 1133 2022 
L 1133 474 
L 3322 474 
L 3322 0 
z
" transform="scale(0.015625)"/>
      <path id="IBMPlexSans-Regular-55" d="M 563 4467 
L 1101 4467 
L 1101 1702 
Q 1101 1280 1203 989 
Q 1306 698 1539 550 
Q 1773 403 2170 403 
Q 2566 403 2800 550 
Q 3034 698 3136 989 
Q 3238 1280 3238 1702 
L 3238 4467 
L 3776 4467 
L 3776 1830 
Q 3776 1184 3619 758 
Q 3462 333 3104 128 
Q 2746 -77 2150 -77 
Q 1555 -77 1209 128 
Q 864 333 713 758 
Q 563 1184 563 1830 
L 563 4467 
z
" transform="scale(0.015625)"/>
      <path id="IBMPlexSans-Regular-4d" d="M 595 0 
L 595 4467 
L 1312 4467 
L 2157 2886 
L 2592 2061 
L 2624 2061 
L 3066 2886 
L 3910 4467 
L 4602 4467 
L 4602 0 
L 4077 0 
L 4077 3014 
L 4077 3763 
L 4045 3763 
L 3667 3014 
L 2598 1069 
L 1530 3014 
L 1152 3763 
L 1120 3763 
L 1120 3014 
L 1120 0 
L 595 0 
z
" transform="scale(0.015625)"/>
     </defs>
     <use xlink:href="#IBMPlexSans-Regular-52"/>
     <use xlink:href="#IBMPlexSans-Regular-4f" transform="translate(63.999985 0)"/>
     <use xlink:href="#IBMPlexSans-Regular-4f" transform="translate(134.799973 0)"/>
     <use xlink:href="#IBMPlexSans-Regular-54" transform="translate(205.59996 0)"/>
     <use xlink:href="#IBMPlexSans-Regular-53" transform="translate(262.799957 0)"/>
     <use xlink:href="#IBMPlexSans-Regular-20" transform="translate(320.899948 0)"/>
     <use xlink:href="#IBMPlexSans-Regular-2014" transform="translate(344.499939 0)"/>
     <use xlink:href="#IBMPlexSans-Regular-20" transform="translate(422.499924 0)"/>
     <use xlink:href="#IBMPlexSans-Regular-42" transform="translate(446.099915 0)"/>
     <use xlink:href="#IBMPlexSans-Regular-4f" transform="translate(511.399902 0)"/>
     <use xlink:href="#IBMPlexSans-Regular-54" transform="translate(582.19989 0)"/>
     <use xlink:href="#IBMPlexSans-Regular-41" transform="translate(639.399887 0)"/>
     <use xlink:href="#IBMPlexSans-Regular-4e" transform="translate(703.499878 0)"/>
     <use xlink:href="#IBMPlexSans-Regular-49" transform="translate(774.19986 0)"/>
     <use xlink:href="#IBMPlexSans-Regular-43" transform="translate(814.199844 0)"/>
     <use xlink:href="#IBMPlexSans-Regular-41" transform="translate(876.299835 0)"/>
     <use xlink:href="#IBMPlexSans-Regular-4c" transform="translate(940.399826 0)"/>
     <use xlink:href="#IBMPlexSans-Regular-20" transform="translate(990.499817 0)"/>
     <use xlink:href="#IBMPlexSans-Regular-48" transform="translate(1014.099808 0)"/>
     <use xlink:href="#IBMPlexSans-Regular-41" transform="translate(1084.799789 0)"/>
     <use xlink:href="#IBMPlexSans-Regular-49" transform="translate(1148.89978 0)"/>
     <use xlink:href="#IBMPlexSans-Regular-52" transform="translate(1188.899765 0)"/>
     <use xlink:href="#IBMPlexSans-Regular-20" transform="translate(1252.89975 0)"/>
     <use xlink:href="#IBMPlexSans-Regular-53" transform="translate(1276.499741 0)"/>
     <use xlink:href="#IBMPlexSans-Regular-45" transform="translate(1334.599731 0)"/>
     <use xlink:href="#IBMPlexSans-Regular-52" transform="translate(1392.899719 0)"/>
     <use xlink:href="#IBMPlexSans-Regular-55" transform="translate(1456.899704 0)"/>
     <use xlink:href="#IBMPlexSans-Regular-4d" transform="translate(1524.699692 0)"/>
    </g>
   </g>
   <g id="text_3">
    <!-- INGREDIENTS -->
    <g style="fill: #7a3d14" transform="translate(18 26.78) scale(0.07 -0.07)">
     <defs>
      <path id="IBMPlexSans-Regular-47" d="M 3488 0 
L 3488 653 
L 3469 653 
Q 3386 339 3062 131 
Q 2739 -77 2227 -77 
Q 1683 -77 1264 188 
Q 845 454 608 969 
Q 371 1485 371 2234 
Q 371 2976 608 3491 
Q 845 4006 1273 4275 
Q 1702 4544 2272 4544 
Q 2874 4544 3277 4272 
Q 3680 4000 3898 3565 
L 3456 3296 
Q 3302 3654 2998 3859 
Q 2694 4064 2272 4064 
Q 1882 4064 1581 3881 
Q 1280 3699 1113 3369 
Q 947 3040 947 2598 
L 947 1875 
Q 947 1434 1113 1104 
Q 1280 774 1590 588 
Q 1901 403 2323 403 
Q 2637 403 2893 512 
Q 3149 621 3305 838 
Q 3462 1056 3462 1382 
L 3462 1824 
L 2477 1824 
L 2477 2298 
L 3987 2298 
L 3987 0 
L 3488 0 
z
" transform="scale(0.015625)"/>
      <path id="IBMPlexSans-Regular-44" d="M 595 0 
L 595 4467 
L 2093 4467 
Q 2650 4467 3062 4220 
Q 3475 3974 3699 3478 
Q 3923 2982 3923 2234 
Q 3923 1485 3699 989 
Q 3475 493 3062 246 
Q 2650 0 2093 0 
L 595 0 
z
M 1133 474 
L 2093 474 
Q 2464 474 2745 640 
Q 3027 806 3187 1116 
Q 3347 1427 3347 1869 
L 3347 2598 
Q 3347 3040 3187 3353 
Q 3027 3667 2745 3830 
Q 2464 3994 2093 3994 
L 1133 3994 
L 1133 474 
z
" transform="scale(0.015625)"/>
     </defs>
     <use xlink:href="#IBMPlexSans-Regular-49"/>
     <use xlink:href="#IBMPlexSans-Regular-4e" transform="translate(39.999985 0)"/>
     <use xlink:href="#IBMPlexSans-Regular-47" transform="translate(110.699966 0)"/>
     <use xlink:href="#IBMPlexSans-Regular-52" transform="translate(180.199951 0)"/>
     <use xlink:href="#IBMPlexSans-Regular-45" transform="translate(244.199936 0)"/>
     <use xlink:href="#IBMPlexSans-Regular-44" transform="translate(302.499924 0)"/>
     <use xlink:href="#IBMPlexSans-Regular-49" transform="translate(369.599915 0)"/>
     <use xlink:href="#IBMPlexSans-Regular-45" transform="translate(409.599899 0)"/>
     <use xlink:href="#IBMPlexSans-Regular-4e" transform="translate(467.899887 0)"/>
     <use xlink:href="#IBMPlexSans-Regular-54" transform="translate(538.599869 0)"/>
     <use xlink:href="#IBMPlexSans-Regular-53" transform="translate(595.799866 0)"/>
    </g>
   </g>
   <g id="text_4">
    <!-- Water, Glycerin, Rosmarinus Officinalis -->
    <g style="fill: #1a1512" transform="translate(18 44.56) scale(0.05 -0.05)">
     <defs>
      <path id="IBMPlexSans-Regular-57" d="M 1811 0 
L 1216 0 
L 128 4467 
L 698 4467 
L 1178 2317 
L 1549 646 
L 1562 646 
L 1978 2317 
L 2541 4467 
L 3155 4467 
L 3699 2317 
L 4115 653 
L 4134 653 
L 4518 2317 
L 5024 4467 
L 5574 4467 
L 4429 0 
L 3834 0 
L 3251 2227 
L 2842 3866 
L 2829 3866 
L 2406 2227 
L 1811 0 
z
" transform="scale(0.015625)"/>
      <path id="IBMPlexSans-Regular-61" d="M 3232 0 
L 2944 0 
Q 2739 0 2611 86 
Q 2483 173 2425 326 
Q 2368 480 2368 678 
L 2368 723 
L 2566 538 
L 2342 538 
Q 2240 237 1987 80 
Q 1734 -77 1389 -77 
Q 864 -77 573 192 
Q 282 461 282 922 
Q 282 1235 435 1449 
Q 589 1664 899 1776 
Q 1210 1888 1690 1888 
L 2342 1888 
L 2342 2214 
Q 2342 2566 2150 2752 
Q 1958 2938 1562 2938 
Q 1267 2938 1062 2803 
Q 858 2669 723 2445 
L 416 2733 
Q 550 2995 844 3187 
Q 1139 3379 1587 3379 
Q 2182 3379 2518 3084 
Q 2854 2790 2854 2266 
L 2854 448 
L 3232 448 
L 3232 0 
z
M 2342 1504 
L 1664 1504 
Q 1229 1504 1024 1376 
Q 819 1248 819 1005 
L 819 870 
Q 819 627 998 492 
Q 1178 358 1472 358 
Q 1728 358 1923 438 
Q 2118 518 2230 656 
Q 2342 794 2342 960 
L 2342 1504 
z
" transform="scale(0.015625)"/>
      <path id="IBMPlexSans-Regular-74" d="M 1914 0 
L 1274 0 
Q 1011 0 870 153 
Q 730 307 730 544 
L 730 2854 
L 186 2854 
L 186 3302 
L 493 3302 
Q 659 3302 720 3369 
Q 781 3437 781 3603 
L 781 4218 
L 1242 4218 
L 1242 3302 
L 1965 3302 
L 1965 2854 
L 1242 2854 
L 1242 448 
L 1914 448 
L 1914 0 
z
" transform="scale(0.015625)"/>
      <path id="IBMPlexSans-Regular-65" d="M 1786 -77 
Q 1338 -77 1005 137 
Q 672 352 486 739 
Q 301 1126 301 1651 
Q 301 2176 486 2563 
Q 672 2950 1005 3164 
Q 1338 3379 1786 3379 
Q 2227 3379 2547 3171 
Q 2867 2963 3040 2598 
Q 3213 2234 3213 1766 
L 3213 1523 
L 838 1523 
L 838 1370 
Q 838 941 1097 656 
Q 1357 371 1818 371 
Q 2131 371 2364 518 
Q 2598 666 2726 941 
L 3091 678 
Q 2931 346 2592 134 
Q 2253 -77 1786 -77 
z
M 1786 2950 
Q 1510 2950 1296 2822 
Q 1082 2694 960 2467 
Q 838 2240 838 1952 
L 838 1907 
L 2662 1907 
L 2662 1978 
Q 2662 2272 2553 2489 
Q 2445 2707 2246 2828 
Q 2048 2950 1786 2950 
z
" transform="scale(0.015625)"/>
      <path id="IBMPlexSans-Regular-72" d="M 1056 0 
L 544 0 
L 544 3302 
L 1056 3302 
L 1056 2694 
L 1088 2694 
Q 1146 2854 1267 2992 
Q 1389 3130 1581 3216 
Q 1773 3302 2042 3302 
L 2240 3302 
L 2240 2790 
L 1939 2790 
Q 1664 2790 1465 2716 
Q 1267 2643 1161 2521 
Q 1056 2400 1056 2240 
L 1056 0 
z
" transform="scale(0.015625)"/>
      <path id="IBMPlexSans-Regular-2c" d="M 870 749 
Q 1075 749 1168 643 
Q 1261 538 1261 371 
L 1261 282 
Q 1261 26 1107 -294 
Q 954 -614 678 -851 
L 250 -851 
Q 442 -646 560 -464 
Q 678 -282 730 -58 
Q 602 -26 541 64 
Q 480 154 480 282 
L 480 371 
Q 480 538 576 643 
Q 672 749 870 749 
z
" transform="scale(0.015625)"/>
      <path id="IBMPlexSans-Regular-6c" d="M 1542 0 
L 1088 0 
Q 826 0 685 150 
Q 544 301 544 531 
L 544 4736 
L 1056 4736 
L 1056 448 
L 1542 448 
L 1542 0 
z
" transform="scale(0.015625)"/>
      <path id="IBMPlexSans-Regular-79" d="M 1779 1056 
L 2579 3302 
L 3085 3302 
L 1606 -768 
Q 1536 -966 1449 -1078 
Q 1363 -1190 1222 -1235 
Q 1082 -1280 838 -1280 
L 576 -1280 
L 576 -832 
L 1094 -832 
L 1344 -128 
L 109 3302 
L 621 3302 
L 1414 1056 
L 1568 518 
L 1600 518 
L 1779 1056 
z
" transform="scale(0.015625)"/>
      <path id="IBMPlexSans-Regular-63" d="M 1773 -77 
Q 1075 -77 688 390 
Q 301 858 301 1651 
Q 301 2445 688 2912 
Q 1075 3379 1773 3379 
Q 2266 3379 2566 3161 
Q 2867 2944 3008 2605 
L 2579 2387 
Q 2490 2643 2282 2784 
Q 2074 2925 1773 2925 
Q 1318 2925 1084 2646 
Q 851 2368 851 1933 
L 851 1370 
Q 851 941 1084 659 
Q 1318 378 1773 378 
Q 2086 378 2310 525 
Q 2534 672 2669 954 
L 3040 704 
Q 2880 352 2563 137 
Q 2246 -77 1773 -77 
z
" transform="scale(0.015625)"/>
      <path id="IBMPlexSans-Regular-69" d="M 800 4077 
Q 640 4077 563 4157 
Q 486 4237 486 4365 
L 486 4448 
Q 486 4576 563 4656 
Q 640 4736 800 4736 
Q 966 4736 1040 4656 
Q 1114 4576 1114 4448 
L 1114 4365 
Q 1114 4237 1040 4157 
Q 966 4077 800 4077 
z
M 544 0 
L 544 3302 
L 1056 3302 
L 1056 0 
L 544 0 
z
" transform="scale(0.015625)"/>
      <path id="IBMPlexSans-Regular-6e" d="M 1056 0 
L 544 0 
L 544 3302 
L 1056 3302 
L 1056 2765 
L 1082 2765 
Q 1203 3046 1424 3212 
Q 1645 3379 2016 3379 
Q 2528 3379 2825 3049 
Q 3123 2720 3123 2118 
L 3123 0 
L 2611 0 
L 2611 2029 
Q 2611 2470 2422 2694 
Q 2234 2918 1862 2918 
Q 1658 2918 1472 2851 
Q 1286 2784 1171 2643 
Q 1056 2502 1056 2291 
L 1056 0 
z
" transform="scale(0.015625)"/>
      <path id="IBMPlexSans-Regular-6f" d="M 1792 -77 
Q 1350 -77 1014 137 
Q 678 352 489 739 
Q 301 1126 301 1651 
Q 301 2176 489 2563 
Q 678 2950 1014 3164 
Q 1350 3379 1792 3379 
Q 2234 3379 2570 3164 
Q 2906 2950 3094 2563 
Q 3283 2176 3283 1651 
Q 3283 1126 3094 739 
Q 2906 352 2570 137 
Q 2234 -77 1792 -77 
z
M 1792 378 
Q 2208 378 2470 634 
Q 2733 890 2733 1414 
L 2733 1888 
Q 2733 2413 2470 2669 
Q 2208 2925 1792 2925 
Q 1382 2925 1116 2669 
Q 851 2413 851 1888 
L 851 1414 
Q 851 890 1116 634 
Q 1382 378 1792 378 
z
" transform="scale(0.015625)"/>
      <path id="IBMPlexSans-Regular-73" d="M 1536 -77 
Q 1082 -77 768 99 
Q 454 275 230 570 
L 595 864 
Q 787 627 1024 492 
Q 1261 358 1574 358 
Q 1901 358 2083 499 
Q 2266 640 2266 896 
Q 2266 1088 2141 1229 
Q 2016 1370 1690 1414 
L 1427 1453 
Q 1126 1498 883 1603 
Q 640 1709 502 1904 
Q 365 2099 365 2406 
Q 365 2899 701 3139 
Q 1037 3379 1542 3379 
Q 1811 3379 2019 3315 
Q 2227 3251 2393 3132 
Q 2560 3014 2694 2848 
L 2355 2541 
Q 2246 2694 2035 2819 
Q 1824 2944 1504 2944 
Q 1190 2944 1024 2806 
Q 858 2669 858 2432 
Q 858 2195 1021 2083 
Q 1184 1971 1491 1920 
L 1747 1882 
Q 2298 1798 2528 1564 
Q 2758 1331 2758 954 
Q 2758 634 2611 403 
Q 2464 173 2189 48 
Q 1914 -77 1536 -77 
z
" transform="scale(0.015625)"/>
      <path id="IBMPlexSans-Regular-6d" d="M 1056 0 
L 544 0 
L 544 3302 
L 1056 3302 
L 1056 2765 
L 1082 2765 
Q 1190 3021 1388 3200 
Q 1587 3379 1971 3379 
Q 2298 3379 2573 3222 
Q 2848 3066 2982 2707 
L 2995 2707 
Q 3085 2976 3331 3177 
Q 3578 3379 4000 3379 
Q 4506 3379 4790 3049 
Q 5075 2720 5075 2118 
L 5075 0 
L 4563 0 
L 4563 2029 
Q 4563 2464 4390 2691 
Q 4218 2918 3840 2918 
Q 3642 2918 3462 2851 
Q 3283 2784 3174 2643 
Q 3066 2502 3066 2291 
L 3066 0 
L 2554 0 
L 2554 2029 
Q 2554 2470 2381 2694 
Q 2208 2918 1843 2918 
Q 1645 2918 1462 2851 
Q 1280 2784 1168 2643 
Q 1056 2502 1056 2291 
L 1056 0 
z
" transform="scale(0.015625)"/>
      <path id="IBMPlexSans-Regular-75" d="M 2579 0 
L 2579 538 
L 2554 538 
Q 2458 301 2250 112 
Q 2042 -77 1626 -77 
Q 1120 -77 816 252 
Q 512 582 512 1184 
L 512 3302 
L 1024 3302 
L 1024 1274 
Q 1024 832 1216 608 
Q 1408 384 1779 384 
Q 1984 384 2166 451 
Q 2349 518 2464 659 
Q 2579 800 2579 1018 
L 2579 3302 
L 3091 3302 
L 3091 0 
L 2579 0 
z
" transform="scale(0.015625)"/>
      <path id="IBMPlexSans-Regular-66" d="M 723 0 
L 723 2854 
L 186 2854 
L 186 3302 
L 723 3302 
L 723 3968 
Q 723 4307 902 4521 
Q 1082 4736 1446 4736 
L 1946 4736 
L 1946 4288 
L 1235 4288 
L 1235 3302 
L 1946 3302 
L 1946 2854 
L 1235 2854 
L 1235 0 
L 723 0 
z
" transform="scale(0.015625)"/>
     </defs>
     <use xlink:href="#IBMPlexSans-Regular-57"/>
     <use xlink:href="#IBMPlexSans-Regular-61" transform="translate(89.099991 0)"/>
     <use xlink:href="#IBMPlexSans-Regular-74" transform="translate(142.499985 0)"/>
     <use xlink:href="#IBMPlexSans-Regular-65" transform="translate(177.599976 0)"/>
     <use xlink:href="#IBMPlexSans-Regular-72" transform="translate(232.499969 0)"/>
     <use xlink:href="#IBMPlexSans-Regular-2c" transform="translate(269.199966 0)"/>
     <use xlink:href="#IBMPlexSans-Regular-20" transform="translate(296.399963 0)"/>
     <use xlink:href="#IBMPlexSans-Regular-47" transform="translate(319.999954 0)"/>
     <use xlink:href="#IBMPlexSans-Regular-6c" transform="translate(389.499939 0)"/>
     <use xlink:href="#IBMPlexSans-Regular-79" transform="translate(416.699936 0)"/>
     <use xlink:href="#IBMPlexSans-Regular-63" transform="translate(466.59993 0)"/>
     <use xlink:href="#IBMPlexSans-Regular-65" transform="translate(516.899918 0)"/>
     <use xlink:href="#IBMPlexSans-Regular-72" transform="translate(571.799911 0)"/>
     <use xlink:href="#IBMPlexSans-Regular-69" transform="translate(608.499908 0)"/>
     <use xlink:href="#IBMPlexSans-Regular-6e" transform="translate(633.499893 0)"/>
     <use xlink:href="#IBMPlexSans-Regular-2c" transform="translate(690.299881 0)"/>
     <use xlink:href="#IBMPlexSans-Regular-20" transform="translate(717.499878 0)"/>
     <use xlink:href="#IBMPlexSans-Regular-52" transform="translate(741.099869 0)"/>
     <use xlink:href="#IBMPlexSans-Regular-6f" transform="translate(805.099854 0)"/>
     <use xlink:href="#IBMPlexSans-Regular-73" transform="translate(861.099838 0)"/>
     <use xlink:href="#IBMPlexSans-Regular-6d" transform="translate(909.799835 0)"/>
     <use xlink:href="#IBMPlexSans-Regular-61" transform="translate(997.099823 0)"/>
     <use xlink:href="#IBMPlexSans-Regular-72" transform="translate(1050.499817 0)"/>
     <use xlink:href="#IBMPlexSans-Regular-69" transform="translate(1087.199814 0)"/>
     <use xlink:href="#IBMPlexSans-Regular-6e" transform="translate(1112.199799 0)"/>
     <use xlink:href="#IBMPlexSans-Regular-75" transform="translate(1168.999786 0)"/>
     <use xlink:href="#IBMPlexSans-Regular-73" transform="translate(1225.799774 0)"/>
     <use xlink:href="#IBMPlexSans-Regular-20" transform="translate(1274.499771 0)"/>
     <use xlink:href="#IBMPlexSans-Regular-4f" transform="translate(1298.099762 0)"/>
     <use xlink:href="#IBMPlexSans-Regular-66" transform="translate(1368.89975 0)"/>
     <use xlink:href="#IBMPlexSans-Regular-66" transform="translate(1401.299744 0)"/>
     <use xlink:href="#IBMPlexSans-Regular-69" transform="translate(1433.699738 0)"/>
     <use xlink:href="#IBMPlexSans-Regular-63" transform="translate(1458.699722 0)"/>
     <use xlink:href="#IBMPlexSans-Regular-69" transform="translate(1508.99971 0)"/>
     <use xlink:href="#IBMPlexSans-Regular-6e" transform="translate(1533.999695 0)"/>
     <use xlink:href="#IBMPlexSans-Regular-61" transform="translate(1590.799683 0)"/>
     <use xlink:href="#IBMPlexSans-Regular-6c" transform="translate(1644.199677 0)"/>
     <use xlink:href="#IBMPlexSans-Regular-69" transform="translate(1671.399673 0)"/>
     <use xlink:href="#IBMPlexSans-Regular-73" transform="translate(1696.399658 0)"/>
    </g>
    <!-- (Rosemary) Leaf Extract, Propanediol, Chlorella -->
    <g style="fill: #1a1512" transform="translate(18 50.31) scale(0.05 -0.05)">
     <defs>
      <path id="IBMPlexSans-Regular-28" d="M 531 1997 
Q 531 2618 684 3165 
Q 838 3712 1100 4150 
Q 1363 4589 1690 4864 
L 2176 4864 
Q 1824 4544 1561 4109 
Q 1299 3674 1155 3194 
Q 1011 2714 1011 2266 
L 1011 1715 
Q 1011 1267 1158 784 
Q 1306 301 1568 -134 
Q 1830 -570 2176 -877 
L 1690 -877 
Q 1376 -608 1110 -173 
Q 845 262 688 819 
Q 531 1376 531 1997 
z
" transform="scale(0.015625)"/>
      <path id="IBMPlexSans-Regular-29" d="M 1613 1997 
Q 1613 1376 1456 819 
Q 1299 262 1036 -173 
Q 774 -608 454 -877 
L -32 -877 
Q 314 -570 576 -134 
Q 838 301 985 784 
Q 1133 1267 1133 1715 
L 1133 2266 
Q 1133 2714 989 3194 
Q 845 3674 585 4109 
Q 326 4544 -32 4864 
L 454 4864 
Q 781 4589 1043 4150 
Q 1306 3712 1459 3165 
Q 1613 2618 1613 1997 
z
" transform="scale(0.015625)"/>
      <path id="IBMPlexSans-Regular-78" d="M 134 0 
L 1357 1664 
L 186 3302 
L 787 3302 
L 1626 2074 
L 1645 2074 
L 2515 3302 
L 3085 3302 
L 1920 1702 
L 3110 0 
L 2509 0 
L 1651 1293 
L 1632 1293 
L 704 0 
L 134 0 
z
" transform="scale(0.015625)"/>
      <path id="IBMPlexSans-Regular-50" d="M 1133 0 
L 595 0 
L 595 4467 
L 2374 4467 
Q 2778 4467 3056 4310 
Q 3334 4154 3478 3869 
Q 3622 3584 3622 3187 
Q 3622 2797 3478 2509 
Q 3334 2221 3056 2064 
Q 2778 1907 2374 1907 
L 1133 1907 
L 1133 0 
z
M 1133 3994 
L 1133 2381 
L 2374 2381 
Q 2586 2381 2736 2454 
Q 2886 2528 2966 2672 
Q 3046 2816 3046 3021 
L 3046 3354 
Q 3046 3558 2966 3702 
Q 2886 3846 2736 3920 
Q 2586 3994 2374 3994 
L 1133 3994 
z
" transform="scale(0.015625)"/>
      <path id="IBMPlexSans-Regular-70" d="M 544 -1280 
L 544 3302 
L 1056 3302 
L 1056 2765 
L 1082 2765 
Q 1210 3078 1459 3228 
Q 1709 3379 2048 3379 
Q 2464 3379 2765 3168 
Q 3066 2957 3229 2569 
Q 3392 2182 3392 1651 
Q 3392 1126 3229 736 
Q 3066 346 2765 134 
Q 2464 -77 2048 -77 
Q 1709 -77 1469 76 
Q 1229 230 1082 538 
L 1056 538 
L 1056 -1280 
L 544 -1280 
z
M 1907 384 
Q 2342 384 2592 656 
Q 2842 928 2842 1370 
L 2842 1933 
Q 2842 2374 2592 2646 
Q 2342 2918 1907 2918 
Q 1677 2918 1481 2835 
Q 1286 2752 1171 2611 
Q 1056 2470 1056 2285 
L 1056 1056 
Q 1056 845 1171 694 
Q 1286 544 1481 464 
Q 1677 384 1907 384 
z
" transform="scale(0.015625)"/>
      <path id="IBMPlexSans-Regular-64" d="M 2656 0 
L 2656 538 
L 2630 538 
Q 2483 230 2243 76 
Q 2003 -77 1664 -77 
Q 1254 -77 950 134 
Q 646 346 483 736 
Q 320 1126 320 1651 
Q 320 2182 483 2569 
Q 646 2957 950 3168 
Q 1254 3379 1664 3379 
Q 2003 3379 2252 3228 
Q 2502 3078 2630 2765 
L 2656 2765 
L 2656 4736 
L 3168 4736 
L 3168 0 
L 2656 0 
z
M 1805 384 
Q 2042 384 2234 464 
Q 2426 544 2541 694 
Q 2656 845 2656 1056 
L 2656 2285 
Q 2656 2470 2541 2611 
Q 2426 2752 2234 2835 
Q 2042 2918 1805 2918 
Q 1376 2918 1123 2646 
Q 870 2374 870 1933 
L 870 1370 
Q 870 928 1123 656 
Q 1376 384 1805 384 
z
" transform="scale(0.015625)"/>
      <path id="IBMPlexSans-Regular-68" d="M 544 0 
L 544 4736 
L 1056 4736 
L 1056 2765 
L 1082 2765 
Q 1203 3046 1424 3212 
Q 1645 3379 2016 3379 
Q 2528 3379 2825 3049 
Q 3123 2720 3123 2118 
L 3123 0 
L 2611 0 
L 2611 2029 
Q 2611 2470 2422 2694 
Q 2234 2918 1862 2918 
Q 1658 2918 1472 2851 
Q 1286 2784 1171 2643 
Q 1056 2502 1056 2291 
L 1056 0 
L 544 0 
z
" transform="scale(0.015625)"/>
     </defs>
     <use xlink:href="#IBMPlexSans-Regular-28"/>
     <use xlink:href="#IBMPlexSans-Regular-52" transform="translate(33.499985 0)"/>
     <use xlink:href="#IBMPlexSans-Regular-6f" transform="translate(97.499969 0)"/>
     <use xlink:href="#IBMPlexSans-Regular-73" transform="translate(153.499954 0)"/>
     <use xlink:href="#IBMPlexSans-Regular-65" transform="translate(202.199951 0)"/>
     <use xlink:href="#IBMPlexSans-Regular-6d" transform="translate(257.099945 0)"/>
     <use xlink:href="#IBMPlexSans-Regular-61" transform="translate(344.399933 0)"/>
     <use xlink:href="#IBMPlexSans-Regular-72" transform="translate(397.799927 0)"/>
     <use xlink:href="#IBMPlexSans-Regular-79" transform="translate(434.499924 0)"/>
     <use xlink:href="#IBMPlexSans-Regular-29" transform="translate(484.399918 0)"/>
     <use xlink:href="#IBMPlexSans-Regular-20" transform="translate(517.899902 0)"/>
     <use xlink:href="#IBMPlexSans-Regular-4c" transform="translate(541.499893 0)"/>
     <use xlink:href="#IBMPlexSans-Regular-65" transform="translate(591.599884 0)"/>
     <use xlink:href="#IBMPlexSans-Regular-61" transform="translate(646.499878 0)"/>
     <use xlink:href="#IBMPlexSans-Regular-66" transform="translate(699.899872 0)"/>
     <use xlink:href="#IBMPlexSans-Regular-20" transform="translate(732.299866 0)"/>
     <use xlink:href="#IBMPlexSans-Regular-45" transform="translate(755.899857 0)"/>
     <use xlink:href="#IBMPlexSans-Regular-78" transform="translate(814.199844 0)"/>
     <use xlink:href="#IBMPlexSans-Regular-74" transform="translate(864.899841 0)"/>
     <use xlink:href="#IBMPlexSans-Regular-72" transform="translate(899.999832 0)"/>
     <use xlink:href="#IBMPlexSans-Regular-61" transform="translate(936.699829 0)"/>
     <use xlink:href="#IBMPlexSans-Regular-63" transform="translate(990.099823 0)"/>
     <use xlink:href="#IBMPlexSans-Regular-74" transform="translate(1040.399811 0)"/>
     <use xlink:href="#IBMPlexSans-Regular-2c" transform="translate(1075.499802 0)"/>
     <use xlink:href="#IBMPlexSans-Regular-20" transform="translate(1102.699799 0)"/>
     <use xlink:href="#IBMPlexSans-Regular-50" transform="translate(1126.299789 0)"/>
     <use xlink:href="#IBMPlexSans-Regular-72" transform="translate(1186.89978 0)"/>
     <use xlink:href="#IBMPlexSans-Regular-6f" transform="translate(1223.599777 0)"/>
     <use xlink:href="#IBMPlexSans-Regular-70" transform="translate(1279.599762 0)"/>
     <use xlink:href="#IBMPlexSans-Regular-61" transform="translate(1337.599747 0)"/>
     <use xlink:href="#IBMPlexSans-Regular-6e" transform="translate(1390.999741 0)"/>
     <use xlink:href="#IBMPlexSans-Regular-65" transform="translate(1447.799728 0)"/>
     <use xlink:href="#IBMPlexSans-Regular-64" transform="translate(1502.699722 0)"/>
     <use xlink:href="#IBMPlexSans-Regular-69" transform="translate(1560.699707 0)"/>
     <use xlink:href="#IBMPlexSans-Regular-6f" transform="translate(1585.699692 0)"/>
     <use xlink:href="#IBMPlexSans-Regular-6c" transform="translate(1641.699677 0)"/>
     <use xlink:href="#IBMPlexSans-Regular-2c" transform="translate(1668.899673 0)"/>
     <use xlink:href="#IBMPlexSans-Regular-20" transform="translate(1696.09967 0)"/>
     <use xlink:href="#IBMPlexSans-Regular-43" transform="translate(1719.699661 0)"/>
     <use xlink:href="#IBMPlexSans-Regular-68" transform="translate(1781.799652 0)"/>
     <use xlink:href="#IBMPlexSans-Regular-6c" transform="translate(1838.59964 0)"/>
     <use xlink:href="#IBMPlexSans-Regular-6f" transform="translate(1865.799637 0)"/>
     <use xlink:href="#IBMPlexSans-Regular-72" transform="translate(1921.799622 0)"/>
     <use xlink:href="#IBMPlexSans-Regular-65" transform="translate(1958.499619 0)"/>
     <use xlink:href="#IBMPlexSans-Regular-6c" transform="translate(2013.399612 0)"/>
     <use xlink:href="#IBMPlexSans-Regular-6c" transform="translate(2040.599609 0)"/>
     <use xlink:href="#IBMPlexSans-Regular-61" transform="translate(2067.799606 0)"/>
    </g>
    <!-- Emersonii / Spirulina Maxima Extract (Densidyl), -->
    <g style="fill: #1a1512" transform="translate(18 56.06) scale(0.05 -0.05)">
     <defs>
      <path id="IBMPlexSans-Regular-2f" d="M 518 -966 
L 58 -966 
L 1728 4736 
L 2189 4736 
L 518 -966 
z
" transform="scale(0.015625)"/>
     </defs>
     <use xlink:href="#IBMPlexSans-Regular-45"/>
     <use xlink:href="#IBMPlexSans-Regular-6d" transform="translate(58.299988 0)"/>
     <use xlink:href="#IBMPlexSans-Regular-65" transform="translate(145.599976 0)"/>
     <use xlink:href="#IBMPlexSans-Regular-72" transform="translate(200.499969 0)"/>
     <use xlink:href="#IBMPlexSans-Regular-73" transform="translate(237.199966 0)"/>
     <use xlink:href="#IBMPlexSans-Regular-6f" transform="translate(285.899963 0)"/>
     <use xlink:href="#IBMPlexSans-Regular-6e" transform="translate(341.899948 0)"/>
     <use xlink:href="#IBMPlexSans-Regular-69" transform="translate(398.699936 0)"/>
     <use xlink:href="#IBMPlexSans-Regular-69" transform="translate(423.699921 0)"/>
     <use xlink:href="#IBMPlexSans-Regular-20" transform="translate(448.699905 0)"/>
     <use xlink:href="#IBMPlexSans-Regular-2f" transform="translate(472.299896 0)"/>
     <use xlink:href="#IBMPlexSans-Regular-20" transform="translate(510.599884 0)"/>
     <use xlink:href="#IBMPlexSans-Regular-53" transform="translate(534.199875 0)"/>
     <use xlink:href="#IBMPlexSans-Regular-70" transform="translate(592.299866 0)"/>
     <use xlink:href="#IBMPlexSans-Regular-69" transform="translate(650.29985 0)"/>
     <use xlink:href="#IBMPlexSans-Regular-72" transform="translate(675.299835 0)"/>
     <use xlink:href="#IBMPlexSans-Regular-75" transform="translate(711.999832 0)"/>
     <use xlink:href="#IBMPlexSans-Regular-6c" transform="translate(768.79982 0)"/>
     <use xlink:href="#IBMPlexSans-Regular-69" transform="translate(795.999817 0)"/>
     <use xlink:href="#IBMPlexSans-Regular-6e" transform="translate(820.999802 0)"/>
     <use xlink:href="#IBMPlexSans-Regular-61" transform="translate(877.799789 0)"/>
     <use xlink:href="#IBMPlexSans-Regular-20" transform="translate(931.199783 0)"/>
     <use xlink:href="#IBMPlexSans-Regular-4d" transform="translate(954.799774 0)"/>
     <use xlink:href="#IBMPlexSans-Regular-61" transform="translate(1035.999756 0)"/>
     <use xlink:href="#IBMPlexSans-Regular-78" transform="translate(1089.39975 0)"/>
     <use xlink:href="#IBMPlexSans-Regular-69" transform="translate(1140.099747 0)"/>
     <use xlink:href="#IBMPlexSans-Regular-6d" transform="translate(1165.099731 0)"/>
     <use xlink:href="#IBMPlexSans-Regular-61" transform="translate(1252.399719 0)"/>
     <use xlink:href="#IBMPlexSans-Regular-20" transform="translate(1305.799713 0)"/>
     <use xlink:href="#IBMPlexSans-Regular-45" transform="translate(1329.399704 0)"/>
     <use xlink:href="#IBMPlexSans-Regular-78" transform="translate(1387.699692 0)"/>
     <use xlink:href="#IBMPlexSans-Regular-74" transform="translate(1438.399689 0)"/>
     <use xlink:href="#IBMPlexSans-Regular-72" transform="translate(1473.49968 0)"/>
     <use xlink:href="#IBMPlexSans-Regular-61" transform="translate(1510.199677 0)"/>
     <use xlink:href="#IBMPlexSans-Regular-63" transform="translate(1563.59967 0)"/>
     <use xlink:href="#IBMPlexSans-Regular-74" transform="translate(1613.899658 0)"/>
     <use xlink:href="#IBMPlexSans-Regular-20" transform="translate(1648.999649 0)"/>
     <use xlink:href="#IBMPlexSans-Regular-28" transform="translate(1672.59964 0)"/>
     <use xlink:href="#IBMPlexSans-Regular-44" transform="translate(1706.099625 0)"/>
     <use xlink:href="#IBMPlexSans-Regular-65" transform="translate(1773.199615 0)"/>
     <use xlink:href="#IBMPlexSans-Regular-6e" transform="translate(1828.099609 0)"/>
     <use xlink:href="#IBMPlexSans-Regular-73" transform="translate(1884.899597 0)"/>
     <use xlink:href="#IBMPlexSans-Regular-69" transform="translate(1933.599594 0)"/>
     <use xlink:href="#IBMPlexSans-Regular-64" transform="translate(1958.599579 0)"/>
     <use xlink:href="#IBMPlexSans-Regular-79" transform="translate(2016.599564 0)"/>
     <use xlink:href="#IBMPlexSans-Regular-6c" transform="translate(2066.499557 0)"/>
     <use xlink:href="#IBMPlexSans-Regular-29" transform="translate(2093.699554 0)"/>
     <use xlink:href="#IBMPlexSans-Regular-2c" transform="translate(2127.199539 0)"/>
    </g>
    <!-- Sodium Hyaluronate, Salicylic Acid, Caffeine, -->
    <g style="fill: #1a1512" transform="translate(18 61.685) scale(0.05 -0.05)">
     <use xlink:href="#IBMPlexSans-Regular-53"/>
     <use xlink:href="#IBMPlexSans-Regular-6f" transform="translate(58.099991 0)"/>
     <use xlink:href="#IBMPlexSans-Regular-64" transform="translate(114.099976 0)"/>
     <use xlink:href="#IBMPlexSans-Regular-69" transform="translate(172.09996 0)"/>
     <use xlink:href="#IBMPlexSans-Regular-75" transform="translate(197.099945 0)"/>
     <use xlink:href="#IBMPlexSans-Regular-6d" transform="translate(253.899933 0)"/>
     <use xlink:href="#IBMPlexSans-Regular-20" transform="translate(341.199921 0)"/>
     <use xlink:href="#IBMPlexSans-Regular-48" transform="translate(364.799911 0)"/>
     <use xlink:href="#IBMPlexSans-Regular-79" transform="translate(435.499893 0)"/>
     <use xlink:href="#IBMPlexSans-Regular-61" transform="translate(485.399887 0)"/>
     <use xlink:href="#IBMPlexSans-Regular-6c" transform="translate(538.799881 0)"/>
     <use xlink:href="#IBMPlexSans-Regular-75" transform="translate(565.999878 0)"/>
     <use xlink:href="#IBMPlexSans-Regular-72" transform="translate(622.799866 0)"/>
     <use xlink:href="#IBMPlexSans-Regular-6f" transform="translate(659.499863 0)"/>
     <use xlink:href="#IBMPlexSans-Regular-6e" transform="translate(715.499847 0)"/>
     <use xlink:href="#IBMPlexSans-Regular-61" transform="translate(772.299835 0)"/>
     <use xlink:href="#IBMPlexSans-Regular-74" transform="translate(825.699829 0)"/>
     <use xlink:href="#IBMPlexSans-Regular-65" transform="translate(860.79982 0)"/>
     <use xlink:href="#IBMPlexSans-Regular-2c" transform="translate(915.699814 0)"/>
     <use xlink:href="#IBMPlexSans-Regular-20" transform="translate(942.899811 0)"/>
     <use xlink:href="#IBMPlexSans-Regular-53" transform="translate(966.499802 0)"/>
     <use xlink:href="#IBMPlexSans-Regular-61" transform="translate(1024.599792 0)"/>
     <use xlink:href="#IBMPlexSans-Regular-6c" transform="translate(1077.999786 0)"/>
     <use xlink:href="#IBMPlexSans-Regular-69" transform="translate(1105.199783 0)"/>
     <use xlink:href="#IBMPlexSans-Regular-63" transform="translate(1130.199768 0)"/>
     <use xlink:href="#IBMPlexSans-Regular-79" transform="translate(1180.499756 0)"/>
     <use xlink:href="#IBMPlexSans-Regular-6c" transform="translate(1230.39975 0)"/>
     <use xlink:href="#IBMPlexSans-Regular-69" transform="translate(1257.599747 0)"/>
     <use xlink:href="#IBMPlexSans-Regular-63" transform="translate(1282.599731 0)"/>
     <use xlink:href="#IBMPlexSans-Regular-20" transform="translate(1332.899719 0)"/>
     <use xlink:href="#IBMPlexSans-Regular-41" transform="translate(1356.49971 0)"/>
     <use xlink:href="#IBMPlexSans-Regular-63" transform="translate(1420.599701 0)"/>
     <use xlink:href="#IBMPlexSans-Regular-69" transform="translate(1470.899689 0)"/>
     <use xlink:href="#IBMPlexSans-Regular-64" transform="translate(1495.899673 0)"/>
     <use xlink:href="#IBMPlexSans-Regular-2c" transform="translate(1553.899658 0)"/>
     <use xlink:href="#IBMPlexSans-Regular-20" transform="translate(1581.099655 0)"/>
     <use xlink:href="#IBMPlexSans-Regular-43" transform="translate(1604.699646 0)"/>
     <use xlink:href="#IBMPlexSans-Regular-61" transform="translate(1666.799637 0)"/>
     <use xlink:href="#IBMPlexSans-Regular-66" transform="translate(1720.199631 0)"/>
     <use xlink:href="#IBMPlexSans-Regular-66" transform="translate(1752.599625 0)"/>
     <use xlink:href="#IBMPlexSans-Regular-65" transform="translate(1784.999619 0)"/>
     <use xlink:href="#IBMPlexSans-Regular-69" transform="translate(1839.899612 0)"/>
     <use xlink:href="#IBMPlexSans-Regular-6e" transform="translate(1864.899597 0)"/>
     <use xlink:href="#IBMPlexSans-Regular-65" transform="translate(1921.699585 0)"/>
     <use xlink:href="#IBMPlexSans-Regular-2c" transform="translate(1976.599579 0)"/>
    </g>
    <!-- Niacinamide, Phenoxyethanol, Ethylhexylglycerin. -->
    <g style="fill: #1a1512" transform="translate(18 67.31) scale(0.05 -0.05)">
     <defs>
      <path id="IBMPlexSans-Regular-67" d="M 3328 -365 
Q 3328 -704 3149 -925 
Q 2970 -1146 2614 -1251 
Q 2259 -1357 1728 -1357 
Q 1216 -1357 893 -1261 
Q 570 -1165 422 -982 
Q 275 -800 275 -544 
Q 275 -275 416 -121 
Q 557 32 800 96 
L 800 166 
Q 659 237 582 349 
Q 506 461 506 627 
Q 506 877 666 1008 
Q 826 1139 1075 1203 
L 1075 1229 
Q 781 1370 617 1632 
Q 454 1894 454 2240 
Q 454 2579 608 2835 
Q 762 3091 1043 3235 
Q 1325 3379 1696 3379 
Q 1875 3379 2032 3347 
Q 2189 3315 2323 3251 
L 2323 3309 
Q 2323 3501 2412 3625 
Q 2502 3750 2707 3750 
L 3200 3750 
L 3200 3302 
L 2573 3302 
L 2573 3091 
Q 2752 2938 2851 2720 
Q 2950 2502 2950 2240 
Q 2950 1907 2796 1648 
Q 2643 1389 2361 1245 
Q 2080 1101 1702 1101 
Q 1619 1101 1536 1110 
Q 1453 1120 1382 1133 
Q 1222 1088 1084 1001 
Q 947 915 947 762 
Q 947 614 1088 563 
Q 1229 512 1453 512 
L 2157 512 
Q 2771 512 3049 278 
Q 3328 45 3328 -365 
z
M 2848 -403 
Q 2848 -205 2697 -86 
Q 2547 32 2163 32 
L 1062 32 
Q 902 -38 828 -150 
Q 755 -262 755 -416 
Q 755 -634 918 -787 
Q 1082 -941 1472 -941 
L 1946 -941 
Q 2374 -941 2611 -806 
Q 2848 -672 2848 -403 
z
M 1702 1510 
Q 2029 1510 2221 1667 
Q 2413 1824 2413 2150 
L 2413 2330 
Q 2413 2656 2221 2813 
Q 2029 2970 1702 2970 
Q 1376 2970 1184 2813 
Q 992 2656 992 2330 
L 992 2150 
Q 992 1824 1184 1667 
Q 1376 1510 1702 1510 
z
" transform="scale(0.015625)"/>
      <path id="IBMPlexSans-Regular-2e" d="M 870 -77 
Q 672 -77 576 28 
Q 480 134 480 294 
L 480 378 
Q 480 544 576 646 
Q 672 749 870 749 
Q 1075 749 1168 646 
Q 1261 544 1261 378 
L 1261 294 
Q 1261 134 1168 28 
Q 1075 -77 870 -77 
z
" transform="scale(0.015625)"/>
     </defs>
     <use xlink:href="#IBMPlexSans-Regular-4e"/>
     <use xlink:href="#IBMPlexSans-Regular-69" transform="translate(70.699982 0)"/>
     <use xlink:href="#IBMPlexSans-Regular-61" transform="translate(95.699966 0)"/>
     <use xlink:href="#IBMPlexSans-Regular-63" transform="translate(149.09996 0)"/>
     <use xlink:href="#IBMPlexSans-Regular-69" transform="translate(199.399948 0)"/>
     <use xlink:href="#IBMPlexSans-Regular-6e" transform="translate(224.399933 0)"/>
     <use xlink:href="#IBMPlexSans-Regular-61" transform="translate(281.199921 0)"/>
     <use xlink:href="#IBMPlexSans-Regular-6d" transform="translate(334.599915 0)"/>
     <use xlink:href="#IBMPlexSans-Regular-69" transform="translate(421.899902 0)"/>
     <use xlink:href="#IBMPlexSans-Regular-64" transform="translate(446.899887 0)"/>
     <use xlink:href="#IBMPlexSans-Regular-65" transform="translate(504.899872 0)"/>
     <use xlink:href="#IBMPlexSans-Regular-2c" transform="translate(559.799866 0)"/>
     <use xlink:href="#IBMPlexSans-Regular-20" transform="translate(586.999863 0)"/>
     <use xlink:href="#IBMPlexSans-Regular-50" transform="translate(610.599854 0)"/>
     <use xlink:href="#IBMPlexSans-Regular-68" transform="translate(671.199844 0)"/>
     <use xlink:href="#IBMPlexSans-Regular-65" transform="translate(727.999832 0)"/>
     <use xlink:href="#IBMPlexSans-Regular-6e" transform="translate(782.899826 0)"/>
     <use xlink:href="#IBMPlexSans-Regular-6f" transform="translate(839.699814 0)"/>
     <use xlink:href="#IBMPlexSans-Regular-78" transform="translate(895.699799 0)"/>
     <use xlink:href="#IBMPlexSans-Regular-79" transform="translate(946.399796 0)"/>
     <use xlink:href="#IBMPlexSans-Regular-65" transform="translate(996.299789 0)"/>
     <use xlink:href="#IBMPlexSans-Regular-74" transform="translate(1051.199783 0)"/>
     <use xlink:href="#IBMPlexSans-Regular-68" transform="translate(1086.299774 0)"/>
     <use xlink:href="#IBMPlexSans-Regular-61" transform="translate(1143.099762 0)"/>
     <use xlink:href="#IBMPlexSans-Regular-6e" transform="translate(1196.499756 0)"/>
     <use xlink:href="#IBMPlexSans-Regular-6f" transform="translate(1253.299744 0)"/>
     <use xlink:href="#IBMPlexSans-Regular-6c" transform="translate(1309.299728 0)"/>
     <use xlink:href="#IBMPlexSans-Regular-2c" transform="translate(1336.499725 0)"/>
     <use xlink:href="#IBMPlexSans-Regular-20" transform="translate(1363.699722 0)"/>
     <use xlink:href="#IBMPlexSans-Regular-45" transform="translate(1387.299713 0)"/>
     <use xlink:href="#IBMPlexSans-Regular-74" transform="translate(1445.599701 0)"/>
     <use xlink:href="#IBMPlexSans-Regular-68" transform="translate(1480.699692 0)"/>
     <use xlink:href="#IBMPlexSans-Regular-79" transform="translate(1537.49968 0)"/>
     <use xlink:href="#IBMPlexSans-Regular-6c" transform="translate(1587.399673 0)"/>
     <use xlink:href="#IBMPlexSans-Regular-68" transform="translate(1614.59967 0)"/>
     <use xlink:href="#IBMPlexSans-Regular-65" transform="translate(1671.399658 0)"/>
     <use xlink:href="#IBMPlexSans-Regular-78" transform="translate(1726.299652 0)"/>
     <use xlink:href="#IBMPlexSans-Regular-79" transform="translate(1776.999649 0)"/>
     <use xlink:href="#IBMPlexSans-Regular-6c" transform="translate(1826.899643 0)"/>
     <use xlink:href="#IBMPlexSans-Regular-67" transform="translate(1854.09964 0)"/>
     <use xlink:href="#IBMPlexSans-Regular-6c" transform="translate(1906.899628 0)"/>
     <use xlink:href="#IBMPlexSans-Regular-79" transform="translate(1934.099625 0)"/>
     <use xlink:href="#IBMPlexSans-Regular-63" transform="translate(1983.999619 0)"/>
     <use xlink:href="#IBMPlexSans-Regular-65" transform="translate(2034.299606 0)"/>
     <use xlink:href="#IBMPlexSans-Regular-72" transform="translate(2089.1996 0)"/>
     <use xlink:href="#IBMPlexSans-Regular-69" transform="translate(2125.899597 0)"/>
     <use xlink:href="#IBMPlexSans-Regular-6e" transform="translate(2150.899582 0)"/>
     <use xlink:href="#IBMPlexSans-Regular-2e" transform="translate(2207.69957 0)"/>
    </g>
   </g>
   <g id="text_5">
    <!-- Net  2 fl oz  /  59 mL -->
    <g style="fill: #1a1512" transform="translate(18 181.68) scale(0.06 -0.06)">
     <defs>
      <path id="IBMPlexSans-Regular-32" d="M 3411 474 
L 3411 0 
L 480 0 
L 480 550 
L 1939 1894 
Q 2253 2182 2464 2508 
Q 2675 2835 2675 3155 
L 2675 3232 
Q 2675 3603 2470 3833 
Q 2266 4064 1850 4064 
Q 1440 4064 1225 3846 
Q 1011 3629 922 3309 
L 442 3494 
Q 531 3757 700 3997 
Q 870 4237 1158 4390 
Q 1446 4544 1875 4544 
Q 2310 4544 2617 4377 
Q 2925 4211 3085 3920 
Q 3245 3629 3245 3245 
Q 3245 2899 3120 2611 
Q 2995 2323 2774 2067 
Q 2554 1811 2266 1555 
L 1062 474 
L 3411 474 
z
" transform="scale(0.015625)"/>
      <path id="IBMPlexSans-Regular-7a" d="M 2758 0 
L 211 0 
L 211 429 
L 2086 2854 
L 269 2854 
L 269 3302 
L 2707 3302 
L 2707 2918 
L 794 448 
L 2758 448 
L 2758 0 
z
" transform="scale(0.015625)"/>
      <path id="IBMPlexSans-Regular-35" d="M 3187 4467 
L 3187 3994 
L 1229 3994 
L 1101 2291 
L 1146 2291 
Q 1254 2445 1376 2553 
Q 1498 2662 1664 2723 
Q 1830 2784 2061 2784 
Q 2445 2784 2745 2617 
Q 3046 2451 3219 2144 
Q 3392 1837 3392 1402 
Q 3392 966 3213 633 
Q 3034 301 2698 112 
Q 2362 -77 1888 -77 
Q 1517 -77 1254 35 
Q 992 147 809 320 
Q 627 493 493 685 
L 896 992 
Q 1069 730 1277 566 
Q 1485 403 1888 403 
Q 2342 403 2582 646 
Q 2822 890 2822 1331 
L 2822 1395 
Q 2822 1837 2582 2080 
Q 2342 2323 1888 2323 
Q 1581 2323 1405 2211 
Q 1229 2099 1088 1946 
L 634 2010 
L 794 4467 
L 3187 4467 
z
" transform="scale(0.015625)"/>
      <path id="IBMPlexSans-Regular-39" d="M 3411 2829 
Q 3411 2330 3267 1894 
Q 3123 1459 2883 1094 
Q 2643 730 2364 451 
Q 2086 173 1818 0 
L 1126 0 
Q 1606 352 1945 685 
Q 2285 1018 2509 1408 
Q 2733 1798 2854 2317 
L 2822 2330 
Q 2720 2150 2573 2003 
Q 2426 1856 2224 1773 
Q 2022 1690 1747 1690 
Q 1363 1690 1065 1856 
Q 768 2022 598 2332 
Q 429 2643 429 3066 
Q 429 3507 614 3840 
Q 800 4173 1133 4358 
Q 1466 4544 1914 4544 
Q 2381 4544 2713 4336 
Q 3046 4128 3228 3744 
Q 3411 3360 3411 2829 
z
M 1920 2144 
Q 2214 2144 2422 2253 
Q 2630 2362 2742 2573 
Q 2854 2784 2854 3085 
L 2854 3136 
Q 2854 3437 2742 3648 
Q 2630 3859 2422 3968 
Q 2214 4077 1920 4077 
Q 1626 4077 1418 3968 
Q 1210 3859 1098 3648 
Q 986 3437 986 3136 
L 986 3085 
Q 986 2784 1098 2573 
Q 1210 2362 1418 2253 
Q 1626 2144 1920 2144 
z
" transform="scale(0.015625)"/>
     </defs>
     <use xlink:href="#IBMPlexSans-Regular-4e"/>
     <use xlink:href="#IBMPlexSans-Regular-65" transform="translate(70.699982 0)"/>
     <use xlink:href="#IBMPlexSans-Regular-74" transform="translate(125.599976 0)"/>
     <use xlink:href="#IBMPlexSans-Regular-20" transform="translate(160.699966 0)"/>
     <use xlink:href="#IBMPlexSans-Regular-20" transform="translate(184.299957 0)"/>
     <use xlink:href="#IBMPlexSans-Regular-32" transform="translate(207.899948 0)"/>
     <use xlink:href="#IBMPlexSans-Regular-20" transform="translate(267.899933 0)"/>
     <use xlink:href="#IBMPlexSans-Regular-66" transform="translate(291.499924 0)"/>
     <use xlink:href="#IBMPlexSans-Regular-6c" transform="translate(323.899918 0)"/>
     <use xlink:href="#IBMPlexSans-Regular-20" transform="translate(351.099915 0)"/>
     <use xlink:href="#IBMPlexSans-Regular-6f" transform="translate(374.699905 0)"/>
     <use xlink:href="#IBMPlexSans-Regular-7a" transform="translate(430.69989 0)"/>
     <use xlink:href="#IBMPlexSans-Regular-20" transform="translate(477.099884 0)"/>
     <use xlink:href="#IBMPlexSans-Regular-20" transform="translate(500.699875 0)"/>
     <use xlink:href="#IBMPlexSans-Regular-2f" transform="translate(524.299866 0)"/>
     <use xlink:href="#IBMPlexSans-Regular-20" transform="translate(562.599854 0)"/>
     <use xlink:href="#IBMPlexSans-Regular-20" transform="translate(586.199844 0)"/>
     <use xlink:href="#IBMPlexSans-Regular-35" transform="translate(609.799835 0)"/>
     <use xlink:href="#IBMPlexSans-Regular-39" transform="translate(669.79982 0)"/>
     <use xlink:href="#IBMPlexSans-Regular-20" transform="translate(729.799805 0)"/>
     <use xlink:href="#IBMPlexSans-Regular-6d" transform="translate(753.399796 0)"/>
     <use xlink:href="#IBMPlexSans-Regular-4c" transform="translate(840.699783 0)"/>
    </g>
   </g>
   <g id="text_6">
    <!-- DIRECTIONS -->
    <g style="fill: #7a3d14" transform="translate(282.2616 26.78) scale(0.07 -0.07)">
     <use xlink:href="#IBMPlexSans-Regular-44"/>
     <use xlink:href="#IBMPlexSans-Regular-49" transform="translate(67.099991 0)"/>
     <use xlink:href="#IBMPlexSans-Regular-52" transform="translate(107.099976 0)"/>
     <use xlink:href="#IBMPlexSans-Regular-45" transform="translate(171.09996 0)"/>
     <use xlink:href="#IBMPlexSans-Regular-43" transform="translate(229.399948 0)"/>
     <use xlink:href="#IBMPlexSans-Regular-54" transform="translate(291.499939 0)"/>
     <use xlink:href="#IBMPlexSans-Regular-49" transform="translate(348.699936 0)"/>
     <use xlink:href="#IBMPlexSans-Regular-4f" transform="translate(388.699921 0)"/>
     <use xlink:href="#IBMPlexSans-Regular-4e" transform="translate(459.499908 0)"/>
     <use xlink:href="#IBMPlexSans-Regular-53" transform="translate(530.19989 0)"/>
    </g>
   </g>
   <g id="text_7">
    <!-- Apply a few drops directly to clean scalp once -->
    <g style="fill: #1a1512" transform="translate(282.2616 42.76) scale(0.05 -0.05)">
     <defs>
      <path id="IBMPlexSans-Regular-77" d="M 1082 0 
L 198 3302 
L 698 3302 
L 1050 1875 
L 1402 429 
L 1414 429 
L 1818 1875 
L 2234 3302 
L 2688 3302 
L 3117 1875 
L 3526 429 
L 3539 429 
L 3878 1875 
L 4237 3302 
L 4717 3302 
L 3840 0 
L 3206 0 
L 2746 1587 
L 2458 2592 
L 2445 2592 
L 2163 1587 
L 1702 0 
L 1082 0 
z
" transform="scale(0.015625)"/>
     </defs>
     <use xlink:href="#IBMPlexSans-Regular-41"/>
     <use xlink:href="#IBMPlexSans-Regular-70" transform="translate(64.099991 0)"/>
     <use xlink:href="#IBMPlexSans-Regular-70" transform="translate(122.099976 0)"/>
     <use xlink:href="#IBMPlexSans-Regular-6c" transform="translate(180.09996 0)"/>
     <use xlink:href="#IBMPlexSans-Regular-79" transform="translate(207.299957 0)"/>
     <use xlink:href="#IBMPlexSans-Regular-20" transform="translate(257.199951 0)"/>
     <use xlink:href="#IBMPlexSans-Regular-61" transform="translate(280.799942 0)"/>
     <use xlink:href="#IBMPlexSans-Regular-20" transform="translate(334.199936 0)"/>
     <use xlink:href="#IBMPlexSans-Regular-66" transform="translate(357.799927 0)"/>
     <use xlink:href="#IBMPlexSans-Regular-65" transform="translate(390.199921 0)"/>
     <use xlink:href="#IBMPlexSans-Regular-77" transform="translate(445.099915 0)"/>
     <use xlink:href="#IBMPlexSans-Regular-20" transform="translate(521.899902 0)"/>
     <use xlink:href="#IBMPlexSans-Regular-64" transform="translate(545.499893 0)"/>
     <use xlink:href="#IBMPlexSans-Regular-72" transform="translate(603.499878 0)"/>
     <use xlink:href="#IBMPlexSans-Regular-6f" transform="translate(640.199875 0)"/>
     <use xlink:href="#IBMPlexSans-Regular-70" transform="translate(696.19986 0)"/>
     <use xlink:href="#IBMPlexSans-Regular-73" transform="translate(754.199844 0)"/>
     <use xlink:href="#IBMPlexSans-Regular-20" transform="translate(802.899841 0)"/>
     <use xlink:href="#IBMPlexSans-Regular-64" transform="translate(826.499832 0)"/>
     <use xlink:href="#IBMPlexSans-Regular-69" transform="translate(884.499817 0)"/>
     <use xlink:href="#IBMPlexSans-Regular-72" transform="translate(909.499802 0)"/>
     <use xlink:href="#IBMPlexSans-Regular-65" transform="translate(946.199799 0)"/>
     <use xlink:href="#IBMPlexSans-Regular-63" transform="translate(1001.099792 0)"/>
     <use xlink:href="#IBMPlexSans-Regular-74" transform="translate(1051.39978 0)"/>
     <use xlink:href="#IBMPlexSans-Regular-6c" transform="translate(1086.499771 0)"/>
     <use xlink:href="#IBMPlexSans-Regular-79" transform="translate(1113.699768 0)"/>
     <use xlink:href="#IBMPlexSans-Regular-20" transform="translate(1163.599762 0)"/>
     <use xlink:href="#IBMPlexSans-Regular-74" transform="translate(1187.199753 0)"/>
     <use xlink:href="#IBMPlexSans-Regular-6f" transform="translate(1222.299744 0)"/>
     <use xlink:href="#IBMPlexSans-Regular-20" transform="translate(1278.299728 0)"/>
     <use xlink:href="#IBMPlexSans-Regular-63" transform="translate(1301.899719 0)"/>
     <use xlink:href="#IBMPlexSans-Regular-6c" transform="translate(1352.199707 0)"/>
     <use xlink:href="#IBMPlexSans-Regular-65" transform="translate(1379.399704 0)"/>
     <use xlink:href="#IBMPlexSans-Regular-61" transform="translate(1434.299698 0)"/>
     <use xlink:href="#IBMPlexSans-Regular-6e" transform="translate(1487.699692 0)"/>
     <use xlink:href="#IBMPlexSans-Regular-20" transform="translate(1544.49968 0)"/>
     <use xlink:href="#IBMPlexSans-Regular-73" transform="translate(1568.09967 0)"/>
     <use xlink:href="#IBMPlexSans-Regular-63" transform="translate(1616.799667 0)"/>
     <use xlink:href="#IBMPlexSans-Regular-61" transform="translate(1667.099655 0)"/>
     <use xlink:href="#IBMPlexSans-Regular-6c" transform="translate(1720.499649 0)"/>
     <use xlink:href="#IBMPlexSans-Regular-70" transform="translate(1747.699646 0)"/>
     <use xlink:href="#IBMPlexSans-Regular-20" transform="translate(1805.699631 0)"/>
     <use xlink:href="#IBMPlexSans-Regular-6f" transform="translate(1829.299622 0)"/>
     <use xlink:href="#IBMPlexSans-Regular-6e" transform="translate(1885.299606 0)"/>
     <use xlink:href="#IBMPlexSans-Regular-63" transform="translate(1942.099594 0)"/>
     <use xlink:href="#IBMPlexSans-Regular-65" transform="translate(1992.399582 0)"/>
    </g>
    <!-- daily. Massage in gently. Do not rinse. -->
    <g style="fill: #1a1512" transform="translate(282.2616 48.385) scale(0.05 -0.05)">
     <use xlink:href="#IBMPlexSans-Regular-64"/>
     <use xlink:href="#IBMPlexSans-Regular-61" transform="translate(57.999985 0)"/>
     <use xlink:href="#IBMPlexSans-Regular-69" transform="translate(111.399979 0)"/>
     <use xlink:href="#IBMPlexSans-Regular-6c" transform="translate(136.399963 0)"/>
     <use xlink:href="#IBMPlexSans-Regular-79" transform="translate(163.59996 0)"/>
     <use xlink:href="#IBMPlexSans-Regular-2e" transform="translate(213.499954 0)"/>
     <use xlink:href="#IBMPlexSans-Regular-20" transform="translate(240.699951 0)"/>
     <use xlink:href="#IBMPlexSans-Regular-4d" transform="translate(264.299942 0)"/>
     <use xlink:href="#IBMPlexSans-Regular-61" transform="translate(345.499924 0)"/>
     <use xlink:href="#IBMPlexSans-Regular-73" transform="translate(398.899918 0)"/>
     <use xlink:href="#IBMPlexSans-Regular-73" transform="translate(447.599915 0)"/>
     <use xlink:href="#IBMPlexSans-Regular-61" transform="translate(496.299911 0)"/>
     <use xlink:href="#IBMPlexSans-Regular-67" transform="translate(549.699905 0)"/>
     <use xlink:href="#IBMPlexSans-Regular-65" transform="translate(602.499893 0)"/>
     <use xlink:href="#IBMPlexSans-Regular-20" transform="translate(657.399887 0)"/>
     <use xlink:href="#IBMPlexSans-Regular-69" transform="translate(680.999878 0)"/>
     <use xlink:href="#IBMPlexSans-Regular-6e" transform="translate(705.999863 0)"/>
     <use xlink:href="#IBMPlexSans-Regular-20" transform="translate(762.79985 0)"/>
     <use xlink:href="#IBMPlexSans-Regular-67" transform="translate(786.399841 0)"/>
     <use xlink:href="#IBMPlexSans-Regular-65" transform="translate(839.199829 0)"/>
     <use xlink:href="#IBMPlexSans-Regular-6e" transform="translate(894.099823 0)"/>
     <use xlink:href="#IBMPlexSans-Regular-74" transform="translate(950.899811 0)"/>
     <use xlink:href="#IBMPlexSans-Regular-6c" transform="translate(985.999802 0)"/>
     <use xlink:href="#IBMPlexSans-Regular-79" transform="translate(1013.199799 0)"/>
     <use xlink:href="#IBMPlexSans-Regular-2e" transform="translate(1063.099792 0)"/>
     <use xlink:href="#IBMPlexSans-Regular-20" transform="translate(1090.299789 0)"/>
     <use xlink:href="#IBMPlexSans-Regular-44" transform="translate(1113.89978 0)"/>
     <use xlink:href="#IBMPlexSans-Regular-6f" transform="translate(1180.999771 0)"/>
     <use xlink:href="#IBMPlexSans-Regular-20" transform="translate(1236.999756 0)"/>
     <use xlink:href="#IBMPlexSans-Regular-6e" transform="translate(1260.599747 0)"/>
     <use xlink:href="#IBMPlexSans-Regular-6f" transform="translate(1317.399734 0)"/>
     <use xlink:href="#IBMPlexSans-Regular-74" transform="translate(1373.399719 0)"/>
     <use xlink:href="#IBMPlexSans-Regular-20" transform="translate(1408.49971 0)"/>
     <use xlink:href="#IBMPlexSans-Regular-72" transform="translate(1432.099701 0)"/>
     <use xlink:href="#IBMPlexSans-Regular-69" transform="translate(1468.799698 0)"/>
     <use xlink:href="#IBMPlexSans-Regular-6e" transform="translate(1493.799683 0)"/>
     <use xlink:href="#IBMPlexSans-Regular-73" transform="translate(1550.59967 0)"/>
     <use xlink:href="#IBMPlexSans-Regular-65" transform="translate(1599.299667 0)"/>
     <use xlink:href="#IBMPlexSans-Regular-2e" transform="translate(1654.199661 0)"/>
    </g>
   </g>
   <g id="text_8">
    <!-- CAUTION -->
    <g style="fill: #7a3d14" transform="translate(282.2616 73.04) scale(0.07 -0.07)">
     <use xlink:href="#IBMPlexSans-Regular-43"/>
     <use xlink:href="#IBMPlexSans-Regular-41" transform="translate(62.099991 0)"/>
     <use xlink:href="#IBMPlexSans-Regular-55" transform="translate(126.199982 0)"/>
     <use xlink:href="#IBMPlexSans-Regular-54" transform="translate(193.999969 0)"/>
     <use xlink:href="#IBMPlexSans-Regular-49" transform="translate(251.199966 0)"/>
     <use xlink:href="#IBMPlexSans-Regular-4f" transform="translate(291.199951 0)"/>
     <use xlink:href="#IBMPlexSans-Regular-4e" transform="translate(361.999939 0)"/>
    </g>
   </g>
   <g id="text_9">
    <!-- For external use only. Keep out of reach of -->
    <g style="fill: #1a1512" transform="translate(282.2616 89.02) scale(0.05 -0.05)">
     <defs>
      <path id="IBMPlexSans-Regular-46" d="M 1133 0 
L 595 0 
L 595 4467 
L 3258 4467 
L 3258 3994 
L 1133 3994 
L 1133 2496 
L 3072 2496 
L 3072 2022 
L 1133 2022 
L 1133 0 
z
" transform="scale(0.015625)"/>
      <path id="IBMPlexSans-Regular-4b" d="M 3251 0 
L 1766 2195 
L 1133 1491 
L 1133 0 
L 595 0 
L 595 4467 
L 1133 4467 
L 1133 2867 
L 1133 2093 
L 1152 2093 
L 1792 2867 
L 3142 4467 
L 3802 4467 
L 2138 2554 
L 3917 0 
L 3251 0 
z
" transform="scale(0.015625)"/>
     </defs>
     <use xlink:href="#IBMPlexSans-Regular-46"/>
     <use xlink:href="#IBMPlexSans-Regular-6f" transform="translate(55.899994 0)"/>
     <use xlink:href="#IBMPlexSans-Regular-72" transform="translate(111.899979 0)"/>
     <use xlink:href="#IBMPlexSans-Regular-20" transform="translate(148.599976 0)"/>
     <use xlink:href="#IBMPlexSans-Regular-65" transform="translate(172.199966 0)"/>
     <use xlink:href="#IBMPlexSans-Regular-78" transform="translate(227.09996 0)"/>
     <use xlink:href="#IBMPlexSans-Regular-74" transform="translate(277.799957 0)"/>
     <use xlink:href="#IBMPlexSans-Regular-65" transform="translate(312.899948 0)"/>
     <use xlink:href="#IBMPlexSans-Regular-72" transform="translate(367.799942 0)"/>
     <use xlink:href="#IBMPlexSans-Regular-6e" transform="translate(404.499939 0)"/>
     <use xlink:href="#IBMPlexSans-Regular-61" transform="translate(461.299927 0)"/>
     <use xlink:href="#IBMPlexSans-Regular-6c" transform="translate(514.699921 0)"/>
     <use xlink:href="#IBMPlexSans-Regular-20" transform="translate(541.899918 0)"/>
     <use xlink:href="#IBMPlexSans-Regular-75" transform="translate(565.499908 0)"/>
     <use xlink:href="#IBMPlexSans-Regular-73" transform="translate(622.299896 0)"/>
     <use xlink:href="#IBMPlexSans-Regular-65" transform="translate(670.999893 0)"/>
     <use xlink:href="#IBMPlexSans-Regular-20" transform="translate(725.899887 0)"/>
     <use xlink:href="#IBMPlexSans-Regular-6f" transform="translate(749.499878 0)"/>
     <use xlink:href="#IBMPlexSans-Regular-6e" transform="translate(805.499863 0)"/>
     <use xlink:href="#IBMPlexSans-Regular-6c" transform="translate(862.29985 0)"/>
     <use xlink:href="#IBMPlexSans-Regular-79" transform="translate(889.499847 0)"/>
     <use xlink:href="#IBMPlexSans-Regular-2e" transform="translate(939.399841 0)"/>
     <use xlink:href="#IBMPlexSans-Regular-20" transform="translate(966.599838 0)"/>
     <use xlink:href="#IBMPlexSans-Regular-4b" transform="translate(990.199829 0)"/>
     <use xlink:href="#IBMPlexSans-Regular-65" transform="translate(1053.599823 0)"/>
     <use xlink:href="#IBMPlexSans-Regular-65" transform="translate(1108.499817 0)"/>
     <use xlink:href="#IBMPlexSans-Regular-70" transform="translate(1163.399811 0)"/>
     <use xlink:href="#IBMPlexSans-Regular-20" transform="translate(1221.399796 0)"/>
     <use xlink:href="#IBMPlexSans-Regular-6f" transform="translate(1244.999786 0)"/>
     <use xlink:href="#IBMPlexSans-Regular-75" transform="translate(1300.999771 0)"/>
     <use xlink:href="#IBMPlexSans-Regular-74" transform="translate(1357.799759 0)"/>
     <use xlink:href="#IBMPlexSans-Regular-20" transform="translate(1392.89975 0)"/>
     <use xlink:href="#IBMPlexSans-Regular-6f" transform="translate(1416.499741 0)"/>
     <use xlink:href="#IBMPlexSans-Regular-66" transform="translate(1472.499725 0)"/>
     <use xlink:href="#IBMPlexSans-Regular-20" transform="translate(1504.899719 0)"/>
     <use xlink:href="#IBMPlexSans-Regular-72" transform="translate(1528.49971 0)"/>
     <use xlink:href="#IBMPlexSans-Regular-65" transform="translate(1565.199707 0)"/>
     <use xlink:href="#IBMPlexSans-Regular-61" transform="translate(1620.099701 0)"/>
     <use xlink:href="#IBMPlexSans-Regular-63" transform="translate(1673.499695 0)"/>
     <use xlink:href="#IBMPlexSans-Regular-68" transform="translate(1723.799683 0)"/>
     <use xlink:href="#IBMPlexSans-Regular-20" transform="translate(1780.59967 0)"/>
     <use xlink:href="#IBMPlexSans-Regular-6f" transform="translate(1804.199661 0)"/>
     <use xlink:href="#IBMPlexSans-Regular-66" transform="translate(1860.199646 0)"/>
    </g>
    <!-- children. Store in a cool, dry place. -->
    <g style="fill: #1a1512" transform="translate(282.2616 94.645) scale(0.05 -0.05)">
     <use xlink:href="#IBMPlexSans-Regular-63"/>
     <use xlink:href="#IBMPlexSans-Regular-68" transform="translate(50.299988 0)"/>
     <use xlink:href="#IBMPlexSans-Regular-69" transform="translate(107.099976 0)"/>
     <use xlink:href="#IBMPlexSans-Regular-6c" transform="translate(132.09996 0)"/>
     <use xlink:href="#IBMPlexSans-Regular-64" transform="translate(159.299957 0)"/>
     <use xlink:href="#IBMPlexSans-Regular-72" transform="translate(217.299942 0)"/>
     <use xlink:href="#IBMPlexSans-Regular-65" transform="translate(253.999939 0)"/>
     <use xlink:href="#IBMPlexSans-Regular-6e" transform="translate(308.899933 0)"/>
     <use xlink:href="#IBMPlexSans-Regular-2e" transform="translate(365.699921 0)"/>
     <use xlink:href="#IBMPlexSans-Regular-20" transform="translate(392.899918 0)"/>
     <use xlink:href="#IBMPlexSans-Regular-53" transform="translate(416.499908 0)"/>
     <use xlink:href="#IBMPlexSans-Regular-74" transform="translate(474.599899 0)"/>
     <use xlink:href="#IBMPlexSans-Regular-6f" transform="translate(509.69989 0)"/>
     <use xlink:href="#IBMPlexSans-Regular-72" transform="translate(565.699875 0)"/>
     <use xlink:href="#IBMPlexSans-Regular-65" transform="translate(602.399872 0)"/>
     <use xlink:href="#IBMPlexSans-Regular-20" transform="translate(657.299866 0)"/>
     <use xlink:href="#IBMPlexSans-Regular-69" transform="translate(680.899857 0)"/>
     <use xlink:href="#IBMPlexSans-Regular-6e" transform="translate(705.899841 0)"/>
     <use xlink:href="#IBMPlexSans-Regular-20" transform="translate(762.699829 0)"/>
     <use xlink:href="#IBMPlexSans-Regular-61" transform="translate(786.29982 0)"/>
     <use xlink:href="#IBMPlexSans-Regular-20" transform="translate(839.699814 0)"/>
     <use xlink:href="#IBMPlexSans-Regular-63" transform="translate(863.299805 0)"/>
     <use xlink:href="#IBMPlexSans-Regular-6f" transform="translate(913.599792 0)"/>
     <use xlink:href="#IBMPlexSans-Regular-6f" transform="translate(969.599777 0)"/>
     <use xlink:href="#IBMPlexSans-Regular-6c" transform="translate(1025.599762 0)"/>
     <use xlink:href="#IBMPlexSans-Regular-2c" transform="translate(1052.799759 0)"/>
     <use xlink:href="#IBMPlexSans-Regular-20" transform="translate(1079.999756 0)"/>
     <use xlink:href="#IBMPlexSans-Regular-64" transform="translate(1103.599747 0)"/>
     <use xlink:href="#IBMPlexSans-Regular-72" transform="translate(1161.599731 0)"/>
     <use xlink:href="#IBMPlexSans-Regular-79" transform="translate(1198.299728 0)"/>
     <use xlink:href="#IBMPlexSans-Regular-20" transform="translate(1248.199722 0)"/>
     <use xlink:href="#IBMPlexSans-Regular-70" transform="translate(1271.799713 0)"/>
     <use xlink:href="#IBMPlexSans-Regular-6c" transform="translate(1329.799698 0)"/>
     <use xlink:href="#IBMPlexSans-Regular-61" transform="translate(1356.999695 0)"/>
     <use xlink:href="#IBMPlexSans-Regular-63" transform="translate(1410.399689 0)"/>
     <use xlink:href="#IBMPlexSans-Regular-65" transform="translate(1460.699677 0)"/>
     <use xlink:href="#IBMPlexSans-Regular-2e" transform="translate(1515.59967 0)"/>
    </g>
   </g>
   <g id="text_10">
    <!-- Distributed by APLOMB Laboratories, Inc. -->
    <g style="fill: #6b5d4c" transform="translate(282.2616 168.48375) scale(0.04 -0.04)">
     <defs>
      <path id="IBMPlexSans-Regular-62" d="M 544 0 
L 544 4736 
L 1056 4736 
L 1056 2765 
L 1082 2765 
Q 1210 3078 1459 3228 
Q 1709 3379 2048 3379 
Q 2464 3379 2765 3168 
Q 3066 2957 3229 2569 
Q 3392 2182 3392 1651 
Q 3392 1126 3229 736 
Q 3066 346 2765 134 
Q 2464 -77 2048 -77 
Q 1709 -77 1469 76 
Q 1229 230 1082 538 
L 1056 538 
L 1056 0 
L 544 0 
z
M 1907 384 
Q 2342 384 2592 656 
Q 2842 928 2842 1370 
L 2842 1933 
Q 2842 2374 2592 2646 
Q 2342 2918 1907 2918 
Q 1677 2918 1481 2835 
Q 1286 2752 1171 2611 
Q 1056 2470 1056 2285 
L 1056 1056 
Q 1056 845 1171 694 
Q 1286 544 1481 464 
Q 1677 384 1907 384 
z
" transform="scale(0.015625)"/>
     </defs>
     <use xlink:href="#IBMPlexSans-Regular-44"/>
     <use xlink:href="#IBMPlexSans-Regular-69" transform="translate(67.099991 0)"/>
     <use xlink:href="#IBMPlexSans-Regular-73" transform="translate(92.099976 0)"/>
     <use xlink:href="#IBMPlexSans-Regular-74" transform="translate(140.799973 0)"/>
     <use xlink:href="#IBMPlexSans-Regular-72" transform="translate(175.899963 0)"/>
     <use xlink:href="#IBMPlexSans-Regular-69" transform="translate(212.59996 0)"/>
     <use xlink:href="#IBMPlexSans-Regular-62" transform="translate(237.599945 0)"/>
     <use xlink:href="#IBMPlexSans-Regular-75" transform="translate(295.59993 0)"/>
     <use xlink:href="#IBMPlexSans-Regular-74" transform="translate(352.399918 0)"/>
     <use xlink:href="#IBMPlexSans-Regular-65" transform="translate(387.499908 0)"/>
     <use xlink:href="#IBMPlexSans-Regular-64" transform="translate(442.399902 0)"/>
     <use xlink:href="#IBMPlexSans-Regular-20" transform="translate(500.399887 0)"/>
     <use xlink:href="#IBMPlexSans-Regular-62" transform="translate(523.999878 0)"/>
     <use xlink:href="#IBMPlexSans-Regular-79" transform="translate(581.999863 0)"/>
     <use xlink:href="#IBMPlexSans-Regular-20" transform="translate(631.899857 0)"/>
     <use xlink:href="#IBMPlexSans-Regular-41" transform="translate(655.499847 0)"/>
     <use xlink:href="#IBMPlexSans-Regular-50" transform="translate(719.599838 0)"/>
     <use xlink:href="#IBMPlexSans-Regular-4c" transform="translate(780.199829 0)"/>
     <use xlink:href="#IBMPlexSans-Regular-4f" transform="translate(830.29982 0)"/>
     <use xlink:href="#IBMPlexSans-Regular-4d" transform="translate(901.099808 0)"/>
     <use xlink:href="#IBMPlexSans-Regular-42" transform="translate(982.299789 0)"/>
     <use xlink:href="#IBMPlexSans-Regular-20" transform="translate(1047.599777 0)"/>
     <use xlink:href="#IBMPlexSans-Regular-4c" transform="translate(1071.199768 0)"/>
     <use xlink:href="#IBMPlexSans-Regular-61" transform="translate(1121.299759 0)"/>
     <use xlink:href="#IBMPlexSans-Regular-62" transform="translate(1174.699753 0)"/>
     <use xlink:href="#IBMPlexSans-Regular-6f" transform="translate(1232.699738 0)"/>
     <use xlink:href="#IBMPlexSans-Regular-72" transform="translate(1288.699722 0)"/>
     <use xlink:href="#IBMPlexSans-Regular-61" transform="translate(1325.399719 0)"/>
     <use xlink:href="#IBMPlexSans-Regular-74" transform="translate(1378.799713 0)"/>
     <use xlink:href="#IBMPlexSans-Regular-6f" transform="translate(1413.899704 0)"/>
     <use xlink:href="#IBMPlexSans-Regular-72" transform="translate(1469.899689 0)"/>
     <use xlink:href="#IBMPlexSans-Regular-69" transform="translate(1506.599686 0)"/>
     <use xlink:href="#IBMPlexSans-Regular-65" transform="translate(1531.59967 0)"/>
     <use xlink:href="#IBMPlexSans-Regular-73" transform="translate(1586.499664 0)"/>
     <use xlink:href="#IBMPlexSans-Regular-2c" transform="translate(1635.199661 0)"/>
     <use xlink:href="#IBMPlexSans-Regular-20" transform="translate(1662.399658 0)"/>
     <use xlink:href="#IBMPlexSans-Regular-49" transform="translate(1685.999649 0)"/>
     <use xlink:href="#IBMPlexSans-Regular-6e" transform="translate(1725.999634 0)"/>
     <use xlink:href="#IBMPlexSans-Regular-63" transform="translate(1782.799622 0)"/>
     <use xlink:href="#IBMPlexSans-Regular-2e" transform="translate(1833.099609 0)"/>
    </g>
    <!-- getaplomb.com -->
    <g style="fill: #6b5d4c" transform="translate(282.2616 172.98375) scale(0.04 -0.04)">
     <use xlink:href="#IBMPlexSans-Regular-67"/>
     <use xlink:href="#IBMPlexSans-Regular-65" transform="translate(52.799988 0)"/>
     <use xlink:href="#IBMPlexSans-Regular-74" transform="translate(107.699982 0)"/>
     <use xlink:href="#IBMPlexSans-Regular-61" transform="translate(142.799973 0)"/>
     <use xlink:href="#IBMPlexSans-Regular-70" transform="translate(196.199966 0)"/>
     <use xlink:href="#IBMPlexSans-Regular-6c" transform="translate(254.199951 0)"/>
     <use xlink:href="#IBMPlexSans-Regular-6f" transform="translate(281.399948 0)"/>
     <use xlink:href="#IBMPlexSans-Regular-6d" transform="translate(337.399933 0)"/>
     <use xlink:href="#IBMPlexSans-Regular-62" transform="translate(424.699921 0)"/>
     <use xlink:href="#IBMPlexSans-Regular-2e" transform="translate(482.699905 0)"/>
     <use xlink:href="#IBMPlexSans-Regular-63" transform="translate(509.899902 0)"/>
     <use xlink:href="#IBMPlexSans-Regular-6f" transform="translate(560.19989 0)"/>
     <use xlink:href="#IBMPlexSans-Regular-6d" transform="translate(616.199875 0)"/>
    </g>
    <!-- Vegan · Cruelty-free · Sulfate-free · Paraben- -->
    <g style="fill: #6b5d4c" transform="translate(282.2616 177.531875) scale(0.04 -0.04)">
     <defs>
      <path id="IBMPlexSans-Regular-56" d="M 2266 0 
L 1613 0 
L 128 4467 
L 704 4467 
L 1440 2214 
L 1933 538 
L 1965 538 
L 2470 2214 
L 3213 4467 
L 3770 4467 
L 2266 0 
z
" transform="scale(0.015625)"/>
      <path id="IBMPlexSans-Regular-b7" d="M 1043 1536 
Q 845 1536 749 1641 
Q 653 1747 653 1907 
L 653 1990 
Q 653 2157 749 2259 
Q 845 2362 1043 2362 
Q 1248 2362 1341 2259 
Q 1434 2157 1434 1990 
L 1434 1907 
Q 1434 1747 1341 1641 
Q 1248 1536 1043 1536 
z
" transform="scale(0.015625)"/>
      <path id="IBMPlexSans-Regular-2d" d="M 2112 1670 
L 442 1670 
L 442 2221 
L 2112 2221 
L 2112 1670 
z
" transform="scale(0.015625)"/>
     </defs>
     <use xlink:href="#IBMPlexSans-Regular-56"/>
     <use xlink:href="#IBMPlexSans-Regular-65" transform="translate(60.899994 0)"/>
     <use xlink:href="#IBMPlexSans-Regular-67" transform="translate(115.799988 0)"/>
     <use xlink:href="#IBMPlexSans-Regular-61" transform="translate(168.599976 0)"/>
     <use xlink:href="#IBMPlexSans-Regular-6e" transform="translate(221.999969 0)"/>
     <use xlink:href="#IBMPlexSans-Regular-20" transform="translate(278.799957 0)"/>
     <use xlink:href="#IBMPlexSans-Regular-b7" transform="translate(302.399948 0)"/>
     <use xlink:href="#IBMPlexSans-Regular-20" transform="translate(334.999939 0)"/>
     <use xlink:href="#IBMPlexSans-Regular-43" transform="translate(358.59993 0)"/>
     <use xlink:href="#IBMPlexSans-Regular-72" transform="translate(420.699921 0)"/>
     <use xlink:href="#IBMPlexSans-Regular-75" transform="translate(457.399918 0)"/>
     <use xlink:href="#IBMPlexSans-Regular-65" transform="translate(514.199905 0)"/>
     <use xlink:href="#IBMPlexSans-Regular-6c" transform="translate(569.099899 0)"/>
     <use xlink:href="#IBMPlexSans-Regular-74" transform="translate(596.299896 0)"/>
     <use xlink:href="#IBMPlexSans-Regular-79" transform="translate(631.399887 0)"/>
     <use xlink:href="#IBMPlexSans-Regular-2d" transform="translate(681.299881 0)"/>
     <use xlink:href="#IBMPlexSans-Regular-66" transform="translate(721.199875 0)"/>
     <use xlink:href="#IBMPlexSans-Regular-72" transform="translate(753.599869 0)"/>
     <use xlink:href="#IBMPlexSans-Regular-65" transform="translate(790.299866 0)"/>
     <use xlink:href="#IBMPlexSans-Regular-65" transform="translate(845.19986 0)"/>
     <use xlink:href="#IBMPlexSans-Regular-20" transform="translate(900.099854 0)"/>
     <use xlink:href="#IBMPlexSans-Regular-b7" transform="translate(923.699844 0)"/>
     <use xlink:href="#IBMPlexSans-Regular-20" transform="translate(956.299835 0)"/>
     <use xlink:href="#IBMPlexSans-Regular-53" transform="translate(979.899826 0)"/>
     <use xlink:href="#IBMPlexSans-Regular-75" transform="translate(1037.999817 0)"/>
     <use xlink:href="#IBMPlexSans-Regular-6c" transform="translate(1094.799805 0)"/>
     <use xlink:href="#IBMPlexSans-Regular-66" transform="translate(1121.999802 0)"/>
     <use xlink:href="#IBMPlexSans-Regular-61" transform="translate(1154.399796 0)"/>
     <use xlink:href="#IBMPlexSans-Regular-74" transform="translate(1207.799789 0)"/>
     <use xlink:href="#IBMPlexSans-Regular-65" transform="translate(1242.89978 0)"/>
     <use xlink:href="#IBMPlexSans-Regular-2d" transform="translate(1297.799774 0)"/>
     <use xlink:href="#IBMPlexSans-Regular-66" transform="translate(1337.699768 0)"/>
     <use xlink:href="#IBMPlexSans-Regular-72" transform="translate(1370.099762 0)"/>
     <use xlink:href="#IBMPlexSans-Regular-65" transform="translate(1406.799759 0)"/>
     <use xlink:href="#IBMPlexSans-Regular-65" transform="translate(1461.699753 0)"/>
     <use xlink:href="#IBMPlexSans-Regular-20" transform="translate(1516.599747 0)"/>
     <use xlink:href="#IBMPlexSans-Regular-b7" transform="translate(1540.199738 0)"/>
     <use xlink:href="#IBMPlexSans-Regular-20" transform="translate(1572.799728 0)"/>
     <use xlink:href="#IBMPlexSans-Regular-50" transform="translate(1596.399719 0)"/>
     <use xlink:href="#IBMPlexSans-Regular-61" transform="translate(1656.99971 0)"/>
     <use xlink:href="#IBMPlexSans-Regular-72" transform="translate(1710.399704 0)"/>
     <use xlink:href="#IBMPlexSans-Regular-61" transform="translate(1747.099701 0)"/>
     <use xlink:href="#IBMPlexSans-Regular-62" transform="translate(1800.499695 0)"/>
     <use xlink:href="#IBMPlexSans-Regular-65" transform="translate(1858.49968 0)"/>
     <use xlink:href="#IBMPlexSans-Regular-6e" transform="translate(1913.399673 0)"/>
     <use xlink:href="#IBMPlexSans-Regular-2d" transform="translate(1970.199661 0)"/>
    </g>
    <!-- free · Made in USA -->
    <g style="fill: #6b5d4c" transform="translate(282.2616 182.08) scale(0.04 -0.04)">
     <use xlink:href="#IBMPlexSans-Regular-66"/>
     <use xlink:href="#IBMPlexSans-Regular-72" transform="translate(32.399994 0)"/>
     <use xlink:href="#IBMPlexSans-Regular-65" transform="translate(69.099991 0)"/>
     <use xlink:href="#IBMPlexSans-Regular-65" transform="translate(123.999985 0)"/>
     <use xlink:href="#IBMPlexSans-Regular-20" transform="translate(178.899979 0)"/>
     <use xlink:href="#IBMPlexSans-Regular-b7" transform="translate(202.499969 0)"/>
     <use xlink:href="#IBMPlexSans-Regular-20" transform="translate(235.09996 0)"/>
     <use xlink:href="#IBMPlexSans-Regular-4d" transform="translate(258.699951 0)"/>
     <use xlink:href="#IBMPlexSans-Regular-61" transform="translate(339.899933 0)"/>
     <use xlink:href="#IBMPlexSans-Regular-64" transform="translate(393.299927 0)"/>
     <use xlink:href="#IBMPlexSans-Regular-65" transform="translate(451.299911 0)"/>
     <use xlink:href="#IBMPlexSans-Regular-20" transform="translate(506.199905 0)"/>
     <use xlink:href="#IBMPlexSans-Regular-69" transform="translate(529.799896 0)"/>
     <use xlink:href="#IBMPlexSans-Regular-6e" transform="translate(554.799881 0)"/>
     <use xlink:href="#IBMPlexSans-Regular-20" transform="translate(611.599869 0)"/>
     <use xlink:href="#IBMPlexSans-Regular-55" transform="translate(635.19986 0)"/>
     <use xlink:href="#IBMPlexSans-Regular-53" transform="translate(702.999847 0)"/>
     <use xlink:href="#IBMPlexSans-Regular-41" transform="translate(761.099838 0)"/>
    </g>
   </g>
   <g id="text_11">
    <!-- . -->
    <g style="fill: #7a3d14" transform="translate(259.974 111.915) scale(0.43 -0.43)">
     <defs>
      <path id="CormorantGaramond-Light-2e" d="M 627 -70 
Q 512 -70 441 -3 
Q 371 64 371 179 
Q 371 288 441 352 
Q 512 416 627 416 
Q 749 416 813 352 
Q 877 288 877 179 
Q 877 64 813 -3 
Q 749 -70 627 -70 
z
" transform="scale(0.015625)"/>
     </defs>
     <use xlink:href="#CormorantGaramond-Light-2e"/>
    </g>
   </g>
  </g>
 </g>
 <defs>
  <clipPath id="p74288ec85b">
   <rect x="0" y="0" width="410.22" height="204.48"/>
  </clipPath>
 </defs>
</svg>
