<?xml version="1.0" encoding="utf-8" standalone="no"?>
<!DOCTYPE svg PUBLIC "-//W3C//DTD SVG 1.1//EN"
  "http://www.w3.org/Graphics/SVG/1.1/DTD/svg11.dtd">
<svg xmlns:xlink="http://www.w3.org/1999/xlink" width="1116pt" height="1080pt" viewBox="0 0 1116 1080" xmlns="http://www.w3.org/2000/svg" version="1.1">
 <metadata>
  <rdf:RDF xmlns:dc="http://purl.org/dc/elements/1.1/" xmlns:cc="http://creativecommons.org/ns#" xmlns:rdf="http://www.w3.org/1999/02/22-rdf-syntax-ns#">
   <cc:Work>
    <dc:type rdf:resource="http://purl.org/dc/dcmitype/StillImage"/>
    <dc:date>2026-05-06T13:10:46.414613</dc:date>
    <dc:format>image/svg+xml</dc:format>
    <dc:creator>
     <cc:Agent>
      <dc:title>Matplotlib v3.10.8, https://matplotlib.org/</dc:title>
     </cc:Agent>
    </dc:creator>
   </cc:Work>
  </rdf:RDF>
 </metadata>
 <defs>
  <style type="text/css">*{stroke-linejoin: round; stroke-linecap: butt}</style>
 </defs>
 <g id="figure_1">
  <g id="patch_1">
   <path d="M 0 1080 
L 1116 1080 
L 1116 0 
L 0 0 
z
" style="fill: #f7f1e6"/>
  </g>
  <g id="axes_1">
   <g id="patch_2">
    <path d="M 0 1080 
L 1116 1080 
L 1116 0 
L 0 0 
z
" style="fill: #ffffff"/>
   </g>
   <g id="patch_3">
    <path d="M 0 1080 
L 1116 1080 
L 1116 0 
L 0 0 
z
" clip-path="url(#p5679b42662)" style="fill: #f7f1e6"/>
   </g>
   <g id="patch_4">
    <path d="M 324 1080 
L 792 1080 
L 792 828 
L 324 828 
z
" clip-path="url(#p5679b42662)" style="fill: #f7f1e6"/>
   </g>
   <g id="patch_5">
    <path d="M 342 846 
L 774 846 
L 774 558 
L 342 558 
z
" clip-path="url(#p5679b42662)" style="fill: #f7f1e6"/>
   </g>
   <g id="patch_6">
    <path d="M 342 558 
L 774 558 
L 774 342 
L 342 342 
z
" clip-path="url(#p5679b42662)" style="fill: #f7f1e6"/>
   </g>
   <g id="patch_7">
    <path d="M 324 360 
L 792 360 
L 792 108 
L 324 108 
z
" clip-path="url(#p5679b42662)" style="fill: #f7f1e6"/>
   </g>
   <g id="patch_8">
    <path d="M 324 144 
L 792 144 
L 792 0 
L 324 0 
z
" clip-path="url(#p5679b42662)" style="fill: #f7f1e6"/>
   </g>
   <g id="patch_9">
    <path d="M 54 846 
L 342 846 
L 342 558 
L 54 558 
z
" clip-path="url(#p5679b42662)" style="fill: #f7f1e6"/>
   </g>
   <g id="patch_10">
    <path d="M 774 846 
L 1062 846 
L 1062 558 
L 774 558 
z
" clip-path="url(#p5679b42662)" style="fill: #f7f1e6"/>
   </g>
   <g id="patch_11">
    <path d="M 18 846 
L 54 846 
L 54 558 
L 18 558 
z
" clip-path="url(#p5679b42662)" style="fill: #f7f1e6"/>
   </g>
   <g id="patch_12">
    <path d="M 1062 846 
L 1098 846 
L 1098 558 
L 1062 558 
z
" clip-path="url(#p5679b42662)" style="fill: #f7f1e6"/>
   </g>
   <g id="patch_13">
    <path d="M 54 558 
L 342 558 
L 342 486 
L 54 486 
z
" clip-path="url(#p5679b42662)" style="fill: #f7f1e6"/>
   </g>
   <g id="patch_14">
    <path d="M 54 918 
L 342 918 
L 342 846 
L 54 846 
z
" clip-path="url(#p5679b42662)" style="fill: #f7f1e6"/>
   </g>
   <g id="patch_15">
    <path d="M 774 558 
L 1062 558 
L 1062 486 
L 774 486 
z
" clip-path="url(#p5679b42662)" style="fill: #f7f1e6"/>
   </g>
   <g id="patch_16">
    <path d="M 774 918 
L 1062 918 
L 1062 846 
L 774 846 
z
" clip-path="url(#p5679b42662)" style="fill: #f7f1e6"/>
   </g>
   <g id="patch_17">
    <path d="M 36 864 
L 360 864 
L 360 540 
L 36 540 
z
" clip-path="url(#p5679b42662)" style="fill: #f7f1e6"/>
   </g>
   <g id="patch_18">
    <path d="M 0 864 
L 72 864 
L 72 540 
L 0 540 
z
" clip-path="url(#p5679b42662)" style="fill: #f7f1e6"/>
   </g>
   <g id="patch_19">
    <path d="M 756 864 
L 1080 864 
L 1080 540 
L 756 540 
z
" clip-path="url(#p5679b42662)" style="fill: #f7f1e6"/>
   </g>
   <g id="patch_20">
    <path d="M 1044 864 
L 1116 864 
L 1116 540 
L 1044 540 
z
" clip-path="url(#p5679b42662)" style="fill: #f7f1e6"/>
   </g>
   <g id="matplotlib.axis_1"/>
   <g id="matplotlib.axis_2"/>
   <g id="line2d_1">
    <path d="M 558 228.528 
L 558 188.856 
" clip-path="url(#p5679b42662)" style="fill: none; stroke: #7a3d14; stroke-width: 1.5"/>
   </g>
   <g id="patch_21">
    <path d="M 558 228.528 
L 552.82896 238.5828 
L 558 257.256 
L 563.17104 238.5828 
z
" clip-path="url(#p5679b42662)" style="fill: #7a3d14; stroke: #7a3d14; stroke-linejoin: miter"/>
   </g>
   <g id="text_1">
    <!-- Aplomb -->
    <g style="fill: #7a3d14" transform="translate(472.887187 253.726406) scale(0.3 -0.3)">
     <defs>
      <path id="CormorantGaramond-LightItalic-41" d="M -218 0 
Q -243 0 -243 38 
Q -243 77 -218 77 
Q -51 77 157 214 
Q 365 352 602 768 
L 2445 4064 
Q 2458 4090 2506 4080 
Q 2554 4070 2560 4051 
L 3091 538 
Q 3117 365 3158 262 
Q 3200 160 3296 118 
Q 3392 77 3590 77 
Q 3616 77 3616 38 
Q 3616 0 3590 0 
Q 3443 0 3289 13 
Q 3136 26 2957 26 
Q 2778 26 2640 13 
Q 2502 0 2349 0 
Q 2330 0 2330 38 
Q 2330 77 2349 77 
Q 2662 77 2739 173 
Q 2816 269 2778 538 
L 2310 3648 
L 2419 3757 
L 826 851 
Q 640 512 621 345 
Q 602 179 710 128 
Q 819 77 1011 77 
Q 1037 77 1037 38 
Q 1037 0 1005 0 
Q 883 0 710 13 
Q 538 26 371 26 
Q 186 26 67 13 
Q -51 0 -218 0 
z
M 1274 1837 
L 1370 1952 
L 2739 1952 
L 2752 1837 
L 1274 1837 
z
" transform="scale(0.015625)"/>
      <path id="CormorantGaramond-LightItalic-70" d="M -352 -1760 
Q -378 -1766 -384 -1728 
Q -390 -1690 -365 -1683 
Q -218 -1658 -144 -1619 
Q -70 -1581 -32 -1481 
Q 6 -1382 38 -1184 
L 691 2470 
Q 691 2490 729 2528 
Q 768 2566 819 2624 
Q 870 2682 915 2758 
Q 960 2835 979 2931 
Q 986 2957 1021 2950 
Q 1056 2944 1050 2918 
L 326 -1139 
Q 282 -1402 358 -1485 
Q 435 -1568 710 -1530 
Q 736 -1517 745 -1555 
Q 755 -1594 723 -1600 
L -352 -1760 
z
M 928 -6 
Q 672 -6 563 13 
Q 454 32 365 51 
L 429 371 
Q 550 288 707 230 
Q 864 173 1094 173 
Q 1395 173 1603 333 
Q 1811 493 1939 774 
Q 2067 1056 2112 1408 
Q 2144 1632 2121 1837 
Q 2099 2042 1984 2173 
Q 1869 2304 1600 2304 
Q 1299 2304 1001 2125 
Q 704 1946 307 1632 
Q 288 1626 262 1654 
Q 237 1683 256 1690 
Q 634 2029 1037 2272 
Q 1440 2515 1824 2515 
Q 2176 2515 2329 2284 
Q 2483 2054 2419 1619 
Q 2374 1293 2230 998 
Q 2086 704 1878 477 
Q 1670 250 1424 122 
Q 1178 -6 928 -6 
z
" transform="scale(0.015625)"/>
      <path id="CormorantGaramond-LightItalic-6c" d="M 576 -58 
Q 422 -58 384 80 
Q 346 218 410 570 
L 1056 4013 
Q 1094 4218 1004 4275 
Q 915 4333 614 4186 
Q 589 4173 573 4211 
Q 557 4250 582 4256 
L 1370 4640 
Q 1395 4653 1420 4627 
Q 1446 4602 1440 4589 
L 691 570 
Q 646 371 681 275 
Q 717 179 800 179 
Q 870 179 985 265 
Q 1101 352 1242 493 
Q 1267 518 1292 492 
Q 1318 467 1293 442 
Q 1082 205 912 73 
Q 742 -58 576 -58 
z
" transform="scale(0.015625)"/>
      <path id="CormorantGaramond-LightItalic-6f" d="M 979 -90 
Q 685 -90 489 86 
Q 294 262 220 563 
Q 147 864 218 1235 
Q 288 1606 483 1904 
Q 678 2202 956 2378 
Q 1235 2554 1549 2554 
Q 1875 2554 2073 2371 
Q 2272 2189 2336 1888 
Q 2400 1587 2330 1235 
Q 2253 838 2041 537 
Q 1830 237 1548 73 
Q 1267 -90 979 -90 
z
M 1203 70 
Q 1485 70 1721 300 
Q 1958 531 2035 954 
Q 2080 1178 2064 1427 
Q 2048 1677 1968 1897 
Q 1888 2118 1737 2259 
Q 1587 2400 1363 2400 
Q 1075 2400 835 2157 
Q 595 1914 512 1510 
Q 461 1274 480 1024 
Q 499 774 585 556 
Q 672 339 829 204 
Q 986 70 1203 70 
z
" transform="scale(0.015625)"/>
      <path id="CormorantGaramond-LightItalic-6d" d="M 3494 -58 
Q 3347 -58 3312 80 
Q 3277 218 3341 570 
L 3526 1587 
Q 3590 1965 3536 2150 
Q 3482 2336 3296 2336 
Q 3091 2336 2860 2067 
Q 2630 1798 2428 1283 
Q 2227 768 2093 38 
L 2029 45 
Q 2157 787 2381 1353 
Q 2605 1920 2886 2237 
Q 3168 2554 3475 2554 
Q 3731 2554 3811 2358 
Q 3891 2163 3814 1709 
L 3610 570 
Q 3578 371 3606 275 
Q 3635 179 3712 179 
Q 3789 179 3904 265 
Q 4019 352 4160 493 
Q 4186 518 4211 492 
Q 4237 467 4211 442 
Q 4000 205 3830 73 
Q 3661 -58 3494 -58 
z
M 525 -51 
Q 442 -51 419 -41 
Q 397 -32 397 -13 
Q 397 6 429 150 
Q 461 294 486 435 
L 755 1901 
Q 819 2291 646 2291 
Q 570 2291 448 2214 
Q 326 2138 186 1990 
Q 166 1965 137 1993 
Q 109 2022 134 2042 
Q 346 2285 528 2406 
Q 710 2528 870 2528 
Q 1018 2528 1053 2390 
Q 1088 2253 1024 1901 
L 691 38 
Q 672 -51 525 -51 
z
M 1933 -51 
Q 1850 -51 1827 -41 
Q 1805 -32 1805 -13 
Q 1805 6 1840 169 
Q 1875 333 1901 474 
L 2106 1587 
Q 2157 1965 2109 2150 
Q 2061 2336 1888 2336 
Q 1690 2336 1459 2067 
Q 1229 1798 1027 1283 
Q 826 768 691 38 
L 621 45 
Q 749 787 973 1353 
Q 1197 1920 1478 2237 
Q 1760 2554 2067 2554 
Q 2310 2554 2396 2358 
Q 2483 2163 2394 1709 
L 2093 38 
Q 2080 -51 1933 -51 
z
" transform="scale(0.015625)"/>
      <path id="CormorantGaramond-LightItalic-62" d="M 928 -83 
Q 621 -83 451 67 
Q 282 218 326 480 
L 998 4013 
Q 1037 4218 937 4275 
Q 838 4333 538 4186 
Q 512 4173 499 4211 
Q 486 4250 512 4256 
L 1293 4640 
Q 1318 4653 1344 4627 
Q 1370 4602 1363 4589 
L 634 614 
Q 595 378 752 227 
Q 909 77 1197 77 
Q 1408 77 1622 233 
Q 1837 390 2006 688 
Q 2176 986 2253 1408 
Q 2304 1651 2288 1852 
Q 2272 2054 2176 2176 
Q 2080 2298 1882 2298 
Q 1606 2298 1356 2086 
Q 1107 1875 918 1497 
Q 730 1120 634 614 
L 602 742 
Q 659 1107 806 1436 
Q 954 1766 1165 2016 
Q 1376 2266 1622 2410 
Q 1869 2554 2118 2554 
Q 2419 2554 2560 2288 
Q 2701 2022 2611 1606 
Q 2528 1190 2339 873 
Q 2150 557 1904 345 
Q 1658 134 1402 25 
Q 1146 -83 928 -83 
z
" transform="scale(0.015625)"/>
     </defs>
     <use xlink:href="#CormorantGaramond-LightItalic-41"/>
     <use xlink:href="#CormorantGaramond-LightItalic-70" transform="translate(59.899994 0)"/>
     <use xlink:href="#CormorantGaramond-LightItalic-6c" transform="translate(100.599991 0)"/>
     <use xlink:href="#CormorantGaramond-LightItalic-6f" transform="translate(124.099976 0)"/>
     <use xlink:href="#CormorantGaramond-LightItalic-6d" transform="translate(163.699966 0)"/>
     <use xlink:href="#CormorantGaramond-LightItalic-62" transform="translate(231.09996 0)"/>
    </g>
   </g>
   <g id="text_2">
    <!-- . -->
    <g style="fill: #7a3d14" transform="translate(555.12 253.726406) scale(0.3 -0.3)">
     <defs>
      <path id="CormorantGaramond-LightItalic-2e" d="M 416 -70 
Q 301 -70 233 -3 
Q 166 64 166 179 
Q 166 288 233 352 
Q 301 416 416 416 
Q 538 416 602 352 
Q 666 288 666 179 
Q 666 -70 416 -70 
z
" transform="scale(0.015625)"/>
     </defs>
     <use xlink:href="#CormorantGaramond-LightItalic-2e"/>
    </g>
   </g>
   <g id="line2d_2">
    <path d="M 471.6 933.84 
L 644.4 933.84 
" clip-path="url(#p5679b42662)" style="fill: none; stroke: #7a3d14; stroke-width: 0.6; stroke-linecap: square"/>
   </g>
   <g id="text_3">
    <!-- Preserving your self -->
    <g style="fill: #7a3d14" transform="translate(499.409766 953.471797) scale(0.17 -0.17)">
     <defs>
      <path id="CormorantGaramond-LightItalic-50" d="M 77 0 
Q 58 0 58 38 
Q 58 77 77 77 
Q 282 77 394 109 
Q 506 141 560 237 
Q 614 333 646 518 
L 1165 3482 
Q 1216 3757 1145 3840 
Q 1075 3923 762 3923 
Q 749 3923 749 3961 
Q 749 4000 762 4000 
Q 890 4000 1046 3990 
Q 1203 3981 1382 3981 
Q 1530 3981 1734 4000 
Q 1939 4019 2176 4019 
Q 2496 4019 2752 3900 
Q 3008 3782 3139 3536 
Q 3270 3290 3194 2899 
Q 3136 2579 2966 2345 
Q 2797 2112 2566 1965 
Q 2336 1818 2086 1747 
Q 1837 1677 1619 1677 
Q 1542 1677 1481 1683 
Q 1421 1690 1357 1709 
Q 1338 1715 1350 1756 
Q 1363 1798 1382 1792 
Q 1434 1779 1482 1772 
Q 1530 1766 1574 1766 
Q 1830 1766 2089 1875 
Q 2349 1984 2550 2205 
Q 2752 2426 2816 2771 
Q 2886 3142 2790 3401 
Q 2694 3661 2489 3798 
Q 2285 3936 2035 3936 
Q 1830 3936 1721 3913 
Q 1613 3891 1558 3795 
Q 1504 3699 1459 3469 
L 941 518 
Q 896 243 966 160 
Q 1037 77 1350 77 
Q 1363 77 1363 38 
Q 1363 0 1350 0 
Q 1222 0 1056 6 
Q 890 13 698 13 
Q 525 13 361 6 
Q 198 0 77 0 
z
" transform="scale(0.015625)"/>
      <path id="CormorantGaramond-LightItalic-72" d="M 672 38 
L 608 45 
Q 659 320 755 653 
Q 851 986 979 1315 
Q 1107 1645 1251 1920 
Q 1395 2195 1545 2361 
Q 1696 2528 1837 2528 
Q 1920 2528 2000 2483 
Q 2080 2438 2128 2361 
Q 2176 2285 2157 2195 
Q 2138 2112 2090 2077 
Q 2042 2042 1971 2042 
Q 1875 2042 1833 2096 
Q 1792 2150 1763 2204 
Q 1734 2259 1670 2259 
Q 1574 2259 1462 2105 
Q 1350 1952 1228 1702 
Q 1107 1453 998 1155 
Q 890 858 803 563 
Q 717 269 672 38 
z
M 512 -51 
Q 429 -51 406 -41 
Q 384 -32 384 -13 
Q 384 6 419 169 
Q 454 333 480 474 
L 678 1594 
Q 736 1888 723 2035 
Q 710 2182 662 2236 
Q 614 2291 557 2291 
Q 461 2291 355 2214 
Q 250 2138 166 2061 
Q 154 2048 128 2070 
Q 102 2093 115 2112 
Q 294 2317 457 2422 
Q 621 2528 781 2528 
Q 890 2528 950 2451 
Q 1011 2374 1017 2172 
Q 1024 1971 954 1594 
L 672 38 
Q 659 -51 512 -51 
z
" transform="scale(0.015625)"/>
      <path id="CormorantGaramond-LightItalic-65" d="M 986 -77 
Q 653 -77 461 99 
Q 269 275 208 563 
Q 147 851 211 1184 
Q 250 1421 381 1664 
Q 512 1907 707 2108 
Q 902 2310 1142 2432 
Q 1382 2554 1651 2554 
Q 1875 2554 1984 2461 
Q 2093 2368 2061 2208 
Q 2029 2061 1885 1923 
Q 1741 1786 1513 1674 
Q 1286 1562 1008 1482 
Q 730 1402 429 1363 
L 442 1446 
Q 941 1517 1283 1673 
Q 1626 1830 1690 2074 
Q 1741 2253 1625 2317 
Q 1510 2381 1376 2381 
Q 1146 2381 973 2246 
Q 800 2112 694 1888 
Q 589 1664 544 1395 
Q 474 1030 528 745 
Q 582 461 752 294 
Q 922 128 1197 128 
Q 1357 128 1526 173 
Q 1696 218 1856 339 
Q 1875 352 1897 326 
Q 1920 301 1901 282 
Q 1658 90 1434 6 
Q 1210 -77 986 -77 
z
" transform="scale(0.015625)"/>
      <path id="CormorantGaramond-LightItalic-73" d="M 634 -70 
Q 403 -70 227 42 
Q 51 154 77 314 
Q 90 390 141 428 
Q 192 467 250 467 
Q 320 467 355 403 
Q 390 339 432 259 
Q 474 179 557 115 
Q 640 51 800 51 
Q 986 51 1104 156 
Q 1222 262 1248 474 
Q 1280 672 1197 816 
Q 1114 960 973 1075 
Q 832 1190 697 1308 
Q 563 1427 483 1571 
Q 403 1715 442 1914 
Q 480 2125 611 2262 
Q 742 2400 918 2467 
Q 1094 2534 1267 2534 
Q 1478 2534 1625 2444 
Q 1773 2355 1754 2234 
Q 1741 2150 1686 2115 
Q 1632 2080 1581 2080 
Q 1504 2080 1456 2128 
Q 1408 2176 1360 2240 
Q 1312 2304 1241 2352 
Q 1171 2400 1043 2400 
Q 922 2400 816 2339 
Q 710 2278 691 2131 
Q 659 1939 742 1798 
Q 826 1658 963 1536 
Q 1101 1414 1238 1289 
Q 1376 1165 1456 1011 
Q 1536 858 1504 653 
Q 1472 461 1347 294 
Q 1222 128 1036 29 
Q 851 -70 634 -70 
z
" transform="scale(0.015625)"/>
      <path id="CormorantGaramond-LightItalic-76" d="M 1178 -83 
Q 960 -83 825 54 
Q 691 192 643 403 
Q 595 614 627 832 
Q 678 1126 825 1440 
Q 973 1754 1094 2029 
Q 1133 2118 1113 2153 
Q 1094 2189 1024 2189 
L 691 2189 
Q 525 2189 441 2166 
Q 358 2144 310 2070 
Q 262 1997 211 1837 
Q 198 1811 163 1824 
Q 128 1837 141 1869 
Q 237 2144 307 2272 
Q 378 2400 480 2438 
Q 582 2477 768 2477 
L 1331 2477 
Q 1389 2477 1398 2464 
Q 1408 2451 1382 2400 
Q 1229 2048 1088 1657 
Q 947 1267 909 954 
Q 864 589 982 387 
Q 1101 186 1325 186 
Q 1517 186 1709 317 
Q 1901 448 2057 685 
Q 2214 922 2304 1242 
Q 2394 1562 2371 1744 
Q 2349 1926 2285 2009 
Q 2221 2093 2189 2118 
Q 2163 2144 2102 2198 
Q 2042 2253 2042 2342 
Q 2042 2451 2122 2492 
Q 2202 2534 2266 2534 
Q 2413 2534 2473 2371 
Q 2534 2208 2537 1974 
Q 2541 1741 2509 1530 
Q 2451 1146 2307 848 
Q 2163 550 1968 342 
Q 1773 134 1568 25 
Q 1363 -83 1178 -83 
z
" transform="scale(0.015625)"/>
      <path id="CormorantGaramond-LightItalic-69" d="M 704 -58 
Q 563 -58 515 70 
Q 467 198 538 570 
L 800 1901 
Q 877 2291 691 2291 
Q 614 2291 492 2214 
Q 371 2138 230 1990 
Q 211 1965 182 1993 
Q 154 2022 179 2042 
Q 397 2285 573 2406 
Q 749 2528 909 2528 
Q 1062 2528 1100 2390 
Q 1139 2253 1069 1901 
L 813 570 
Q 774 371 806 275 
Q 838 179 922 179 
Q 992 179 1113 256 
Q 1235 333 1376 480 
Q 1402 506 1427 477 
Q 1453 448 1427 429 
Q 1216 186 1040 64 
Q 864 -58 704 -58 
z
M 1101 3309 
Q 979 3309 912 3373 
Q 845 3437 845 3558 
Q 845 3667 912 3731 
Q 979 3795 1101 3795 
Q 1222 3795 1286 3731 
Q 1350 3667 1350 3558 
Q 1350 3309 1101 3309 
z
" transform="scale(0.015625)"/>
      <path id="CormorantGaramond-LightItalic-6e" d="M 2150 -58 
Q 1997 -58 1961 80 
Q 1926 218 1990 570 
L 2176 1587 
Q 2330 2336 1926 2336 
Q 1715 2336 1481 2067 
Q 1248 1798 1040 1283 
Q 832 768 698 38 
L 627 45 
Q 762 787 986 1353 
Q 1210 1920 1501 2237 
Q 1792 2554 2106 2554 
Q 2381 2554 2470 2358 
Q 2560 2163 2470 1709 
L 2259 570 
Q 2227 371 2259 275 
Q 2291 179 2374 179 
Q 2445 179 2560 265 
Q 2675 352 2816 493 
Q 2835 518 2864 492 
Q 2893 467 2867 442 
Q 2656 205 2486 73 
Q 2317 -58 2150 -58 
z
M 531 -51 
Q 448 -51 422 -41 
Q 397 -32 397 -13 
Q 397 6 432 156 
Q 467 307 493 474 
L 755 1901 
Q 819 2291 646 2291 
Q 570 2291 448 2214 
Q 326 2138 186 1990 
Q 166 1965 137 1993 
Q 109 2022 134 2042 
Q 346 2285 528 2406 
Q 710 2528 870 2528 
Q 1018 2528 1053 2390 
Q 1088 2253 1024 1901 
L 698 38 
Q 685 -51 531 -51 
z
" transform="scale(0.015625)"/>
      <path id="CormorantGaramond-LightItalic-67" d="M 678 -1798 
Q 333 -1798 109 -1686 
Q -115 -1574 -211 -1395 
Q -307 -1216 -262 -1018 
Q -192 -736 96 -528 
Q 384 -320 749 -115 
L 794 -166 
Q 634 -262 470 -361 
Q 307 -461 188 -582 
Q 70 -704 38 -883 
Q 6 -1088 112 -1257 
Q 218 -1427 442 -1526 
Q 666 -1626 979 -1626 
Q 1338 -1626 1536 -1482 
Q 1734 -1338 1747 -1120 
Q 1754 -947 1654 -819 
Q 1555 -691 1395 -592 
Q 1235 -493 1059 -403 
Q 883 -314 729 -218 
Q 576 -122 493 -6 
Q 410 109 435 262 
Q 467 403 572 524 
Q 678 646 838 787 
L 909 736 
Q 832 691 768 601 
Q 704 512 691 416 
Q 672 282 765 179 
Q 858 77 1014 -9 
Q 1171 -96 1347 -185 
Q 1523 -275 1680 -377 
Q 1837 -480 1929 -614 
Q 2022 -749 2003 -934 
Q 1990 -1152 1804 -1350 
Q 1619 -1549 1324 -1673 
Q 1030 -1798 678 -1798 
z
M 960 627 
Q 717 627 560 758 
Q 403 890 348 1104 
Q 294 1318 352 1574 
Q 403 1843 560 2054 
Q 717 2266 937 2387 
Q 1158 2509 1408 2509 
Q 1658 2509 1808 2381 
Q 1958 2253 2009 2041 
Q 2061 1830 2003 1574 
Q 1946 1286 1782 1075 
Q 1619 864 1401 745 
Q 1184 627 960 627 
z
M 1120 742 
Q 1318 742 1488 908 
Q 1658 1075 1715 1370 
Q 1754 1587 1722 1824 
Q 1690 2061 1574 2230 
Q 1459 2400 1248 2400 
Q 1043 2400 870 2221 
Q 698 2042 646 1766 
Q 602 1542 640 1302 
Q 678 1062 800 902 
Q 922 742 1120 742 
z
M 1645 2214 
L 1638 2259 
Q 1830 2374 2048 2444 
Q 2266 2515 2445 2515 
Q 2477 2515 2480 2467 
Q 2483 2419 2467 2361 
Q 2451 2304 2432 2262 
Q 2413 2221 2394 2234 
Q 2246 2304 2038 2291 
Q 1830 2278 1645 2214 
z
" transform="scale(0.015625)"/>
      <path id="CormorantGaramond-LightItalic-20" transform="scale(0.015625)"/>
      <path id="CormorantGaramond-LightItalic-79" d="M -122 -1798 
Q -224 -1798 -291 -1740 
Q -358 -1683 -346 -1562 
Q -307 -1421 -122 -1421 
Q 13 -1421 150 -1398 
Q 288 -1376 416 -1325 
Q 544 -1274 646 -1203 
Q 787 -1107 972 -873 
Q 1158 -640 1363 -336 
Q 1568 -32 1753 291 
Q 1939 614 2073 902 
Q 2208 1190 2253 1382 
Q 2291 1555 2284 1712 
Q 2278 1869 2246 1997 
Q 2214 2125 2188 2217 
Q 2163 2310 2163 2355 
Q 2163 2432 2214 2483 
Q 2266 2534 2355 2534 
Q 2483 2534 2528 2441 
Q 2573 2349 2573 2208 
Q 2573 1971 2473 1644 
Q 2374 1318 2198 937 
Q 2022 557 1798 173 
Q 1574 -211 1321 -566 
Q 1069 -922 809 -1197 
Q 550 -1472 310 -1635 
Q 70 -1798 -122 -1798 
z
M 1197 -691 
Q 1235 717 1033 1491 
Q 832 2266 454 2266 
Q 371 2266 281 2214 
Q 192 2163 122 2022 
Q 109 1997 73 2006 
Q 38 2016 45 2042 
Q 166 2285 297 2406 
Q 429 2528 602 2528 
Q 832 2528 1008 2307 
Q 1184 2086 1296 1702 
Q 1408 1318 1453 816 
Q 1498 314 1466 -256 
L 1197 -691 
z
" transform="scale(0.015625)"/>
      <path id="CormorantGaramond-LightItalic-75" d="M 851 -83 
Q 576 -83 483 115 
Q 390 314 486 762 
L 717 1901 
Q 755 2099 723 2195 
Q 691 2291 608 2291 
Q 538 2291 422 2208 
Q 307 2125 166 1978 
Q 141 1952 115 1977 
Q 90 2003 115 2029 
Q 326 2272 499 2400 
Q 672 2528 832 2528 
Q 979 2528 1020 2390 
Q 1062 2253 986 1901 
L 781 883 
Q 698 499 762 316 
Q 826 134 1030 134 
Q 1242 134 1475 403 
Q 1709 672 1917 1187 
Q 2125 1702 2259 2432 
L 2330 2426 
Q 2202 1683 1974 1116 
Q 1747 550 1459 233 
Q 1171 -83 851 -83 
z
M 2086 -58 
Q 1939 -58 1904 80 
Q 1869 218 1933 570 
L 2259 2432 
Q 2272 2522 2426 2522 
Q 2509 2522 2534 2512 
Q 2560 2502 2560 2483 
Q 2560 2464 2528 2313 
Q 2496 2163 2464 1997 
L 2202 570 
Q 2138 179 2310 179 
Q 2387 179 2508 256 
Q 2630 333 2771 480 
Q 2790 506 2819 477 
Q 2848 448 2822 429 
Q 2605 186 2429 64 
Q 2253 -58 2086 -58 
z
" transform="scale(0.015625)"/>
      <path id="CormorantGaramond-LightItalic-66" d="M -262 -1760 
Q -474 -1760 -557 -1680 
Q -640 -1600 -627 -1504 
Q -621 -1434 -563 -1379 
Q -506 -1325 -410 -1325 
Q -320 -1325 -278 -1373 
Q -237 -1421 -217 -1485 
Q -198 -1549 -166 -1597 
Q -134 -1645 -58 -1645 
Q 19 -1645 76 -1549 
Q 134 -1453 195 -1165 
Q 256 -877 339 -301 
L 666 1958 
Q 691 2118 675 2192 
Q 659 2266 572 2288 
Q 486 2310 301 2310 
Q 275 2310 281 2348 
Q 288 2387 307 2387 
Q 544 2387 643 2451 
Q 742 2515 768 2675 
Q 864 3258 973 3638 
Q 1082 4019 1226 4240 
Q 1370 4461 1565 4553 
Q 1760 4646 2035 4646 
Q 2253 4646 2365 4547 
Q 2477 4448 2464 4320 
Q 2445 4230 2390 4192 
Q 2336 4154 2266 4154 
Q 2182 4154 2144 4214 
Q 2106 4275 2074 4355 
Q 2042 4435 1990 4496 
Q 1939 4557 1837 4557 
Q 1581 4557 1389 4118 
Q 1197 3680 1069 2810 
L 646 -134 
Q 557 -742 445 -1100 
Q 333 -1459 163 -1609 
Q -6 -1760 -262 -1760 
z
M 1510 2195 
Q 1421 2208 1315 2224 
Q 1210 2240 1088 2249 
Q 966 2259 832 2259 
L 845 2400 
Q 979 2400 1161 2413 
Q 1344 2426 1494 2435 
Q 1645 2445 1683 2445 
Q 1715 2445 1724 2432 
Q 1734 2419 1728 2394 
Q 1722 2342 1651 2262 
Q 1581 2182 1510 2195 
z
" transform="scale(0.015625)"/>
     </defs>
     <use xlink:href="#CormorantGaramond-LightItalic-50"/>
     <use xlink:href="#CormorantGaramond-LightItalic-72" transform="translate(49.599991 0)"/>
     <use xlink:href="#CormorantGaramond-LightItalic-65" transform="translate(83.199982 0)"/>
     <use xlink:href="#CormorantGaramond-LightItalic-73" transform="translate(117.099976 0)"/>
     <use xlink:href="#CormorantGaramond-LightItalic-65" transform="translate(146.899963 0)"/>
     <use xlink:href="#CormorantGaramond-LightItalic-72" transform="translate(180.799957 0)"/>
     <use xlink:href="#CormorantGaramond-LightItalic-76" transform="translate(214.399948 0)"/>
     <use xlink:href="#CormorantGaramond-LightItalic-69" transform="translate(257.199936 0)"/>
     <use xlink:href="#CormorantGaramond-LightItalic-6e" transform="translate(281.899933 0)"/>
     <use xlink:href="#CormorantGaramond-LightItalic-67" transform="translate(328.199921 0)"/>
     <use xlink:href="#CormorantGaramond-LightItalic-20" transform="translate(365.899918 0)"/>
     <use xlink:href="#CormorantGaramond-LightItalic-79" transform="translate(389.299911 0)"/>
     <use xlink:href="#CormorantGaramond-LightItalic-6f" transform="translate(433.299896 0)"/>
     <use xlink:href="#CormorantGaramond-LightItalic-75" transform="translate(472.899887 0)"/>
     <use xlink:href="#CormorantGaramond-LightItalic-72" transform="translate(519.099884 0)"/>
     <use xlink:href="#CormorantGaramond-LightItalic-20" transform="translate(552.699875 0)"/>
     <use xlink:href="#CormorantGaramond-LightItalic-73" transform="translate(576.099869 0)"/>
     <use xlink:href="#CormorantGaramond-LightItalic-65" transform="translate(605.899857 0)"/>
     <use xlink:href="#CormorantGaramond-LightItalic-6c" transform="translate(639.79985 0)"/>
     <use xlink:href="#CormorantGaramond-LightItalic-66" transform="translate(663.299835 0)"/>
    </g>
   </g>
   <g id="text_4">
    <!-- through GLP-1 use. -->
    <g style="fill: #7a3d14" transform="translate(500.802969 979.391797) scale(0.17 -0.17)">
     <defs>
      <path id="CormorantGaramond-LightItalic-74" d="M 768 -77 
Q 653 -77 547 -29 
Q 442 19 390 131 
Q 339 243 371 435 
L 653 1958 
Q 698 2202 662 2256 
Q 627 2310 435 2310 
Q 410 2310 416 2348 
Q 422 2387 442 2387 
Q 646 2387 796 2521 
Q 947 2656 986 2861 
Q 986 2880 1040 2880 
Q 1094 2880 1088 2861 
L 691 653 
Q 640 384 710 259 
Q 781 134 979 134 
Q 1184 134 1334 227 
Q 1485 320 1619 435 
Q 1632 448 1657 422 
Q 1683 397 1670 384 
Q 1382 134 1168 28 
Q 954 -77 768 -77 
z
M 1677 2195 
Q 1658 2195 1530 2211 
Q 1402 2227 1232 2243 
Q 1062 2259 909 2259 
L 922 2400 
Q 1069 2400 1267 2413 
Q 1466 2426 1632 2435 
Q 1798 2445 1837 2445 
Q 1862 2445 1875 2432 
Q 1888 2419 1882 2394 
Q 1869 2342 1805 2268 
Q 1741 2195 1677 2195 
z
" transform="scale(0.015625)"/>
      <path id="CormorantGaramond-LightItalic-68" d="M 403 -51 
Q 320 -51 294 -41 
Q 269 -32 269 -13 
Q 269 6 304 156 
Q 339 307 365 474 
L 1030 4013 
Q 1075 4218 976 4275 
Q 877 4333 576 4186 
Q 550 4173 534 4211 
Q 518 4250 544 4256 
L 1331 4640 
Q 1357 4653 1382 4627 
Q 1408 4602 1402 4589 
L 570 38 
Q 557 -51 403 -51 
z
M 2022 -58 
Q 1869 -58 1833 80 
Q 1798 218 1862 570 
L 2048 1587 
Q 2118 1965 2060 2150 
Q 2003 2336 1798 2336 
Q 1587 2336 1353 2067 
Q 1120 1798 912 1283 
Q 704 768 570 38 
L 499 45 
Q 634 787 861 1353 
Q 1088 1920 1376 2237 
Q 1664 2554 1978 2554 
Q 2253 2554 2336 2358 
Q 2419 2163 2342 1709 
L 2131 570 
Q 2099 371 2128 275 
Q 2157 179 2240 179 
Q 2317 179 2432 265 
Q 2547 352 2688 493 
Q 2714 518 2739 492 
Q 2765 467 2739 442 
Q 2528 205 2358 73 
Q 2189 -58 2022 -58 
z
" transform="scale(0.015625)"/>
      <path id="CormorantGaramond-LightItalic-47" d="M 2112 -77 
Q 1478 -77 1068 195 
Q 659 467 502 931 
Q 346 1395 448 1971 
Q 531 2432 764 2819 
Q 998 3206 1344 3484 
Q 1690 3763 2112 3916 
Q 2534 4070 2995 4070 
Q 3258 4070 3482 4009 
Q 3706 3949 3846 3827 
Q 3885 3782 3885 3756 
Q 3885 3731 3878 3680 
L 3827 3008 
Q 3821 2982 3785 2982 
Q 3750 2982 3750 3008 
Q 3731 3469 3468 3702 
Q 3206 3936 2746 3936 
Q 2240 3936 1849 3721 
Q 1459 3507 1203 3116 
Q 947 2726 845 2202 
Q 730 1555 877 1065 
Q 1024 576 1385 304 
Q 1747 32 2266 32 
Q 2541 32 2717 89 
Q 2893 147 2995 313 
Q 3098 480 3149 806 
Q 3206 1114 3196 1258 
Q 3187 1402 3065 1446 
Q 2944 1491 2650 1491 
Q 2618 1491 2621 1542 
Q 2624 1594 2650 1594 
Q 2982 1568 3257 1565 
Q 3533 1562 3840 1581 
Q 3866 1581 3869 1536 
Q 3872 1491 3840 1491 
Q 3706 1498 3635 1450 
Q 3565 1402 3520 1242 
Q 3475 1082 3411 742 
Q 3379 531 3369 428 
Q 3360 326 3363 278 
Q 3366 230 3354 179 
Q 3347 141 3331 128 
Q 3315 115 3277 102 
Q 2995 26 2691 -25 
Q 2387 -77 2112 -77 
z
" transform="scale(0.015625)"/>
      <path id="CormorantGaramond-LightItalic-4c" d="M 77 0 
Q 58 0 58 38 
Q 58 77 77 77 
Q 282 77 390 109 
Q 499 141 550 237 
Q 602 333 634 518 
L 1158 3482 
Q 1210 3757 1136 3840 
Q 1062 3923 755 3923 
Q 742 3923 742 3961 
Q 742 4000 755 4000 
Q 883 4000 1040 3990 
Q 1197 3981 1376 3981 
Q 1562 3981 1731 3990 
Q 1901 4000 2022 4000 
Q 2035 4000 2035 3961 
Q 2035 3923 2022 3923 
Q 1818 3923 1706 3888 
Q 1594 3853 1546 3757 
Q 1498 3661 1459 3475 
L 941 544 
Q 896 275 966 195 
Q 1037 115 1338 115 
L 2106 115 
Q 2451 115 2649 345 
Q 2848 576 2950 941 
Q 2950 960 2992 953 
Q 3034 947 3027 928 
Q 2976 762 2918 528 
Q 2861 294 2829 96 
Q 2810 0 2726 0 
L 77 0 
z
" transform="scale(0.015625)"/>
      <path id="CormorantGaramond-LightItalic-2d" d="M 205 1075 
Q 186 1075 179 1139 
Q 173 1203 176 1273 
Q 179 1344 192 1350 
L 1792 1645 
Q 1811 1651 1814 1584 
Q 1818 1517 1814 1449 
Q 1811 1382 1792 1376 
L 205 1075 
z
" transform="scale(0.015625)"/>
      <path id="CormorantGaramond-LightItalic-31" d="M 102 0 
Q 77 0 77 38 
Q 77 77 102 77 
Q 339 77 467 109 
Q 595 141 656 237 
Q 717 333 749 518 
L 966 1722 
Q 1011 1990 998 2096 
Q 986 2202 864 2176 
Q 742 2150 454 2016 
Q 429 2003 416 2038 
Q 403 2074 429 2080 
L 1338 2528 
Q 1357 2541 1376 2528 
Q 1395 2515 1382 2502 
L 1030 518 
Q 998 333 1020 237 
Q 1043 141 1164 109 
Q 1286 77 1536 77 
Q 1555 77 1555 38 
Q 1555 0 1536 0 
Q 1389 0 1209 6 
Q 1030 13 826 13 
Q 627 13 438 6 
Q 250 0 102 0 
z
" transform="scale(0.015625)"/>
     </defs>
     <use xlink:href="#CormorantGaramond-LightItalic-74"/>
     <use xlink:href="#CormorantGaramond-LightItalic-68" transform="translate(29.399994 0)"/>
     <use xlink:href="#CormorantGaramond-LightItalic-72" transform="translate(73.699982 0)"/>
     <use xlink:href="#CormorantGaramond-LightItalic-6f" transform="translate(107.299973 0)"/>
     <use xlink:href="#CormorantGaramond-LightItalic-75" transform="translate(146.899963 0)"/>
     <use xlink:href="#CormorantGaramond-LightItalic-67" transform="translate(193.09996 0)"/>
     <use xlink:href="#CormorantGaramond-LightItalic-68" transform="translate(230.799957 0)"/>
     <use xlink:href="#CormorantGaramond-LightItalic-20" transform="translate(275.099945 0)"/>
     <use xlink:href="#CormorantGaramond-LightItalic-47" transform="translate(298.499939 0)"/>
     <use xlink:href="#CormorantGaramond-LightItalic-4c" transform="translate(361.499924 0)"/>
     <use xlink:href="#CormorantGaramond-LightItalic-50" transform="translate(410.899918 0)"/>
     <use xlink:href="#CormorantGaramond-LightItalic-2d" transform="translate(460.499908 0)"/>
     <use xlink:href="#CormorantGaramond-LightItalic-31" transform="translate(490.999893 0)"/>
     <use xlink:href="#CormorantGaramond-LightItalic-20" transform="translate(520.099884 0)"/>
     <use xlink:href="#CormorantGaramond-LightItalic-75" transform="translate(543.499878 0)"/>
     <use xlink:href="#CormorantGaramond-LightItalic-73" transform="translate(589.699875 0)"/>
     <use xlink:href="#CormorantGaramond-LightItalic-65" transform="translate(619.499863 0)"/>
     <use xlink:href="#CormorantGaramond-LightItalic-2e" transform="translate(653.399857 0)"/>
    </g>
   </g>
   <g id="text_5">
    <!-- Aplomb -->
    <g style="fill: #6b5d4c" transform="translate(398.664688 453.157656) scale(0.14 -0.14)">
     <use xlink:href="#CormorantGaramond-LightItalic-41"/>
     <use xlink:href="#CormorantGaramond-LightItalic-70" transform="translate(59.899994 0)"/>
     <use xlink:href="#CormorantGaramond-LightItalic-6c" transform="translate(100.599991 0)"/>
     <use xlink:href="#CormorantGaramond-LightItalic-6f" transform="translate(124.099976 0)"/>
     <use xlink:href="#CormorantGaramond-LightItalic-6d" transform="translate(163.699966 0)"/>
     <use xlink:href="#CormorantGaramond-LightItalic-62" transform="translate(231.09996 0)"/>
    </g>
   </g>
   <g id="text_6">
    <!-- . -->
    <g style="fill: #7a3d14" transform="translate(437.04 453.157656) scale(0.14 -0.14)">
     <use xlink:href="#CormorantGaramond-LightItalic-2e"/>
    </g>
   </g>
   <g id="line2d_3">
    <path d="M 471.6 450 
L 622.8 450 
" clip-path="url(#p5679b42662)" style="fill: none; stroke: #d9cfbd; stroke-width: 0.7; stroke-linecap: square"/>
   </g>
   <g id="text_7">
    <!-- aplomb.clinic -->
    <g style="fill: #7a3d14" transform="translate(678.96 452.97) scale(0.11 -0.11)">
     <defs>
      <path id="IBMPlexSans-Regular-61" d="M 3232 0 
L 2944 0 
Q 2739 0 2611 86 
Q 2483 173 2425 326 
Q 2368 480 2368 678 
L 2368 723 
L 2566 538 
L 2342 538 
Q 2240 237 1987 80 
Q 1734 -77 1389 -77 
Q 864 -77 573 192 
Q 282 461 282 922 
Q 282 1235 435 1449 
Q 589 1664 899 1776 
Q 1210 1888 1690 1888 
L 2342 1888 
L 2342 2214 
Q 2342 2566 2150 2752 
Q 1958 2938 1562 2938 
Q 1267 2938 1062 2803 
Q 858 2669 723 2445 
L 416 2733 
Q 550 2995 844 3187 
Q 1139 3379 1587 3379 
Q 2182 3379 2518 3084 
Q 2854 2790 2854 2266 
L 2854 448 
L 3232 448 
L 3232 0 
z
M 2342 1504 
L 1664 1504 
Q 1229 1504 1024 1376 
Q 819 1248 819 1005 
L 819 870 
Q 819 627 998 492 
Q 1178 358 1472 358 
Q 1728 358 1923 438 
Q 2118 518 2230 656 
Q 2342 794 2342 960 
L 2342 1504 
z
" transform="scale(0.015625)"/>
      <path id="IBMPlexSans-Regular-70" d="M 544 -1280 
L 544 3302 
L 1056 3302 
L 1056 2765 
L 1082 2765 
Q 1210 3078 1459 3228 
Q 1709 3379 2048 3379 
Q 2464 3379 2765 3168 
Q 3066 2957 3229 2569 
Q 3392 2182 3392 1651 
Q 3392 1126 3229 736 
Q 3066 346 2765 134 
Q 2464 -77 2048 -77 
Q 1709 -77 1469 76 
Q 1229 230 1082 538 
L 1056 538 
L 1056 -1280 
L 544 -1280 
z
M 1907 384 
Q 2342 384 2592 656 
Q 2842 928 2842 1370 
L 2842 1933 
Q 2842 2374 2592 2646 
Q 2342 2918 1907 2918 
Q 1677 2918 1481 2835 
Q 1286 2752 1171 2611 
Q 1056 2470 1056 2285 
L 1056 1056 
Q 1056 845 1171 694 
Q 1286 544 1481 464 
Q 1677 384 1907 384 
z
" transform="scale(0.015625)"/>
      <path id="IBMPlexSans-Regular-6c" d="M 1542 0 
L 1088 0 
Q 826 0 685 150 
Q 544 301 544 531 
L 544 4736 
L 1056 4736 
L 1056 448 
L 1542 448 
L 1542 0 
z
" transform="scale(0.015625)"/>
      <path id="IBMPlexSans-Regular-6f" d="M 1792 -77 
Q 1350 -77 1014 137 
Q 678 352 489 739 
Q 301 1126 301 1651 
Q 301 2176 489 2563 
Q 678 2950 1014 3164 
Q 1350 3379 1792 3379 
Q 2234 3379 2570 3164 
Q 2906 2950 3094 2563 
Q 3283 2176 3283 1651 
Q 3283 1126 3094 739 
Q 2906 352 2570 137 
Q 2234 -77 1792 -77 
z
M 1792 378 
Q 2208 378 2470 634 
Q 2733 890 2733 1414 
L 2733 1888 
Q 2733 2413 2470 2669 
Q 2208 2925 1792 2925 
Q 1382 2925 1116 2669 
Q 851 2413 851 1888 
L 851 1414 
Q 851 890 1116 634 
Q 1382 378 1792 378 
z
" transform="scale(0.015625)"/>
      <path id="IBMPlexSans-Regular-6d" d="M 1056 0 
L 544 0 
L 544 3302 
L 1056 3302 
L 1056 2765 
L 1082 2765 
Q 1190 3021 1388 3200 
Q 1587 3379 1971 3379 
Q 2298 3379 2573 3222 
Q 2848 3066 2982 2707 
L 2995 2707 
Q 3085 2976 3331 3177 
Q 3578 3379 4000 3379 
Q 4506 3379 4790 3049 
Q 5075 2720 5075 2118 
L 5075 0 
L 4563 0 
L 4563 2029 
Q 4563 2464 4390 2691 
Q 4218 2918 3840 2918 
Q 3642 2918 3462 2851 
Q 3283 2784 3174 2643 
Q 3066 2502 3066 2291 
L 3066 0 
L 2554 0 
L 2554 2029 
Q 2554 2470 2381 2694 
Q 2208 2918 1843 2918 
Q 1645 2918 1462 2851 
Q 1280 2784 1168 2643 
Q 1056 2502 1056 2291 
L 1056 0 
z
" transform="scale(0.015625)"/>
      <path id="IBMPlexSans-Regular-62" d="M 544 0 
L 544 4736 
L 1056 4736 
L 1056 2765 
L 1082 2765 
Q 1210 3078 1459 3228 
Q 1709 3379 2048 3379 
Q 2464 3379 2765 3168 
Q 3066 2957 3229 2569 
Q 3392 2182 3392 1651 
Q 3392 1126 3229 736 
Q 3066 346 2765 134 
Q 2464 -77 2048 -77 
Q 1709 -77 1469 76 
Q 1229 230 1082 538 
L 1056 538 
L 1056 0 
L 544 0 
z
M 1907 384 
Q 2342 384 2592 656 
Q 2842 928 2842 1370 
L 2842 1933 
Q 2842 2374 2592 2646 
Q 2342 2918 1907 2918 
Q 1677 2918 1481 2835 
Q 1286 2752 1171 2611 
Q 1056 2470 1056 2285 
L 1056 1056 
Q 1056 845 1171 694 
Q 1286 544 1481 464 
Q 1677 384 1907 384 
z
" transform="scale(0.015625)"/>
      <path id="IBMPlexSans-Regular-2e" d="M 870 -77 
Q 672 -77 576 28 
Q 480 134 480 294 
L 480 378 
Q 480 544 576 646 
Q 672 749 870 749 
Q 1075 749 1168 646 
Q 1261 544 1261 378 
L 1261 294 
Q 1261 134 1168 28 
Q 1075 -77 870 -77 
z
" transform="scale(0.015625)"/>
      <path id="IBMPlexSans-Regular-63" d="M 1773 -77 
Q 1075 -77 688 390 
Q 301 858 301 1651 
Q 301 2445 688 2912 
Q 1075 3379 1773 3379 
Q 2266 3379 2566 3161 
Q 2867 2944 3008 2605 
L 2579 2387 
Q 2490 2643 2282 2784 
Q 2074 2925 1773 2925 
Q 1318 2925 1084 2646 
Q 851 2368 851 1933 
L 851 1370 
Q 851 941 1084 659 
Q 1318 378 1773 378 
Q 2086 378 2310 525 
Q 2534 672 2669 954 
L 3040 704 
Q 2880 352 2563 137 
Q 2246 -77 1773 -77 
z
" transform="scale(0.015625)"/>
      <path id="IBMPlexSans-Regular-69" d="M 800 4077 
Q 640 4077 563 4157 
Q 486 4237 486 4365 
L 486 4448 
Q 486 4576 563 4656 
Q 640 4736 800 4736 
Q 966 4736 1040 4656 
Q 1114 4576 1114 4448 
L 1114 4365 
Q 1114 4237 1040 4157 
Q 966 4077 800 4077 
z
M 544 0 
L 544 3302 
L 1056 3302 
L 1056 0 
L 544 0 
z
" transform="scale(0.015625)"/>
      <path id="IBMPlexSans-Regular-6e" d="M 1056 0 
L 544 0 
L 544 3302 
L 1056 3302 
L 1056 2765 
L 1082 2765 
Q 1203 3046 1424 3212 
Q 1645 3379 2016 3379 
Q 2528 3379 2825 3049 
Q 3123 2720 3123 2118 
L 3123 0 
L 2611 0 
L 2611 2029 
Q 2611 2470 2422 2694 
Q 2234 2918 1862 2918 
Q 1658 2918 1472 2851 
Q 1286 2784 1171 2643 
Q 1056 2502 1056 2291 
L 1056 0 
z
" transform="scale(0.015625)"/>
     </defs>
     <use xlink:href="#IBMPlexSans-Regular-61"/>
     <use xlink:href="#IBMPlexSans-Regular-70" transform="translate(53.399994 0)"/>
     <use xlink:href="#IBMPlexSans-Regular-6c" transform="translate(111.399979 0)"/>
     <use xlink:href="#IBMPlexSans-Regular-6f" transform="translate(138.599976 0)"/>
     <use xlink:href="#IBMPlexSans-Regular-6d" transform="translate(194.59996 0)"/>
     <use xlink:href="#IBMPlexSans-Regular-62" transform="translate(281.899948 0)"/>
     <use xlink:href="#IBMPlexSans-Regular-2e" transform="translate(339.899933 0)"/>
     <use xlink:href="#IBMPlexSans-Regular-63" transform="translate(367.09993 0)"/>
     <use xlink:href="#IBMPlexSans-Regular-6c" transform="translate(417.399918 0)"/>
     <use xlink:href="#IBMPlexSans-Regular-69" transform="translate(444.599915 0)"/>
     <use xlink:href="#IBMPlexSans-Regular-6e" transform="translate(469.599899 0)"/>
     <use xlink:href="#IBMPlexSans-Regular-69" transform="translate(526.399887 0)"/>
     <use xlink:href="#IBMPlexSans-Regular-63" transform="translate(551.399872 0)"/>
    </g>
   </g>
   <g id="line2d_4">
    <path d="M 198 714.672 
L 198 664.56 
" clip-path="url(#p5679b42662)" style="fill: none; stroke: #d9cfbd; stroke-width: 1.5"/>
   </g>
   <g id="patch_22">
    <path d="M 198 714.672 
L 191.46816 727.3728 
L 198 750.96 
L 204.53184 727.3728 
z
" clip-path="url(#p5679b42662)" style="fill: #d9cfbd; stroke: #d9cfbd; stroke-linejoin: miter"/>
   </g>
   <g id="line2d_5">
    <path d="M 918 714.672 
L 918 664.56 
" clip-path="url(#p5679b42662)" style="fill: none; stroke: #d9cfbd; stroke-width: 1.5"/>
   </g>
   <g id="patch_23">
    <path d="M 918 714.672 
L 911.46816 727.3728 
L 918 750.96 
L 924.53184 727.3728 
z
" clip-path="url(#p5679b42662)" style="fill: #d9cfbd; stroke: #d9cfbd; stroke-linejoin: miter"/>
   </g>
   <g id="patch_24">
    <path d="M 450 761.04 
L 666 761.04 
L 666 631.44 
L 450 631.44 
L 450 761.04 
z
" clip-path="url(#p5679b42662)" style="fill: none; stroke-dasharray: 1.8,1.8; stroke-dashoffset: 0; stroke: #d9cfbd; stroke-width: 0.6; stroke-linejoin: miter"/>
   </g>
   <g id="text_8">
    <!-- shipping label area -->
    <g style="fill: #6b5d4c; opacity: 0.85" transform="translate(528.340234 779.18) scale(0.07 -0.07)">
     <defs>
      <path id="IBMPlexSans-Regular-73" d="M 1536 -77 
Q 1082 -77 768 99 
Q 454 275 230 570 
L 595 864 
Q 787 627 1024 492 
Q 1261 358 1574 358 
Q 1901 358 2083 499 
Q 2266 640 2266 896 
Q 2266 1088 2141 1229 
Q 2016 1370 1690 1414 
L 1427 1453 
Q 1126 1498 883 1603 
Q 640 1709 502 1904 
Q 365 2099 365 2406 
Q 365 2899 701 3139 
Q 1037 3379 1542 3379 
Q 1811 3379 2019 3315 
Q 2227 3251 2393 3132 
Q 2560 3014 2694 2848 
L 2355 2541 
Q 2246 2694 2035 2819 
Q 1824 2944 1504 2944 
Q 1190 2944 1024 2806 
Q 858 2669 858 2432 
Q 858 2195 1021 2083 
Q 1184 1971 1491 1920 
L 1747 1882 
Q 2298 1798 2528 1564 
Q 2758 1331 2758 954 
Q 2758 634 2611 403 
Q 2464 173 2189 48 
Q 1914 -77 1536 -77 
z
" transform="scale(0.015625)"/>
      <path id="IBMPlexSans-Regular-68" d="M 544 0 
L 544 4736 
L 1056 4736 
L 1056 2765 
L 1082 2765 
Q 1203 3046 1424 3212 
Q 1645 3379 2016 3379 
Q 2528 3379 2825 3049 
Q 3123 2720 3123 2118 
L 3123 0 
L 2611 0 
L 2611 2029 
Q 2611 2470 2422 2694 
Q 2234 2918 1862 2918 
Q 1658 2918 1472 2851 
Q 1286 2784 1171 2643 
Q 1056 2502 1056 2291 
L 1056 0 
L 544 0 
z
" transform="scale(0.015625)"/>
      <path id="IBMPlexSans-Regular-67" d="M 3328 -365 
Q 3328 -704 3149 -925 
Q 2970 -1146 2614 -1251 
Q 2259 -1357 1728 -1357 
Q 1216 -1357 893 -1261 
Q 570 -1165 422 -982 
Q 275 -800 275 -544 
Q 275 -275 416 -121 
Q 557 32 800 96 
L 800 166 
Q 659 237 582 349 
Q 506 461 506 627 
Q 506 877 666 1008 
Q 826 1139 1075 1203 
L 1075 1229 
Q 781 1370 617 1632 
Q 454 1894 454 2240 
Q 454 2579 608 2835 
Q 762 3091 1043 3235 
Q 1325 3379 1696 3379 
Q 1875 3379 2032 3347 
Q 2189 3315 2323 3251 
L 2323 3309 
Q 2323 3501 2412 3625 
Q 2502 3750 2707 3750 
L 3200 3750 
L 3200 3302 
L 2573 3302 
L 2573 3091 
Q 2752 2938 2851 2720 
Q 2950 2502 2950 2240 
Q 2950 1907 2796 1648 
Q 2643 1389 2361 1245 
Q 2080 1101 1702 1101 
Q 1619 1101 1536 1110 
Q 1453 1120 1382 1133 
Q 1222 1088 1084 1001 
Q 947 915 947 762 
Q 947 614 1088 563 
Q 1229 512 1453 512 
L 2157 512 
Q 2771 512 3049 278 
Q 3328 45 3328 -365 
z
M 2848 -403 
Q 2848 -205 2697 -86 
Q 2547 32 2163 32 
L 1062 32 
Q 902 -38 828 -150 
Q 755 -262 755 -416 
Q 755 -634 918 -787 
Q 1082 -941 1472 -941 
L 1946 -941 
Q 2374 -941 2611 -806 
Q 2848 -672 2848 -403 
z
M 1702 1510 
Q 2029 1510 2221 1667 
Q 2413 1824 2413 2150 
L 2413 2330 
Q 2413 2656 2221 2813 
Q 2029 2970 1702 2970 
Q 1376 2970 1184 2813 
Q 992 2656 992 2330 
L 992 2150 
Q 992 1824 1184 1667 
Q 1376 1510 1702 1510 
z
" transform="scale(0.015625)"/>
      <path id="IBMPlexSans-Regular-20" transform="scale(0.015625)"/>
      <path id="IBMPlexSans-Regular-65" d="M 1786 -77 
Q 1338 -77 1005 137 
Q 672 352 486 739 
Q 301 1126 301 1651 
Q 301 2176 486 2563 
Q 672 2950 1005 3164 
Q 1338 3379 1786 3379 
Q 2227 3379 2547 3171 
Q 2867 2963 3040 2598 
Q 3213 2234 3213 1766 
L 3213 1523 
L 838 1523 
L 838 1370 
Q 838 941 1097 656 
Q 1357 371 1818 371 
Q 2131 371 2364 518 
Q 2598 666 2726 941 
L 3091 678 
Q 2931 346 2592 134 
Q 2253 -77 1786 -77 
z
M 1786 2950 
Q 1510 2950 1296 2822 
Q 1082 2694 960 2467 
Q 838 2240 838 1952 
L 838 1907 
L 2662 1907 
L 2662 1978 
Q 2662 2272 2553 2489 
Q 2445 2707 2246 2828 
Q 2048 2950 1786 2950 
z
" transform="scale(0.015625)"/>
      <path id="IBMPlexSans-Regular-72" d="M 1056 0 
L 544 0 
L 544 3302 
L 1056 3302 
L 1056 2694 
L 1088 2694 
Q 1146 2854 1267 2992 
Q 1389 3130 1581 3216 
Q 1773 3302 2042 3302 
L 2240 3302 
L 2240 2790 
L 1939 2790 
Q 1664 2790 1465 2716 
Q 1267 2643 1161 2521 
Q 1056 2400 1056 2240 
L 1056 0 
z
" transform="scale(0.015625)"/>
     </defs>
     <use xlink:href="#IBMPlexSans-Regular-73"/>
     <use xlink:href="#IBMPlexSans-Regular-68" transform="translate(48.699997 0)"/>
     <use xlink:href="#IBMPlexSans-Regular-69" transform="translate(105.499985 0)"/>
     <use xlink:href="#IBMPlexSans-Regular-70" transform="translate(130.499969 0)"/>
     <use xlink:href="#IBMPlexSans-Regular-70" transform="translate(188.499954 0)"/>
     <use xlink:href="#IBMPlexSans-Regular-69" transform="translate(246.499939 0)"/>
     <use xlink:href="#IBMPlexSans-Regular-6e" transform="translate(271.499924 0)"/>
     <use xlink:href="#IBMPlexSans-Regular-67" transform="translate(328.299911 0)"/>
     <use xlink:href="#IBMPlexSans-Regular-20" transform="translate(381.099899 0)"/>
     <use xlink:href="#IBMPlexSans-Regular-6c" transform="translate(404.69989 0)"/>
     <use xlink:href="#IBMPlexSans-Regular-61" transform="translate(431.899887 0)"/>
     <use xlink:href="#IBMPlexSans-Regular-62" transform="translate(485.299881 0)"/>
     <use xlink:href="#IBMPlexSans-Regular-65" transform="translate(543.299866 0)"/>
     <use xlink:href="#IBMPlexSans-Regular-6c" transform="translate(598.19986 0)"/>
     <use xlink:href="#IBMPlexSans-Regular-20" transform="translate(625.399857 0)"/>
     <use xlink:href="#IBMPlexSans-Regular-61" transform="translate(648.999847 0)"/>
     <use xlink:href="#IBMPlexSans-Regular-72" transform="translate(702.399841 0)"/>
     <use xlink:href="#IBMPlexSans-Regular-65" transform="translate(739.099838 0)"/>
     <use xlink:href="#IBMPlexSans-Regular-61" transform="translate(793.999832 0)"/>
    </g>
   </g>
   <g id="text_9">
    <!-- Designed in New York · Printed on FSC paperboard · Recycle this carton. -->
    <g style="fill: #6b5d4c" transform="translate(428.914375 826.511875) scale(0.08 -0.08)">
     <defs>
      <path id="IBMPlexSans-Regular-44" d="M 595 0 
L 595 4467 
L 2093 4467 
Q 2650 4467 3062 4220 
Q 3475 3974 3699 3478 
Q 3923 2982 3923 2234 
Q 3923 1485 3699 989 
Q 3475 493 3062 246 
Q 2650 0 2093 0 
L 595 0 
z
M 1133 474 
L 2093 474 
Q 2464 474 2745 640 
Q 3027 806 3187 1116 
Q 3347 1427 3347 1869 
L 3347 2598 
Q 3347 3040 3187 3353 
Q 3027 3667 2745 3830 
Q 2464 3994 2093 3994 
L 1133 3994 
L 1133 474 
z
" transform="scale(0.015625)"/>
      <path id="IBMPlexSans-Regular-64" d="M 2656 0 
L 2656 538 
L 2630 538 
Q 2483 230 2243 76 
Q 2003 -77 1664 -77 
Q 1254 -77 950 134 
Q 646 346 483 736 
Q 320 1126 320 1651 
Q 320 2182 483 2569 
Q 646 2957 950 3168 
Q 1254 3379 1664 3379 
Q 2003 3379 2252 3228 
Q 2502 3078 2630 2765 
L 2656 2765 
L 2656 4736 
L 3168 4736 
L 3168 0 
L 2656 0 
z
M 1805 384 
Q 2042 384 2234 464 
Q 2426 544 2541 694 
Q 2656 845 2656 1056 
L 2656 2285 
Q 2656 2470 2541 2611 
Q 2426 2752 2234 2835 
Q 2042 2918 1805 2918 
Q 1376 2918 1123 2646 
Q 870 2374 870 1933 
L 870 1370 
Q 870 928 1123 656 
Q 1376 384 1805 384 
z
" transform="scale(0.015625)"/>
      <path id="IBMPlexSans-Regular-4e" d="M 3309 0 
L 1677 2726 
L 1139 3718 
L 1120 3718 
L 1120 2726 
L 1120 0 
L 595 0 
L 595 4467 
L 1216 4467 
L 2848 1741 
L 3386 749 
L 3405 749 
L 3405 1741 
L 3405 4467 
L 3930 4467 
L 3930 0 
L 3309 0 
z
" transform="scale(0.015625)"/>
      <path id="IBMPlexSans-Regular-77" d="M 1082 0 
L 198 3302 
L 698 3302 
L 1050 1875 
L 1402 429 
L 1414 429 
L 1818 1875 
L 2234 3302 
L 2688 3302 
L 3117 1875 
L 3526 429 
L 3539 429 
L 3878 1875 
L 4237 3302 
L 4717 3302 
L 3840 0 
L 3206 0 
L 2746 1587 
L 2458 2592 
L 2445 2592 
L 2163 1587 
L 1702 0 
L 1082 0 
z
" transform="scale(0.015625)"/>
      <path id="IBMPlexSans-Regular-59" d="M 2157 0 
L 1619 0 
L 1619 1766 
L 83 4467 
L 698 4467 
L 1888 2317 
L 1907 2317 
L 3098 4467 
L 3712 4467 
L 2157 1786 
L 2157 0 
z
" transform="scale(0.015625)"/>
      <path id="IBMPlexSans-Regular-6b" d="M 544 0 
L 544 4736 
L 1056 4736 
L 1056 2323 
L 1056 1734 
L 1082 1734 
L 1587 2298 
L 2522 3302 
L 3142 3302 
L 1920 1997 
L 3264 0 
L 2643 0 
L 1549 1683 
L 1056 1178 
L 1056 0 
L 544 0 
z
" transform="scale(0.015625)"/>
      <path id="IBMPlexSans-Regular-b7" d="M 1043 1536 
Q 845 1536 749 1641 
Q 653 1747 653 1907 
L 653 1990 
Q 653 2157 749 2259 
Q 845 2362 1043 2362 
Q 1248 2362 1341 2259 
Q 1434 2157 1434 1990 
L 1434 1907 
Q 1434 1747 1341 1641 
Q 1248 1536 1043 1536 
z
" transform="scale(0.015625)"/>
      <path id="IBMPlexSans-Regular-50" d="M 1133 0 
L 595 0 
L 595 4467 
L 2374 4467 
Q 2778 4467 3056 4310 
Q 3334 4154 3478 3869 
Q 3622 3584 3622 3187 
Q 3622 2797 3478 2509 
Q 3334 2221 3056 2064 
Q 2778 1907 2374 1907 
L 1133 1907 
L 1133 0 
z
M 1133 3994 
L 1133 2381 
L 2374 2381 
Q 2586 2381 2736 2454 
Q 2886 2528 2966 2672 
Q 3046 2816 3046 3021 
L 3046 3354 
Q 3046 3558 2966 3702 
Q 2886 3846 2736 3920 
Q 2586 3994 2374 3994 
L 1133 3994 
z
" transform="scale(0.015625)"/>
      <path id="IBMPlexSans-Regular-74" d="M 1914 0 
L 1274 0 
Q 1011 0 870 153 
Q 730 307 730 544 
L 730 2854 
L 186 2854 
L 186 3302 
L 493 3302 
Q 659 3302 720 3369 
Q 781 3437 781 3603 
L 781 4218 
L 1242 4218 
L 1242 3302 
L 1965 3302 
L 1965 2854 
L 1242 2854 
L 1242 448 
L 1914 448 
L 1914 0 
z
" transform="scale(0.015625)"/>
      <path id="IBMPlexSans-Regular-46" d="M 1133 0 
L 595 0 
L 595 4467 
L 3258 4467 
L 3258 3994 
L 1133 3994 
L 1133 2496 
L 3072 2496 
L 3072 2022 
L 1133 2022 
L 1133 0 
z
" transform="scale(0.015625)"/>
      <path id="IBMPlexSans-Regular-53" d="M 1850 -77 
Q 1312 -77 925 131 
Q 538 339 269 704 
L 666 1037 
Q 902 723 1190 560 
Q 1478 397 1869 397 
Q 2349 397 2601 627 
Q 2854 858 2854 1242 
Q 2854 1453 2771 1600 
Q 2688 1747 2505 1846 
Q 2323 1946 2029 2010 
L 1664 2093 
Q 1261 2189 979 2342 
Q 698 2496 550 2739 
Q 403 2982 403 3322 
Q 403 3718 588 3990 
Q 774 4262 1110 4403 
Q 1446 4544 1882 4544 
Q 2387 4544 2748 4358 
Q 3110 4173 3360 3814 
L 2957 3520 
Q 2778 3776 2512 3923 
Q 2246 4070 1856 4070 
Q 1427 4070 1180 3884 
Q 934 3699 934 3341 
Q 934 3130 1027 2989 
Q 1120 2848 1305 2755 
Q 1491 2662 1773 2598 
L 2138 2515 
Q 2573 2419 2848 2252 
Q 3123 2086 3254 1843 
Q 3386 1600 3386 1267 
Q 3386 858 3200 557 
Q 3014 256 2672 89 
Q 2330 -77 1850 -77 
z
" transform="scale(0.015625)"/>
      <path id="IBMPlexSans-Regular-43" d="M 2170 -77 
Q 1606 -77 1203 182 
Q 800 442 585 950 
Q 371 1459 371 2208 
Q 371 2957 585 3478 
Q 800 4000 1203 4272 
Q 1606 4544 2170 4544 
Q 2726 4544 3110 4288 
Q 3494 4032 3706 3565 
L 3270 3302 
Q 3136 3648 2861 3856 
Q 2586 4064 2170 4064 
Q 1594 4064 1270 3645 
Q 947 3226 947 2541 
L 947 1875 
Q 947 1190 1270 796 
Q 1594 403 2170 403 
Q 2598 403 2886 624 
Q 3174 845 3309 1210 
L 3738 941 
Q 3526 474 3126 198 
Q 2726 -77 2170 -77 
z
" transform="scale(0.015625)"/>
      <path id="IBMPlexSans-Regular-52" d="M 1133 1920 
L 1133 0 
L 595 0 
L 595 4467 
L 2374 4467 
Q 2765 4467 3043 4320 
Q 3322 4173 3472 3891 
Q 3622 3610 3622 3200 
Q 3622 2714 3392 2394 
Q 3162 2074 2726 1971 
L 3750 0 
L 3142 0 
L 2176 1920 
L 1133 1920 
z
M 1133 2381 
L 2374 2381 
Q 2586 2381 2736 2454 
Q 2886 2528 2966 2672 
Q 3046 2816 3046 3021 
L 3046 3354 
Q 3046 3558 2966 3702 
Q 2886 3846 2736 3920 
Q 2586 3994 2374 3994 
L 1133 3994 
L 1133 2381 
z
" transform="scale(0.015625)"/>
      <path id="IBMPlexSans-Regular-79" d="M 1779 1056 
L 2579 3302 
L 3085 3302 
L 1606 -768 
Q 1536 -966 1449 -1078 
Q 1363 -1190 1222 -1235 
Q 1082 -1280 838 -1280 
L 576 -1280 
L 576 -832 
L 1094 -832 
L 1344 -128 
L 109 3302 
L 621 3302 
L 1414 1056 
L 1568 518 
L 1600 518 
L 1779 1056 
z
" transform="scale(0.015625)"/>
     </defs>
     <use xlink:href="#IBMPlexSans-Regular-44"/>
     <use xlink:href="#IBMPlexSans-Regular-65" transform="translate(67.099991 0)"/>
     <use xlink:href="#IBMPlexSans-Regular-73" transform="translate(121.999985 0)"/>
     <use xlink:href="#IBMPlexSans-Regular-69" transform="translate(170.699982 0)"/>
     <use xlink:href="#IBMPlexSans-Regular-67" transform="translate(195.699966 0)"/>
     <use xlink:href="#IBMPlexSans-Regular-6e" transform="translate(248.499954 0)"/>
     <use xlink:href="#IBMPlexSans-Regular-65" transform="translate(305.299942 0)"/>
     <use xlink:href="#IBMPlexSans-Regular-64" transform="translate(360.199936 0)"/>
     <use xlink:href="#IBMPlexSans-Regular-20" transform="translate(418.199921 0)"/>
     <use xlink:href="#IBMPlexSans-Regular-69" transform="translate(441.799911 0)"/>
     <use xlink:href="#IBMPlexSans-Regular-6e" transform="translate(466.799896 0)"/>
     <use xlink:href="#IBMPlexSans-Regular-20" transform="translate(523.599884 0)"/>
     <use xlink:href="#IBMPlexSans-Regular-4e" transform="translate(547.199875 0)"/>
     <use xlink:href="#IBMPlexSans-Regular-65" transform="translate(617.899857 0)"/>
     <use xlink:href="#IBMPlexSans-Regular-77" transform="translate(672.79985 0)"/>
     <use xlink:href="#IBMPlexSans-Regular-20" transform="translate(749.599838 0)"/>
     <use xlink:href="#IBMPlexSans-Regular-59" transform="translate(773.199829 0)"/>
     <use xlink:href="#IBMPlexSans-Regular-6f" transform="translate(832.499817 0)"/>
     <use xlink:href="#IBMPlexSans-Regular-72" transform="translate(888.499802 0)"/>
     <use xlink:href="#IBMPlexSans-Regular-6b" transform="translate(925.199799 0)"/>
     <use xlink:href="#IBMPlexSans-Regular-20" transform="translate(977.899796 0)"/>
     <use xlink:href="#IBMPlexSans-Regular-b7" transform="translate(1001.499786 0)"/>
     <use xlink:href="#IBMPlexSans-Regular-20" transform="translate(1034.099777 0)"/>
     <use xlink:href="#IBMPlexSans-Regular-50" transform="translate(1057.699768 0)"/>
     <use xlink:href="#IBMPlexSans-Regular-72" transform="translate(1118.299759 0)"/>
     <use xlink:href="#IBMPlexSans-Regular-69" transform="translate(1154.999756 0)"/>
     <use xlink:href="#IBMPlexSans-Regular-6e" transform="translate(1179.999741 0)"/>
     <use xlink:href="#IBMPlexSans-Regular-74" transform="translate(1236.799728 0)"/>
     <use xlink:href="#IBMPlexSans-Regular-65" transform="translate(1271.899719 0)"/>
     <use xlink:href="#IBMPlexSans-Regular-64" transform="translate(1326.799713 0)"/>
     <use xlink:href="#IBMPlexSans-Regular-20" transform="translate(1384.799698 0)"/>
     <use xlink:href="#IBMPlexSans-Regular-6f" transform="translate(1408.399689 0)"/>
     <use xlink:href="#IBMPlexSans-Regular-6e" transform="translate(1464.399673 0)"/>
     <use xlink:href="#IBMPlexSans-Regular-20" transform="translate(1521.199661 0)"/>
     <use xlink:href="#IBMPlexSans-Regular-46" transform="translate(1544.799652 0)"/>
     <use xlink:href="#IBMPlexSans-Regular-53" transform="translate(1600.699646 0)"/>
     <use xlink:href="#IBMPlexSans-Regular-43" transform="translate(1658.799637 0)"/>
     <use xlink:href="#IBMPlexSans-Regular-20" transform="translate(1720.899628 0)"/>
     <use xlink:href="#IBMPlexSans-Regular-70" transform="translate(1744.499619 0)"/>
     <use xlink:href="#IBMPlexSans-Regular-61" transform="translate(1802.499603 0)"/>
     <use xlink:href="#IBMPlexSans-Regular-70" transform="translate(1855.899597 0)"/>
     <use xlink:href="#IBMPlexSans-Regular-65" transform="translate(1913.899582 0)"/>
     <use xlink:href="#IBMPlexSans-Regular-72" transform="translate(1968.799576 0)"/>
     <use xlink:href="#IBMPlexSans-Regular-62" transform="translate(2005.499573 0)"/>
     <use xlink:href="#IBMPlexSans-Regular-6f" transform="translate(2063.499557 0)"/>
     <use xlink:href="#IBMPlexSans-Regular-61" transform="translate(2119.499542 0)"/>
     <use xlink:href="#IBMPlexSans-Regular-72" transform="translate(2172.899536 0)"/>
     <use xlink:href="#IBMPlexSans-Regular-64" transform="translate(2209.599533 0)"/>
     <use xlink:href="#IBMPlexSans-Regular-20" transform="translate(2267.599518 0)"/>
     <use xlink:href="#IBMPlexSans-Regular-b7" transform="translate(2291.199509 0)"/>
     <use xlink:href="#IBMPlexSans-Regular-20" transform="translate(2323.7995 0)"/>
     <use xlink:href="#IBMPlexSans-Regular-52" transform="translate(2347.39949 0)"/>
     <use xlink:href="#IBMPlexSans-Regular-65" transform="translate(2411.399475 0)"/>
     <use xlink:href="#IBMPlexSans-Regular-63" transform="translate(2466.299469 0)"/>
     <use xlink:href="#IBMPlexSans-Regular-79" transform="translate(2516.599457 0)"/>
     <use xlink:href="#IBMPlexSans-Regular-63" transform="translate(2566.499451 0)"/>
     <use xlink:href="#IBMPlexSans-Regular-6c" transform="translate(2616.799438 0)"/>
     <use xlink:href="#IBMPlexSans-Regular-65" transform="translate(2643.999435 0)"/>
     <use xlink:href="#IBMPlexSans-Regular-20" transform="translate(2698.899429 0)"/>
     <use xlink:href="#IBMPlexSans-Regular-74" transform="translate(2722.49942 0)"/>
     <use xlink:href="#IBMPlexSans-Regular-68" transform="translate(2757.599411 0)"/>
     <use xlink:href="#IBMPlexSans-Regular-69" transform="translate(2814.399399 0)"/>
     <use xlink:href="#IBMPlexSans-Regular-73" transform="translate(2839.399384 0)"/>
     <use xlink:href="#IBMPlexSans-Regular-20" transform="translate(2888.09938 0)"/>
     <use xlink:href="#IBMPlexSans-Regular-63" transform="translate(2911.699371 0)"/>
     <use xlink:href="#IBMPlexSans-Regular-61" transform="translate(2961.999359 0)"/>
     <use xlink:href="#IBMPlexSans-Regular-72" transform="translate(3015.399353 0)"/>
     <use xlink:href="#IBMPlexSans-Regular-74" transform="translate(3052.09935 0)"/>
     <use xlink:href="#IBMPlexSans-Regular-6f" transform="translate(3087.199341 0)"/>
     <use xlink:href="#IBMPlexSans-Regular-6e" transform="translate(3143.199326 0)"/>
     <use xlink:href="#IBMPlexSans-Regular-2e" transform="translate(3199.999313 0)"/>
    </g>
   </g>
  </g>
 </g>
 <defs>
  <clipPath id="p5679b42662">
   <rect x="0" y="0" width="1116" height="1080"/>
  </clipPath>
 </defs>
</svg>
