<?xml version="1.0" encoding="utf-8" standalone="no"?>
<!DOCTYPE svg PUBLIC "-//W3C//DTD SVG 1.1//EN"
  "http://www.w3.org/Graphics/SVG/1.1/DTD/svg11.dtd">
<svg xmlns:xlink="http://www.w3.org/1999/xlink" width="1116pt" height="1080pt" viewBox="0 0 1116 1080" xmlns="http://www.w3.org/2000/svg" version="1.1">
 <metadata>
  <rdf:RDF xmlns:dc="http://purl.org/dc/elements/1.1/" xmlns:cc="http://creativecommons.org/ns#" xmlns:rdf="http://www.w3.org/1999/02/22-rdf-syntax-ns#">
   <cc:Work>
    <dc:type rdf:resource="http://purl.org/dc/dcmitype/StillImage"/>
    <dc:date>2026-05-14T17:30:36.037184</dc:date>
    <dc:format>image/svg+xml</dc:format>
    <dc:creator>
     <cc:Agent>
      <dc:title>Matplotlib v3.10.8, https://matplotlib.org/</dc:title>
     </cc:Agent>
    </dc:creator>
   </cc:Work>
  </rdf:RDF>
 </metadata>
 <defs>
  <style type="text/css">*{stroke-linejoin: round; stroke-linecap: butt}</style>
 </defs>
 <g id="figure_1">
  <g id="patch_1">
   <path d="M 0 1080 
L 1116 1080 
L 1116 0 
L 0 0 
z
" style="fill: #f7f1e6"/>
  </g>
  <g id="axes_1">
   <g id="patch_2">
    <path d="M 0 1080 
L 1116 1080 
L 1116 0 
L 0 0 
z
" style="fill: #ffffff"/>
   </g>
   <g id="patch_3">
    <path d="M 0 1080 
L 1116 1080 
L 1116 0 
L 0 0 
z
" clip-path="url(#p109f4c1418)" style="fill: #f7f1e6"/>
   </g>
   <g id="matplotlib.axis_1"/>
   <g id="matplotlib.axis_2"/>
   <g id="text_1">
    <!-- Carry your bearing. -->
    <g style="fill: #7a3d14" transform="translate(628.5 190.659063) rotate(-180) scale(0.2 -0.2)">
     <defs>
      <path id="CormorantGaramond-LightItalic-43" d="M 2022 -83 
Q 1485 -83 1142 105 
Q 800 294 624 608 
Q 448 922 409 1296 
Q 371 1670 435 2042 
Q 518 2496 745 2867 
Q 973 3238 1299 3507 
Q 1626 3776 2006 3923 
Q 2387 4070 2771 4070 
Q 3034 4070 3290 4009 
Q 3546 3949 3693 3834 
Q 3738 3802 3744 3776 
Q 3750 3750 3744 3680 
L 3693 3008 
Q 3686 2982 3654 2982 
Q 3622 2982 3622 3008 
Q 3590 3526 3292 3731 
Q 2995 3936 2534 3936 
Q 2106 3936 1750 3721 
Q 1395 3507 1155 3120 
Q 915 2733 826 2214 
Q 742 1754 796 1350 
Q 851 947 1017 643 
Q 1184 339 1449 166 
Q 1715 -6 2061 -6 
Q 2432 -6 2784 230 
Q 3136 467 3392 954 
Q 3405 973 3437 960 
Q 3469 947 3456 928 
L 3264 250 
Q 3238 166 3222 140 
Q 3206 115 3149 96 
Q 2848 0 2557 -41 
Q 2266 -83 2022 -83 
z
" transform="scale(0.015625)"/>
      <path id="CormorantGaramond-LightItalic-61" d="M 512 -83 
Q 307 -83 201 70 
Q 96 224 141 582 
Q 192 934 361 1283 
Q 531 1632 771 1920 
Q 1011 2208 1283 2381 
Q 1555 2554 1805 2554 
Q 1920 2554 2029 2512 
Q 2138 2470 2214 2374 
Q 2291 2278 2304 2125 
L 2061 2285 
Q 2131 2298 2233 2390 
Q 2336 2483 2355 2605 
Q 2368 2624 2403 2617 
Q 2438 2611 2432 2598 
L 2061 570 
Q 1997 179 2163 179 
Q 2240 179 2355 265 
Q 2470 352 2611 493 
Q 2630 512 2656 486 
Q 2682 461 2662 442 
Q 2451 205 2281 73 
Q 2112 -58 1946 -58 
Q 1798 -58 1763 80 
Q 1728 218 1792 570 
L 1946 1466 
L 2048 1574 
Q 1850 1101 1590 723 
Q 1331 346 1052 131 
Q 774 -83 512 -83 
z
M 698 192 
Q 883 192 1084 336 
Q 1286 480 1475 717 
Q 1664 954 1805 1242 
Q 1946 1530 2003 1811 
Q 2054 2035 1955 2195 
Q 1856 2355 1606 2349 
Q 1376 2342 1129 2137 
Q 883 1933 694 1590 
Q 506 1248 442 813 
Q 397 512 454 352 
Q 512 192 698 192 
z
" transform="scale(0.015625)"/>
      <path id="CormorantGaramond-LightItalic-72" d="M 672 38 
L 608 45 
Q 659 320 755 653 
Q 851 986 979 1315 
Q 1107 1645 1251 1920 
Q 1395 2195 1545 2361 
Q 1696 2528 1837 2528 
Q 1920 2528 2000 2483 
Q 2080 2438 2128 2361 
Q 2176 2285 2157 2195 
Q 2138 2112 2090 2077 
Q 2042 2042 1971 2042 
Q 1875 2042 1833 2096 
Q 1792 2150 1763 2204 
Q 1734 2259 1670 2259 
Q 1574 2259 1462 2105 
Q 1350 1952 1228 1702 
Q 1107 1453 998 1155 
Q 890 858 803 563 
Q 717 269 672 38 
z
M 512 -51 
Q 429 -51 406 -41 
Q 384 -32 384 -13 
Q 384 6 419 169 
Q 454 333 480 474 
L 678 1594 
Q 736 1888 723 2035 
Q 710 2182 662 2236 
Q 614 2291 557 2291 
Q 461 2291 355 2214 
Q 250 2138 166 2061 
Q 154 2048 128 2070 
Q 102 2093 115 2112 
Q 294 2317 457 2422 
Q 621 2528 781 2528 
Q 890 2528 950 2451 
Q 1011 2374 1017 2172 
Q 1024 1971 954 1594 
L 672 38 
Q 659 -51 512 -51 
z
" transform="scale(0.015625)"/>
      <path id="CormorantGaramond-LightItalic-79" d="M -122 -1798 
Q -224 -1798 -291 -1740 
Q -358 -1683 -346 -1562 
Q -307 -1421 -122 -1421 
Q 13 -1421 150 -1398 
Q 288 -1376 416 -1325 
Q 544 -1274 646 -1203 
Q 787 -1107 972 -873 
Q 1158 -640 1363 -336 
Q 1568 -32 1753 291 
Q 1939 614 2073 902 
Q 2208 1190 2253 1382 
Q 2291 1555 2284 1712 
Q 2278 1869 2246 1997 
Q 2214 2125 2188 2217 
Q 2163 2310 2163 2355 
Q 2163 2432 2214 2483 
Q 2266 2534 2355 2534 
Q 2483 2534 2528 2441 
Q 2573 2349 2573 2208 
Q 2573 1971 2473 1644 
Q 2374 1318 2198 937 
Q 2022 557 1798 173 
Q 1574 -211 1321 -566 
Q 1069 -922 809 -1197 
Q 550 -1472 310 -1635 
Q 70 -1798 -122 -1798 
z
M 1197 -691 
Q 1235 717 1033 1491 
Q 832 2266 454 2266 
Q 371 2266 281 2214 
Q 192 2163 122 2022 
Q 109 1997 73 2006 
Q 38 2016 45 2042 
Q 166 2285 297 2406 
Q 429 2528 602 2528 
Q 832 2528 1008 2307 
Q 1184 2086 1296 1702 
Q 1408 1318 1453 816 
Q 1498 314 1466 -256 
L 1197 -691 
z
" transform="scale(0.015625)"/>
      <path id="CormorantGaramond-LightItalic-20" transform="scale(0.015625)"/>
      <path id="CormorantGaramond-LightItalic-6f" d="M 979 -90 
Q 685 -90 489 86 
Q 294 262 220 563 
Q 147 864 218 1235 
Q 288 1606 483 1904 
Q 678 2202 956 2378 
Q 1235 2554 1549 2554 
Q 1875 2554 2073 2371 
Q 2272 2189 2336 1888 
Q 2400 1587 2330 1235 
Q 2253 838 2041 537 
Q 1830 237 1548 73 
Q 1267 -90 979 -90 
z
M 1203 70 
Q 1485 70 1721 300 
Q 1958 531 2035 954 
Q 2080 1178 2064 1427 
Q 2048 1677 1968 1897 
Q 1888 2118 1737 2259 
Q 1587 2400 1363 2400 
Q 1075 2400 835 2157 
Q 595 1914 512 1510 
Q 461 1274 480 1024 
Q 499 774 585 556 
Q 672 339 829 204 
Q 986 70 1203 70 
z
" transform="scale(0.015625)"/>
      <path id="CormorantGaramond-LightItalic-75" d="M 851 -83 
Q 576 -83 483 115 
Q 390 314 486 762 
L 717 1901 
Q 755 2099 723 2195 
Q 691 2291 608 2291 
Q 538 2291 422 2208 
Q 307 2125 166 1978 
Q 141 1952 115 1977 
Q 90 2003 115 2029 
Q 326 2272 499 2400 
Q 672 2528 832 2528 
Q 979 2528 1020 2390 
Q 1062 2253 986 1901 
L 781 883 
Q 698 499 762 316 
Q 826 134 1030 134 
Q 1242 134 1475 403 
Q 1709 672 1917 1187 
Q 2125 1702 2259 2432 
L 2330 2426 
Q 2202 1683 1974 1116 
Q 1747 550 1459 233 
Q 1171 -83 851 -83 
z
M 2086 -58 
Q 1939 -58 1904 80 
Q 1869 218 1933 570 
L 2259 2432 
Q 2272 2522 2426 2522 
Q 2509 2522 2534 2512 
Q 2560 2502 2560 2483 
Q 2560 2464 2528 2313 
Q 2496 2163 2464 1997 
L 2202 570 
Q 2138 179 2310 179 
Q 2387 179 2508 256 
Q 2630 333 2771 480 
Q 2790 506 2819 477 
Q 2848 448 2822 429 
Q 2605 186 2429 64 
Q 2253 -58 2086 -58 
z
" transform="scale(0.015625)"/>
      <path id="CormorantGaramond-LightItalic-62" d="M 928 -83 
Q 621 -83 451 67 
Q 282 218 326 480 
L 998 4013 
Q 1037 4218 937 4275 
Q 838 4333 538 4186 
Q 512 4173 499 4211 
Q 486 4250 512 4256 
L 1293 4640 
Q 1318 4653 1344 4627 
Q 1370 4602 1363 4589 
L 634 614 
Q 595 378 752 227 
Q 909 77 1197 77 
Q 1408 77 1622 233 
Q 1837 390 2006 688 
Q 2176 986 2253 1408 
Q 2304 1651 2288 1852 
Q 2272 2054 2176 2176 
Q 2080 2298 1882 2298 
Q 1606 2298 1356 2086 
Q 1107 1875 918 1497 
Q 730 1120 634 614 
L 602 742 
Q 659 1107 806 1436 
Q 954 1766 1165 2016 
Q 1376 2266 1622 2410 
Q 1869 2554 2118 2554 
Q 2419 2554 2560 2288 
Q 2701 2022 2611 1606 
Q 2528 1190 2339 873 
Q 2150 557 1904 345 
Q 1658 134 1402 25 
Q 1146 -83 928 -83 
z
" transform="scale(0.015625)"/>
      <path id="CormorantGaramond-LightItalic-65" d="M 986 -77 
Q 653 -77 461 99 
Q 269 275 208 563 
Q 147 851 211 1184 
Q 250 1421 381 1664 
Q 512 1907 707 2108 
Q 902 2310 1142 2432 
Q 1382 2554 1651 2554 
Q 1875 2554 1984 2461 
Q 2093 2368 2061 2208 
Q 2029 2061 1885 1923 
Q 1741 1786 1513 1674 
Q 1286 1562 1008 1482 
Q 730 1402 429 1363 
L 442 1446 
Q 941 1517 1283 1673 
Q 1626 1830 1690 2074 
Q 1741 2253 1625 2317 
Q 1510 2381 1376 2381 
Q 1146 2381 973 2246 
Q 800 2112 694 1888 
Q 589 1664 544 1395 
Q 474 1030 528 745 
Q 582 461 752 294 
Q 922 128 1197 128 
Q 1357 128 1526 173 
Q 1696 218 1856 339 
Q 1875 352 1897 326 
Q 1920 301 1901 282 
Q 1658 90 1434 6 
Q 1210 -77 986 -77 
z
" transform="scale(0.015625)"/>
      <path id="CormorantGaramond-LightItalic-69" d="M 704 -58 
Q 563 -58 515 70 
Q 467 198 538 570 
L 800 1901 
Q 877 2291 691 2291 
Q 614 2291 492 2214 
Q 371 2138 230 1990 
Q 211 1965 182 1993 
Q 154 2022 179 2042 
Q 397 2285 573 2406 
Q 749 2528 909 2528 
Q 1062 2528 1100 2390 
Q 1139 2253 1069 1901 
L 813 570 
Q 774 371 806 275 
Q 838 179 922 179 
Q 992 179 1113 256 
Q 1235 333 1376 480 
Q 1402 506 1427 477 
Q 1453 448 1427 429 
Q 1216 186 1040 64 
Q 864 -58 704 -58 
z
M 1101 3309 
Q 979 3309 912 3373 
Q 845 3437 845 3558 
Q 845 3667 912 3731 
Q 979 3795 1101 3795 
Q 1222 3795 1286 3731 
Q 1350 3667 1350 3558 
Q 1350 3309 1101 3309 
z
" transform="scale(0.015625)"/>
      <path id="CormorantGaramond-LightItalic-6e" d="M 2150 -58 
Q 1997 -58 1961 80 
Q 1926 218 1990 570 
L 2176 1587 
Q 2330 2336 1926 2336 
Q 1715 2336 1481 2067 
Q 1248 1798 1040 1283 
Q 832 768 698 38 
L 627 45 
Q 762 787 986 1353 
Q 1210 1920 1501 2237 
Q 1792 2554 2106 2554 
Q 2381 2554 2470 2358 
Q 2560 2163 2470 1709 
L 2259 570 
Q 2227 371 2259 275 
Q 2291 179 2374 179 
Q 2445 179 2560 265 
Q 2675 352 2816 493 
Q 2835 518 2864 492 
Q 2893 467 2867 442 
Q 2656 205 2486 73 
Q 2317 -58 2150 -58 
z
M 531 -51 
Q 448 -51 422 -41 
Q 397 -32 397 -13 
Q 397 6 432 156 
Q 467 307 493 474 
L 755 1901 
Q 819 2291 646 2291 
Q 570 2291 448 2214 
Q 326 2138 186 1990 
Q 166 1965 137 1993 
Q 109 2022 134 2042 
Q 346 2285 528 2406 
Q 710 2528 870 2528 
Q 1018 2528 1053 2390 
Q 1088 2253 1024 1901 
L 698 38 
Q 685 -51 531 -51 
z
" transform="scale(0.015625)"/>
      <path id="CormorantGaramond-LightItalic-67" d="M 678 -1798 
Q 333 -1798 109 -1686 
Q -115 -1574 -211 -1395 
Q -307 -1216 -262 -1018 
Q -192 -736 96 -528 
Q 384 -320 749 -115 
L 794 -166 
Q 634 -262 470 -361 
Q 307 -461 188 -582 
Q 70 -704 38 -883 
Q 6 -1088 112 -1257 
Q 218 -1427 442 -1526 
Q 666 -1626 979 -1626 
Q 1338 -1626 1536 -1482 
Q 1734 -1338 1747 -1120 
Q 1754 -947 1654 -819 
Q 1555 -691 1395 -592 
Q 1235 -493 1059 -403 
Q 883 -314 729 -218 
Q 576 -122 493 -6 
Q 410 109 435 262 
Q 467 403 572 524 
Q 678 646 838 787 
L 909 736 
Q 832 691 768 601 
Q 704 512 691 416 
Q 672 282 765 179 
Q 858 77 1014 -9 
Q 1171 -96 1347 -185 
Q 1523 -275 1680 -377 
Q 1837 -480 1929 -614 
Q 2022 -749 2003 -934 
Q 1990 -1152 1804 -1350 
Q 1619 -1549 1324 -1673 
Q 1030 -1798 678 -1798 
z
M 960 627 
Q 717 627 560 758 
Q 403 890 348 1104 
Q 294 1318 352 1574 
Q 403 1843 560 2054 
Q 717 2266 937 2387 
Q 1158 2509 1408 2509 
Q 1658 2509 1808 2381 
Q 1958 2253 2009 2041 
Q 2061 1830 2003 1574 
Q 1946 1286 1782 1075 
Q 1619 864 1401 745 
Q 1184 627 960 627 
z
M 1120 742 
Q 1318 742 1488 908 
Q 1658 1075 1715 1370 
Q 1754 1587 1722 1824 
Q 1690 2061 1574 2230 
Q 1459 2400 1248 2400 
Q 1043 2400 870 2221 
Q 698 2042 646 1766 
Q 602 1542 640 1302 
Q 678 1062 800 902 
Q 922 742 1120 742 
z
M 1645 2214 
L 1638 2259 
Q 1830 2374 2048 2444 
Q 2266 2515 2445 2515 
Q 2477 2515 2480 2467 
Q 2483 2419 2467 2361 
Q 2451 2304 2432 2262 
Q 2413 2221 2394 2234 
Q 2246 2304 2038 2291 
Q 1830 2278 1645 2214 
z
" transform="scale(0.015625)"/>
      <path id="CormorantGaramond-LightItalic-2e" d="M 416 -70 
Q 301 -70 233 -3 
Q 166 64 166 179 
Q 166 288 233 352 
Q 301 416 416 416 
Q 538 416 602 352 
Q 666 288 666 179 
Q 666 -70 416 -70 
z
" transform="scale(0.015625)"/>
     </defs>
     <use xlink:href="#CormorantGaramond-LightItalic-43"/>
     <use xlink:href="#CormorantGaramond-LightItalic-61" transform="translate(58.499985 0)"/>
     <use xlink:href="#CormorantGaramond-LightItalic-72" transform="translate(101.699982 0)"/>
     <use xlink:href="#CormorantGaramond-LightItalic-72" transform="translate(135.299973 0)"/>
     <use xlink:href="#CormorantGaramond-LightItalic-79" transform="translate(168.899963 0)"/>
     <use xlink:href="#CormorantGaramond-LightItalic-20" transform="translate(212.899948 0)"/>
     <use xlink:href="#CormorantGaramond-LightItalic-79" transform="translate(236.299942 0)"/>
     <use xlink:href="#CormorantGaramond-LightItalic-6f" transform="translate(280.299927 0)"/>
     <use xlink:href="#CormorantGaramond-LightItalic-75" transform="translate(319.899918 0)"/>
     <use xlink:href="#CormorantGaramond-LightItalic-72" transform="translate(366.099915 0)"/>
     <use xlink:href="#CormorantGaramond-LightItalic-20" transform="translate(399.699905 0)"/>
     <use xlink:href="#CormorantGaramond-LightItalic-62" transform="translate(423.099899 0)"/>
     <use xlink:href="#CormorantGaramond-LightItalic-65" transform="translate(466.099884 0)"/>
     <use xlink:href="#CormorantGaramond-LightItalic-61" transform="translate(499.999878 0)"/>
     <use xlink:href="#CormorantGaramond-LightItalic-72" transform="translate(543.199875 0)"/>
     <use xlink:href="#CormorantGaramond-LightItalic-69" transform="translate(576.799866 0)"/>
     <use xlink:href="#CormorantGaramond-LightItalic-6e" transform="translate(601.499863 0)"/>
     <use xlink:href="#CormorantGaramond-LightItalic-67" transform="translate(647.79985 0)"/>
     <use xlink:href="#CormorantGaramond-LightItalic-2e" transform="translate(685.499847 0)"/>
    </g>
   </g>
   <g id="line2d_1">
    <path d="M 471.6 225.36 
L 644.4 225.36 
" clip-path="url(#p109f4c1418)" style="fill: none; stroke: #7a3d14; stroke-width: 0.5; stroke-linecap: square"/>
   </g>
   <g id="text_2">
    <!-- Stay your best self -->
    <g style="fill: #1a1512" transform="translate(609.6425 252.03125) rotate(-180) scale(0.16 -0.16)">
     <defs>
      <path id="CormorantGaramond-LightItalic-53" d="M 1158 -77 
Q 960 -77 768 -29 
Q 576 19 358 141 
Q 333 160 326 189 
Q 320 218 320 262 
L 384 1094 
Q 384 1126 419 1126 
Q 454 1126 454 1094 
Q 442 838 518 588 
Q 595 339 790 176 
Q 986 13 1312 13 
Q 1504 13 1689 86 
Q 1875 160 2019 326 
Q 2163 493 2214 781 
Q 2272 1088 2179 1296 
Q 2086 1504 1904 1657 
Q 1722 1811 1517 1946 
Q 1318 2080 1145 2227 
Q 973 2374 880 2576 
Q 787 2778 838 3078 
Q 902 3411 1097 3632 
Q 1293 3853 1561 3961 
Q 1830 4070 2106 4070 
Q 2259 4070 2428 4035 
Q 2598 4000 2778 3917 
Q 2861 3872 2854 3808 
L 2778 3130 
Q 2778 3104 2739 3104 
Q 2701 3104 2701 3130 
Q 2701 3315 2649 3513 
Q 2598 3712 2454 3849 
Q 2310 3987 2016 3987 
Q 1754 3987 1581 3872 
Q 1408 3757 1309 3584 
Q 1210 3411 1178 3226 
Q 1126 2957 1219 2768 
Q 1312 2579 1488 2438 
Q 1664 2298 1862 2163 
Q 2074 2029 2259 1878 
Q 2445 1728 2544 1520 
Q 2643 1312 2592 1005 
Q 2541 710 2358 464 
Q 2176 218 1875 70 
Q 1574 -77 1158 -77 
z
" transform="scale(0.015625)"/>
      <path id="CormorantGaramond-LightItalic-74" d="M 768 -77 
Q 653 -77 547 -29 
Q 442 19 390 131 
Q 339 243 371 435 
L 653 1958 
Q 698 2202 662 2256 
Q 627 2310 435 2310 
Q 410 2310 416 2348 
Q 422 2387 442 2387 
Q 646 2387 796 2521 
Q 947 2656 986 2861 
Q 986 2880 1040 2880 
Q 1094 2880 1088 2861 
L 691 653 
Q 640 384 710 259 
Q 781 134 979 134 
Q 1184 134 1334 227 
Q 1485 320 1619 435 
Q 1632 448 1657 422 
Q 1683 397 1670 384 
Q 1382 134 1168 28 
Q 954 -77 768 -77 
z
M 1677 2195 
Q 1658 2195 1530 2211 
Q 1402 2227 1232 2243 
Q 1062 2259 909 2259 
L 922 2400 
Q 1069 2400 1267 2413 
Q 1466 2426 1632 2435 
Q 1798 2445 1837 2445 
Q 1862 2445 1875 2432 
Q 1888 2419 1882 2394 
Q 1869 2342 1805 2268 
Q 1741 2195 1677 2195 
z
" transform="scale(0.015625)"/>
      <path id="CormorantGaramond-LightItalic-73" d="M 634 -70 
Q 403 -70 227 42 
Q 51 154 77 314 
Q 90 390 141 428 
Q 192 467 250 467 
Q 320 467 355 403 
Q 390 339 432 259 
Q 474 179 557 115 
Q 640 51 800 51 
Q 986 51 1104 156 
Q 1222 262 1248 474 
Q 1280 672 1197 816 
Q 1114 960 973 1075 
Q 832 1190 697 1308 
Q 563 1427 483 1571 
Q 403 1715 442 1914 
Q 480 2125 611 2262 
Q 742 2400 918 2467 
Q 1094 2534 1267 2534 
Q 1478 2534 1625 2444 
Q 1773 2355 1754 2234 
Q 1741 2150 1686 2115 
Q 1632 2080 1581 2080 
Q 1504 2080 1456 2128 
Q 1408 2176 1360 2240 
Q 1312 2304 1241 2352 
Q 1171 2400 1043 2400 
Q 922 2400 816 2339 
Q 710 2278 691 2131 
Q 659 1939 742 1798 
Q 826 1658 963 1536 
Q 1101 1414 1238 1289 
Q 1376 1165 1456 1011 
Q 1536 858 1504 653 
Q 1472 461 1347 294 
Q 1222 128 1036 29 
Q 851 -70 634 -70 
z
" transform="scale(0.015625)"/>
      <path id="CormorantGaramond-LightItalic-6c" d="M 576 -58 
Q 422 -58 384 80 
Q 346 218 410 570 
L 1056 4013 
Q 1094 4218 1004 4275 
Q 915 4333 614 4186 
Q 589 4173 573 4211 
Q 557 4250 582 4256 
L 1370 4640 
Q 1395 4653 1420 4627 
Q 1446 4602 1440 4589 
L 691 570 
Q 646 371 681 275 
Q 717 179 800 179 
Q 870 179 985 265 
Q 1101 352 1242 493 
Q 1267 518 1292 492 
Q 1318 467 1293 442 
Q 1082 205 912 73 
Q 742 -58 576 -58 
z
" transform="scale(0.015625)"/>
      <path id="CormorantGaramond-LightItalic-66" d="M -262 -1760 
Q -474 -1760 -557 -1680 
Q -640 -1600 -627 -1504 
Q -621 -1434 -563 -1379 
Q -506 -1325 -410 -1325 
Q -320 -1325 -278 -1373 
Q -237 -1421 -217 -1485 
Q -198 -1549 -166 -1597 
Q -134 -1645 -58 -1645 
Q 19 -1645 76 -1549 
Q 134 -1453 195 -1165 
Q 256 -877 339 -301 
L 666 1958 
Q 691 2118 675 2192 
Q 659 2266 572 2288 
Q 486 2310 301 2310 
Q 275 2310 281 2348 
Q 288 2387 307 2387 
Q 544 2387 643 2451 
Q 742 2515 768 2675 
Q 864 3258 973 3638 
Q 1082 4019 1226 4240 
Q 1370 4461 1565 4553 
Q 1760 4646 2035 4646 
Q 2253 4646 2365 4547 
Q 2477 4448 2464 4320 
Q 2445 4230 2390 4192 
Q 2336 4154 2266 4154 
Q 2182 4154 2144 4214 
Q 2106 4275 2074 4355 
Q 2042 4435 1990 4496 
Q 1939 4557 1837 4557 
Q 1581 4557 1389 4118 
Q 1197 3680 1069 2810 
L 646 -134 
Q 557 -742 445 -1100 
Q 333 -1459 163 -1609 
Q -6 -1760 -262 -1760 
z
M 1510 2195 
Q 1421 2208 1315 2224 
Q 1210 2240 1088 2249 
Q 966 2259 832 2259 
L 845 2400 
Q 979 2400 1161 2413 
Q 1344 2426 1494 2435 
Q 1645 2445 1683 2445 
Q 1715 2445 1724 2432 
Q 1734 2419 1728 2394 
Q 1722 2342 1651 2262 
Q 1581 2182 1510 2195 
z
" transform="scale(0.015625)"/>
     </defs>
     <use xlink:href="#CormorantGaramond-LightItalic-53"/>
     <use xlink:href="#CormorantGaramond-LightItalic-74" transform="translate(45.999985 0)"/>
     <use xlink:href="#CormorantGaramond-LightItalic-61" transform="translate(75.399979 0)"/>
     <use xlink:href="#CormorantGaramond-LightItalic-79" transform="translate(118.599976 0)"/>
     <use xlink:href="#CormorantGaramond-LightItalic-20" transform="translate(162.59996 0)"/>
     <use xlink:href="#CormorantGaramond-LightItalic-79" transform="translate(185.999954 0)"/>
     <use xlink:href="#CormorantGaramond-LightItalic-6f" transform="translate(229.999939 0)"/>
     <use xlink:href="#CormorantGaramond-LightItalic-75" transform="translate(269.59993 0)"/>
     <use xlink:href="#CormorantGaramond-LightItalic-72" transform="translate(315.799927 0)"/>
     <use xlink:href="#CormorantGaramond-LightItalic-20" transform="translate(349.399918 0)"/>
     <use xlink:href="#CormorantGaramond-LightItalic-62" transform="translate(372.799911 0)"/>
     <use xlink:href="#CormorantGaramond-LightItalic-65" transform="translate(415.799896 0)"/>
     <use xlink:href="#CormorantGaramond-LightItalic-73" transform="translate(449.69989 0)"/>
     <use xlink:href="#CormorantGaramond-LightItalic-74" transform="translate(479.499878 0)"/>
     <use xlink:href="#CormorantGaramond-LightItalic-20" transform="translate(508.899872 0)"/>
     <use xlink:href="#CormorantGaramond-LightItalic-73" transform="translate(532.299866 0)"/>
     <use xlink:href="#CormorantGaramond-LightItalic-65" transform="translate(562.099854 0)"/>
     <use xlink:href="#CormorantGaramond-LightItalic-6c" transform="translate(595.999847 0)"/>
     <use xlink:href="#CormorantGaramond-LightItalic-66" transform="translate(619.499832 0)"/>
    </g>
   </g>
   <g id="line2d_2">
    <path d="M 558 710.568 
L 558 687.6 
" clip-path="url(#p109f4c1418)" style="fill: none; stroke: #d9cfbd; stroke-width: 1.5"/>
   </g>
   <g id="patch_4">
    <path d="M 558 710.568 
L 555.00624 716.3892 
L 558 727.2 
L 560.99376 716.3892 
z
" clip-path="url(#p109f4c1418)" style="fill: #d9cfbd; stroke: #d9cfbd; stroke-linejoin: miter"/>
   </g>
  </g>
 </g>
 <defs>
  <clipPath id="p109f4c1418">
   <rect x="0" y="0" width="1116" height="1080"/>
  </clipPath>
 </defs>
</svg>
