<?xml version="1.0" encoding="utf-8" standalone="no"?>
<!DOCTYPE svg PUBLIC "-//W3C//DTD SVG 1.1//EN"
  "http://www.w3.org/Graphics/SVG/1.1/DTD/svg11.dtd">
<svg xmlns:xlink="http://www.w3.org/1999/xlink" width="1332pt" height="1152pt" viewBox="0 0 1332 1152" xmlns="http://www.w3.org/2000/svg" version="1.1">
 <metadata>
  <rdf:RDF xmlns:dc="http://purl.org/dc/elements/1.1/" xmlns:cc="http://creativecommons.org/ns#" xmlns:rdf="http://www.w3.org/1999/02/22-rdf-syntax-ns#">
   <cc:Work>
    <dc:type rdf:resource="http://purl.org/dc/dcmitype/StillImage"/>
    <dc:date>2026-05-14T17:30:36.086649</dc:date>
    <dc:format>image/svg+xml</dc:format>
    <dc:creator>
     <cc:Agent>
      <dc:title>Matplotlib v3.10.8, https://matplotlib.org/</dc:title>
     </cc:Agent>
    </dc:creator>
   </cc:Work>
  </rdf:RDF>
 </metadata>
 <defs>
  <style type="text/css">*{stroke-linejoin: round; stroke-linecap: butt}</style>
 </defs>
 <g id="figure_1">
  <g id="patch_1">
   <path d="M 0 1152 
L 1332 1152 
L 1332 0 
L 0 0 
z
" style="fill: #f7f1e6"/>
  </g>
  <g id="axes_1">
   <g id="patch_2">
    <path d="M 0 1152 
L 1332 1152 
L 1332 0 
L 0 0 
z
" style="fill: #ffffff"/>
   </g>
   <g id="patch_3">
    <path d="M 0 1152 
L 1332 1152 
L 1332 0 
L 0 0 
z
" clip-path="url(#pc3e279a49a)" style="fill: #f7f1e6"/>
   </g>
   <g id="patch_4">
    <path d="M 396 1152 
L 936 1152 
L 936 900 
L 396 900 
z
" clip-path="url(#pc3e279a49a)" style="fill: #f7f1e6"/>
   </g>
   <g id="patch_5">
    <path d="M 414 918 
L 918 918 
L 918 558 
L 414 558 
z
" clip-path="url(#pc3e279a49a)" style="fill: #f7f1e6"/>
   </g>
   <g id="patch_6">
    <path d="M 414 558 
L 918 558 
L 918 342 
L 414 342 
z
" clip-path="url(#pc3e279a49a)" style="fill: #f7f1e6"/>
   </g>
   <g id="patch_7">
    <path d="M 396 360 
L 936 360 
L 936 108 
L 396 108 
z
" clip-path="url(#pc3e279a49a)" style="fill: #f7f1e6"/>
   </g>
   <g id="patch_8">
    <path d="M 396 144 
L 936 144 
L 936 0 
L 396 0 
z
" clip-path="url(#pc3e279a49a)" style="fill: #f7f1e6"/>
   </g>
   <g id="patch_9">
    <path d="M 54 918 
L 414 918 
L 414 558 
L 54 558 
z
" clip-path="url(#pc3e279a49a)" style="fill: #f7f1e6"/>
   </g>
   <g id="patch_10">
    <path d="M 918 918 
L 1278 918 
L 1278 558 
L 918 558 
z
" clip-path="url(#pc3e279a49a)" style="fill: #f7f1e6"/>
   </g>
   <g id="patch_11">
    <path d="M 18 918 
L 54 918 
L 54 558 
L 18 558 
z
" clip-path="url(#pc3e279a49a)" style="fill: #f7f1e6"/>
   </g>
   <g id="patch_12">
    <path d="M 1278 918 
L 1314 918 
L 1314 558 
L 1278 558 
z
" clip-path="url(#pc3e279a49a)" style="fill: #f7f1e6"/>
   </g>
   <g id="patch_13">
    <path d="M 54 558 
L 414 558 
L 414 486 
L 54 486 
z
" clip-path="url(#pc3e279a49a)" style="fill: #f7f1e6"/>
   </g>
   <g id="patch_14">
    <path d="M 54 990 
L 414 990 
L 414 918 
L 54 918 
z
" clip-path="url(#pc3e279a49a)" style="fill: #f7f1e6"/>
   </g>
   <g id="patch_15">
    <path d="M 918 558 
L 1278 558 
L 1278 486 
L 918 486 
z
" clip-path="url(#pc3e279a49a)" style="fill: #f7f1e6"/>
   </g>
   <g id="patch_16">
    <path d="M 918 990 
L 1278 990 
L 1278 918 
L 918 918 
z
" clip-path="url(#pc3e279a49a)" style="fill: #f7f1e6"/>
   </g>
   <g id="patch_17">
    <path d="M 36 936 
L 432 936 
L 432 540 
L 36 540 
z
" clip-path="url(#pc3e279a49a)" style="fill: #f7f1e6"/>
   </g>
   <g id="patch_18">
    <path d="M 0 936 
L 72 936 
L 72 540 
L 0 540 
z
" clip-path="url(#pc3e279a49a)" style="fill: #f7f1e6"/>
   </g>
   <g id="patch_19">
    <path d="M 900 936 
L 1296 936 
L 1296 540 
L 900 540 
z
" clip-path="url(#pc3e279a49a)" style="fill: #f7f1e6"/>
   </g>
   <g id="patch_20">
    <path d="M 1260 936 
L 1332 936 
L 1332 540 
L 1260 540 
z
" clip-path="url(#pc3e279a49a)" style="fill: #f7f1e6"/>
   </g>
   <g id="matplotlib.axis_1"/>
   <g id="matplotlib.axis_2"/>
   <g id="patch_21">
    <path d="M 666.489501 197.77532 
L 666.489501 232.744611 
L 664.873273 235.095488 
C 663.452952 237.176993 663.281534 237.519829 663.550905 237.985107 
C 663.7713 238.450385 663.722323 238.597315 663.061139 239.136057 
C 661.224517 240.67882 660.489868 243.225603 661.17554 245.625457 
C 661.591841 247.070266 666.391548 254.539197 666.905802 254.539197 
C 667.297615 254.539197 670.995348 249.274213 672.072833 247.192708 
C 672.807482 245.747898 672.954412 245.233644 672.954412 243.886787 
C 672.954412 241.927723 672.244251 240.287007 670.897395 239.185034 
C 670.040304 238.52385 669.991328 238.37692 670.211722 237.862666 
C 670.456605 237.323923 670.334164 237.030064 669.036284 235.144464 
L 667.591474 232.989494 
L 667.469033 197.971226 
C 667.346591 164.887534 667.322103 162.952958 666.93029 162.879494 
C 666.513989 162.806029 666.489501 164.593675 666.489501 197.77532 
z
M 668.154705 235.560766 
L 669.207702 237.030064 
L 666.979267 237.030064 
L 664.750832 237.030064 
L 665.754852 235.560766 
C 666.293594 234.752652 666.832337 234.091468 666.93029 234.091468 
C 667.052732 234.091468 667.591474 234.752652 668.154705 235.560766 
z
" clip-path="url(#pc3e279a49a)" style="fill: #7a3d14"/>
   </g>
   <g id="patch_22">
    <path d="M 627.675351 299.155929 
Q 627.570136 299.155929 627.570136 298.998107 
Q 627.570136 298.840285 627.675351 298.840285 
Q 628.359245 298.840285 629.279872 298.169542 
Q 630.200499 297.4988 631.147429 295.815368 
L 638.61766 282.453125 
Q 638.670267 282.34791 638.867544 282.387366 
Q 639.064822 282.426821 639.091125 282.505732 
L 641.58997 296.946424 
Q 641.695184 297.656622 641.853006 298.07748 
Q 642.010828 298.498338 642.365927 298.669311 
Q 642.721026 298.840285 643.457528 298.840285 
Q 643.562742 298.840285 643.562742 298.998107 
Q 643.562742 299.155929 643.457528 299.155929 
Q 642.82624 299.155929 642.16865 299.103321 
Q 641.511059 299.050714 640.72195 299.050714 
Q 639.959145 299.050714 639.354161 299.103321 
Q 638.749178 299.155929 638.091587 299.155929 
Q 638.012676 299.155929 638.012676 298.998107 
Q 638.012676 298.840285 638.091587 298.840285 
Q 639.248947 298.840285 639.564591 298.445731 
Q 639.880234 298.051176 639.669805 296.946424 
L 637.618122 284.925666 
L 638.512445 283.768306 
L 631.962842 295.710153 
Q 631.278948 296.946424 631.213189 297.630318 
Q 631.147429 298.314212 631.607743 298.577249 
Q 632.068056 298.840285 632.988683 298.840285 
Q 633.093898 298.840285 633.093898 298.998107 
Q 633.093898 299.155929 632.96238 299.155929 
Q 632.436307 299.155929 631.647198 299.103321 
Q 630.85809 299.050714 630.095284 299.050714 
Q 629.332479 299.050714 628.845862 299.103321 
Q 628.359245 299.155929 627.675351 299.155929 
z
M 633.462149 292.290682 
L 633.856703 291.712002 
L 639.564591 291.712002 
L 639.617198 292.290682 
z
" clip-path="url(#pc3e279a49a)" style="fill: #1a1512"/>
   </g>
   <g id="patch_23">
    <path d="M 642.82624 306.389426 
Q 642.721026 306.41573 642.694722 306.257908 
Q 642.668419 306.100086 642.773633 306.073783 
Q 643.326009 305.968568 643.602197 305.797595 
Q 643.878386 305.626621 644.036207 305.218915 
Q 644.194029 304.811209 644.325547 304.0221 
L 647.008517 289.002728 
Q 647.008517 288.923817 647.232098 288.765995 
Q 647.455679 288.608174 647.771323 288.358289 
Q 648.086966 288.108405 648.336851 287.766458 
Q 648.586735 287.42451 648.69195 287.029956 
Q 648.718253 286.924741 648.862923 286.951045 
Q 649.007593 286.977349 648.981289 287.082563 
L 646.008979 303.837974 
Q 645.824854 304.89012 646.114194 305.192611 
Q 646.403534 305.495103 647.429375 305.363585 
Q 647.53459 305.337281 647.587197 305.481951 
Q 647.639804 305.626621 647.508286 305.652925 
z
M 648.218484 299.182232 
Q 647.350464 299.182232 646.81124 299.103321 
Q 646.272016 299.02441 645.903765 298.9455 
L 646.166801 297.4988 
Q 646.692874 297.867051 647.363616 298.143239 
Q 648.034359 298.419427 649.033897 298.419427 
Q 650.112345 298.419427 650.861999 297.761836 
Q 651.611652 297.104246 652.071966 295.960038 
Q 652.532279 294.81583 652.690101 293.36913 
Q 652.821619 292.474807 652.703253 291.685698 
Q 652.584887 290.896589 652.098269 290.383669 
Q 651.611652 289.870748 650.585811 289.870748 
Q 649.375844 289.870748 648.152725 290.528338 
Q 646.929606 291.185929 645.325085 292.395896 
Q 645.246174 292.448503 645.14096 292.330137 
Q 645.035745 292.211771 645.14096 292.13286 
Q 646.745481 290.738768 648.494672 289.778685 
Q 650.243864 288.818603 651.900992 288.818603 
Q 653.400299 288.818603 654.05789 289.765533 
Q 654.71548 290.712464 654.452444 292.501111 
Q 654.268319 293.842596 653.663335 295.052563 
Q 653.058352 296.262529 652.190332 297.196308 
Q 651.322312 298.130087 650.296471 298.65616 
Q 649.270629 299.182232 648.218484 299.182232 
z
" clip-path="url(#pc3e279a49a)" style="fill: #1a1512"/>
   </g>
   <g id="patch_24">
    <path d="M 657.503665 299.392661 
Q 656.74086 299.392661 656.556734 298.787678 
Q 656.372609 298.182694 656.609342 296.814906 
L 659.160794 283.110715 
Q 659.344919 282.084874 658.98982 281.834989 
Q 658.634721 281.585105 657.477361 282.163785 
Q 657.372147 282.190088 657.306388 282.032267 
Q 657.240629 281.874445 657.345843 281.848141 
L 660.94944 280.085798 
Q 661.080958 280.033191 661.186173 280.138405 
Q 661.291387 280.24362 661.265084 280.296227 
L 658.240167 296.814906 
Q 658.082345 297.604014 658.213863 297.93281 
Q 658.345381 298.261605 658.634721 298.261605 
Q 658.924061 298.261605 659.331767 297.945962 
Q 659.739473 297.630318 660.265546 297.130549 
Q 660.370761 297.025335 660.475975 297.130549 
Q 660.58119 297.235764 660.475975 297.340978 
Q 659.634259 298.314212 658.924061 298.853437 
Q 658.213863 299.392661 657.503665 299.392661 
z
" clip-path="url(#pc3e279a49a)" style="fill: #1a1512"/>
   </g>
   <g id="patch_25">
    <path d="M 665.473664 299.524179 
Q 664.158483 299.524179 663.329919 298.787678 
Q 662.501354 298.051176 662.225166 296.814906 
Q 661.948978 295.578635 662.212014 294.079328 
Q 662.527658 292.527414 663.343071 291.304296 
Q 664.158483 290.081177 665.328994 289.370979 
Q 666.499506 288.660781 667.840991 288.660781 
Q 669.235083 288.660781 670.076799 289.397282 
Q 670.918515 290.133784 671.194704 291.370055 
Q 671.470892 292.606325 671.181552 294.079328 
Q 670.839605 295.789064 669.945281 297.012183 
Q 669.050958 298.235302 667.867295 298.87974 
Q 666.683631 299.524179 665.473664 299.524179 
z
M 666.394291 298.866589 
Q 667.393829 298.866589 668.209242 297.906506 
Q 669.024654 296.946424 669.340298 295.236688 
Q 669.524423 294.184543 669.484968 293.145549 
Q 669.445512 292.106556 669.156172 291.225385 
Q 668.866832 290.344213 668.34076 289.818141 
Q 667.814687 289.292068 667.025578 289.292068 
Q 666.052344 289.292068 665.22378 290.238999 
Q 664.395216 291.185929 664.053268 292.948272 
Q 663.842839 294.026721 663.895447 295.065714 
Q 663.948054 296.104708 664.250546 296.972727 
Q 664.553037 297.840747 665.092262 298.353668 
Q 665.631486 298.866589 666.394291 298.866589 
z
" clip-path="url(#pc3e279a49a)" style="fill: #1a1512"/>
   </g>
   <g id="patch_26">
    <path d="M 686.358745 299.392661 
Q 685.622244 299.392661 685.438118 298.787678 
Q 685.253993 298.182694 685.490726 296.814906 
L 686.253531 292.632629 
Q 686.490263 291.212233 686.306138 290.515187 
Q 686.122013 289.818141 685.464422 289.818141 
Q 684.701617 289.818141 683.846749 290.857134 
Q 682.991881 291.896127 682.215924 293.934658 
Q 681.439967 295.97319 680.913894 298.919196 
L 680.545643 298.892892 
Q 681.071716 295.789064 681.979191 293.474345 
Q 682.886666 291.159626 684.044026 289.910203 
Q 685.201386 288.660781 686.46396 288.660781 
Q 687.516105 288.660781 687.897508 289.476193 
Q 688.27891 290.291606 687.936963 292.13286 
L 687.095247 296.814906 
Q 686.963729 297.604014 687.082095 297.93281 
Q 687.200461 298.261605 687.489801 298.261605 
Q 687.779141 298.261605 688.186847 297.945962 
Q 688.594554 297.630318 689.120626 297.130549 
Q 689.225841 297.025335 689.331055 297.130549 
Q 689.43627 297.235764 689.331055 297.340978 
Q 688.489339 298.314212 687.779141 298.853437 
Q 687.068943 299.392661 686.358745 299.392661 
z
M 674.074951 299.366358 
Q 673.654093 299.366358 673.522575 299.31375 
Q 673.391057 299.261143 673.391057 299.182232 
Q 673.391057 299.103321 673.535726 298.51149 
Q 673.680396 297.919658 673.785611 297.288371 
L 674.86406 291.343751 
Q 675.127096 289.870748 674.443202 289.870748 
Q 674.153862 289.870748 673.7067 290.173239 
Q 673.259538 290.475731 672.707162 291.028107 
Q 672.628251 291.133322 672.523037 291.014956 
Q 672.417822 290.896589 672.496733 290.817678 
Q 673.41736 289.765533 674.167014 289.265764 
Q 674.916667 288.765995 675.626865 288.765995 
Q 676.337063 288.765995 676.53434 289.344675 
Q 676.731617 289.923355 676.494885 291.212233 
L 675.127096 298.919196 
Q 675.021881 299.366358 674.074951 299.366358 
z
M 679.888053 299.366358 
Q 679.467195 299.366358 679.335677 299.31375 
Q 679.204158 299.261143 679.204158 299.182232 
Q 679.204158 299.103321 679.348828 298.472034 
Q 679.493498 297.840747 679.598713 297.20946 
L 680.466733 292.606325 
Q 680.677162 291.185929 680.479884 290.502035 
Q 680.282607 289.818141 679.65132 289.818141 
Q 678.888515 289.818141 678.020495 290.896589 
Q 677.152475 291.975038 676.38967 294.000417 
Q 675.626865 296.025797 675.127096 298.919196 
L 674.732542 298.892892 
Q 675.258614 295.815368 676.166089 293.5138 
Q 677.073564 291.212233 678.230924 289.936507 
Q 679.388284 288.660781 680.677162 288.660781 
Q 681.676699 288.660781 682.084406 289.463042 
Q 682.492112 290.265302 682.150165 292.106556 
L 680.913894 298.919196 
Q 680.861287 299.366358 679.888053 299.366358 
z
" clip-path="url(#pc3e279a49a)" style="fill: #1a1512"/>
   </g>
   <g id="patch_27">
    <path d="M 693.723761 299.497876 
Q 692.329669 299.497876 691.593167 298.840285 
Q 690.856666 298.182694 691.067095 297.051638 
L 693.671154 283.110715 
Q 693.855279 282.084874 693.487029 281.834989 
Q 693.118778 281.585105 691.935114 282.163785 
Q 691.8299 282.190088 691.777293 282.032267 
Q 691.724685 281.874445 691.8299 281.848141 
L 695.433497 280.085798 
Q 695.565015 280.033191 695.67023 280.138405 
Q 695.775444 280.24362 695.749141 280.296227 
L 692.776831 296.63078 
Q 692.619009 297.577711 693.197689 298.195846 
Q 693.776368 298.813981 694.775906 298.813981 
Q 695.591319 298.813981 696.419883 298.169542 
Q 697.248447 297.525104 697.892886 296.315137 
Q 698.537325 295.10517 698.826665 293.36913 
Q 699.037094 292.448503 698.971335 291.69885 
Q 698.905576 290.949197 698.576781 290.488883 
Q 698.247985 290.02857 697.537787 290.02857 
Q 696.511946 290.02857 695.551863 290.857134 
Q 694.591781 291.685698 693.881583 293.171853 
Q 693.171385 294.658008 692.776831 296.63078 
L 692.592705 296.104708 
Q 692.829438 294.605401 693.421269 293.250764 
Q 694.013101 291.896127 694.867969 290.870286 
Q 695.722837 289.844444 696.722375 289.252613 
Q 697.721913 288.660781 698.747754 288.660781 
Q 699.984025 288.660781 700.562705 289.752381 
Q 701.141384 290.843982 700.825741 292.553718 
Q 700.483794 294.263454 699.694685 295.565483 
Q 698.905576 296.867513 697.866583 297.735533 
Q 696.827589 298.603552 695.735989 299.050714 
Q 694.644388 299.497876 693.723761 299.497876 
z
" clip-path="url(#pc3e279a49a)" style="fill: #1a1512"/>
   </g>
   <g id="patch_28">
    <path d="M 703.219371 299.418965 
Q 702.640691 299.418965 702.311896 299.090169 
Q 701.9831 298.761374 701.9831 298.182694 
Q 701.9831 297.630318 702.311896 297.314675 
Q 702.640691 296.999031 703.219371 296.999031 
Q 703.798051 296.999031 704.113694 297.314675 
Q 704.429338 297.630318 704.429338 298.182694 
Q 704.429338 299.418965 703.219371 299.418965 
z
" clip-path="url(#pc3e279a49a)" style="fill: #7a3d14"/>
   </g>
   <g id="line2d_1">
    <path d="M 565.2 1005.84 
L 766.8 1005.84 
" clip-path="url(#pc3e279a49a)" style="fill: none; stroke: #7a3d14; stroke-width: 0.6; stroke-linecap: square"/>
   </g>
   <g id="text_1">
    <!-- Preserving your self -->
    <g style="fill: #7a3d14" transform="translate(600.516797 1025.917891) scale(0.19 -0.19)">
     <defs>
      <path id="CormorantGaramond-LightItalic-50" d="M 77 0 
Q 58 0 58 38 
Q 58 77 77 77 
Q 282 77 394 109 
Q 506 141 560 237 
Q 614 333 646 518 
L 1165 3482 
Q 1216 3757 1145 3840 
Q 1075 3923 762 3923 
Q 749 3923 749 3961 
Q 749 4000 762 4000 
Q 890 4000 1046 3990 
Q 1203 3981 1382 3981 
Q 1530 3981 1734 4000 
Q 1939 4019 2176 4019 
Q 2496 4019 2752 3900 
Q 3008 3782 3139 3536 
Q 3270 3290 3194 2899 
Q 3136 2579 2966 2345 
Q 2797 2112 2566 1965 
Q 2336 1818 2086 1747 
Q 1837 1677 1619 1677 
Q 1542 1677 1481 1683 
Q 1421 1690 1357 1709 
Q 1338 1715 1350 1756 
Q 1363 1798 1382 1792 
Q 1434 1779 1482 1772 
Q 1530 1766 1574 1766 
Q 1830 1766 2089 1875 
Q 2349 1984 2550 2205 
Q 2752 2426 2816 2771 
Q 2886 3142 2790 3401 
Q 2694 3661 2489 3798 
Q 2285 3936 2035 3936 
Q 1830 3936 1721 3913 
Q 1613 3891 1558 3795 
Q 1504 3699 1459 3469 
L 941 518 
Q 896 243 966 160 
Q 1037 77 1350 77 
Q 1363 77 1363 38 
Q 1363 0 1350 0 
Q 1222 0 1056 6 
Q 890 13 698 13 
Q 525 13 361 6 
Q 198 0 77 0 
z
" transform="scale(0.015625)"/>
      <path id="CormorantGaramond-LightItalic-72" d="M 672 38 
L 608 45 
Q 659 320 755 653 
Q 851 986 979 1315 
Q 1107 1645 1251 1920 
Q 1395 2195 1545 2361 
Q 1696 2528 1837 2528 
Q 1920 2528 2000 2483 
Q 2080 2438 2128 2361 
Q 2176 2285 2157 2195 
Q 2138 2112 2090 2077 
Q 2042 2042 1971 2042 
Q 1875 2042 1833 2096 
Q 1792 2150 1763 2204 
Q 1734 2259 1670 2259 
Q 1574 2259 1462 2105 
Q 1350 1952 1228 1702 
Q 1107 1453 998 1155 
Q 890 858 803 563 
Q 717 269 672 38 
z
M 512 -51 
Q 429 -51 406 -41 
Q 384 -32 384 -13 
Q 384 6 419 169 
Q 454 333 480 474 
L 678 1594 
Q 736 1888 723 2035 
Q 710 2182 662 2236 
Q 614 2291 557 2291 
Q 461 2291 355 2214 
Q 250 2138 166 2061 
Q 154 2048 128 2070 
Q 102 2093 115 2112 
Q 294 2317 457 2422 
Q 621 2528 781 2528 
Q 890 2528 950 2451 
Q 1011 2374 1017 2172 
Q 1024 1971 954 1594 
L 672 38 
Q 659 -51 512 -51 
z
" transform="scale(0.015625)"/>
      <path id="CormorantGaramond-LightItalic-65" d="M 986 -77 
Q 653 -77 461 99 
Q 269 275 208 563 
Q 147 851 211 1184 
Q 250 1421 381 1664 
Q 512 1907 707 2108 
Q 902 2310 1142 2432 
Q 1382 2554 1651 2554 
Q 1875 2554 1984 2461 
Q 2093 2368 2061 2208 
Q 2029 2061 1885 1923 
Q 1741 1786 1513 1674 
Q 1286 1562 1008 1482 
Q 730 1402 429 1363 
L 442 1446 
Q 941 1517 1283 1673 
Q 1626 1830 1690 2074 
Q 1741 2253 1625 2317 
Q 1510 2381 1376 2381 
Q 1146 2381 973 2246 
Q 800 2112 694 1888 
Q 589 1664 544 1395 
Q 474 1030 528 745 
Q 582 461 752 294 
Q 922 128 1197 128 
Q 1357 128 1526 173 
Q 1696 218 1856 339 
Q 1875 352 1897 326 
Q 1920 301 1901 282 
Q 1658 90 1434 6 
Q 1210 -77 986 -77 
z
" transform="scale(0.015625)"/>
      <path id="CormorantGaramond-LightItalic-73" d="M 634 -70 
Q 403 -70 227 42 
Q 51 154 77 314 
Q 90 390 141 428 
Q 192 467 250 467 
Q 320 467 355 403 
Q 390 339 432 259 
Q 474 179 557 115 
Q 640 51 800 51 
Q 986 51 1104 156 
Q 1222 262 1248 474 
Q 1280 672 1197 816 
Q 1114 960 973 1075 
Q 832 1190 697 1308 
Q 563 1427 483 1571 
Q 403 1715 442 1914 
Q 480 2125 611 2262 
Q 742 2400 918 2467 
Q 1094 2534 1267 2534 
Q 1478 2534 1625 2444 
Q 1773 2355 1754 2234 
Q 1741 2150 1686 2115 
Q 1632 2080 1581 2080 
Q 1504 2080 1456 2128 
Q 1408 2176 1360 2240 
Q 1312 2304 1241 2352 
Q 1171 2400 1043 2400 
Q 922 2400 816 2339 
Q 710 2278 691 2131 
Q 659 1939 742 1798 
Q 826 1658 963 1536 
Q 1101 1414 1238 1289 
Q 1376 1165 1456 1011 
Q 1536 858 1504 653 
Q 1472 461 1347 294 
Q 1222 128 1036 29 
Q 851 -70 634 -70 
z
" transform="scale(0.015625)"/>
      <path id="CormorantGaramond-LightItalic-76" d="M 1178 -83 
Q 960 -83 825 54 
Q 691 192 643 403 
Q 595 614 627 832 
Q 678 1126 825 1440 
Q 973 1754 1094 2029 
Q 1133 2118 1113 2153 
Q 1094 2189 1024 2189 
L 691 2189 
Q 525 2189 441 2166 
Q 358 2144 310 2070 
Q 262 1997 211 1837 
Q 198 1811 163 1824 
Q 128 1837 141 1869 
Q 237 2144 307 2272 
Q 378 2400 480 2438 
Q 582 2477 768 2477 
L 1331 2477 
Q 1389 2477 1398 2464 
Q 1408 2451 1382 2400 
Q 1229 2048 1088 1657 
Q 947 1267 909 954 
Q 864 589 982 387 
Q 1101 186 1325 186 
Q 1517 186 1709 317 
Q 1901 448 2057 685 
Q 2214 922 2304 1242 
Q 2394 1562 2371 1744 
Q 2349 1926 2285 2009 
Q 2221 2093 2189 2118 
Q 2163 2144 2102 2198 
Q 2042 2253 2042 2342 
Q 2042 2451 2122 2492 
Q 2202 2534 2266 2534 
Q 2413 2534 2473 2371 
Q 2534 2208 2537 1974 
Q 2541 1741 2509 1530 
Q 2451 1146 2307 848 
Q 2163 550 1968 342 
Q 1773 134 1568 25 
Q 1363 -83 1178 -83 
z
" transform="scale(0.015625)"/>
      <path id="CormorantGaramond-LightItalic-69" d="M 704 -58 
Q 563 -58 515 70 
Q 467 198 538 570 
L 800 1901 
Q 877 2291 691 2291 
Q 614 2291 492 2214 
Q 371 2138 230 1990 
Q 211 1965 182 1993 
Q 154 2022 179 2042 
Q 397 2285 573 2406 
Q 749 2528 909 2528 
Q 1062 2528 1100 2390 
Q 1139 2253 1069 1901 
L 813 570 
Q 774 371 806 275 
Q 838 179 922 179 
Q 992 179 1113 256 
Q 1235 333 1376 480 
Q 1402 506 1427 477 
Q 1453 448 1427 429 
Q 1216 186 1040 64 
Q 864 -58 704 -58 
z
M 1101 3309 
Q 979 3309 912 3373 
Q 845 3437 845 3558 
Q 845 3667 912 3731 
Q 979 3795 1101 3795 
Q 1222 3795 1286 3731 
Q 1350 3667 1350 3558 
Q 1350 3309 1101 3309 
z
" transform="scale(0.015625)"/>
      <path id="CormorantGaramond-LightItalic-6e" d="M 2150 -58 
Q 1997 -58 1961 80 
Q 1926 218 1990 570 
L 2176 1587 
Q 2330 2336 1926 2336 
Q 1715 2336 1481 2067 
Q 1248 1798 1040 1283 
Q 832 768 698 38 
L 627 45 
Q 762 787 986 1353 
Q 1210 1920 1501 2237 
Q 1792 2554 2106 2554 
Q 2381 2554 2470 2358 
Q 2560 2163 2470 1709 
L 2259 570 
Q 2227 371 2259 275 
Q 2291 179 2374 179 
Q 2445 179 2560 265 
Q 2675 352 2816 493 
Q 2835 518 2864 492 
Q 2893 467 2867 442 
Q 2656 205 2486 73 
Q 2317 -58 2150 -58 
z
M 531 -51 
Q 448 -51 422 -41 
Q 397 -32 397 -13 
Q 397 6 432 156 
Q 467 307 493 474 
L 755 1901 
Q 819 2291 646 2291 
Q 570 2291 448 2214 
Q 326 2138 186 1990 
Q 166 1965 137 1993 
Q 109 2022 134 2042 
Q 346 2285 528 2406 
Q 710 2528 870 2528 
Q 1018 2528 1053 2390 
Q 1088 2253 1024 1901 
L 698 38 
Q 685 -51 531 -51 
z
" transform="scale(0.015625)"/>
      <path id="CormorantGaramond-LightItalic-67" d="M 678 -1798 
Q 333 -1798 109 -1686 
Q -115 -1574 -211 -1395 
Q -307 -1216 -262 -1018 
Q -192 -736 96 -528 
Q 384 -320 749 -115 
L 794 -166 
Q 634 -262 470 -361 
Q 307 -461 188 -582 
Q 70 -704 38 -883 
Q 6 -1088 112 -1257 
Q 218 -1427 442 -1526 
Q 666 -1626 979 -1626 
Q 1338 -1626 1536 -1482 
Q 1734 -1338 1747 -1120 
Q 1754 -947 1654 -819 
Q 1555 -691 1395 -592 
Q 1235 -493 1059 -403 
Q 883 -314 729 -218 
Q 576 -122 493 -6 
Q 410 109 435 262 
Q 467 403 572 524 
Q 678 646 838 787 
L 909 736 
Q 832 691 768 601 
Q 704 512 691 416 
Q 672 282 765 179 
Q 858 77 1014 -9 
Q 1171 -96 1347 -185 
Q 1523 -275 1680 -377 
Q 1837 -480 1929 -614 
Q 2022 -749 2003 -934 
Q 1990 -1152 1804 -1350 
Q 1619 -1549 1324 -1673 
Q 1030 -1798 678 -1798 
z
M 960 627 
Q 717 627 560 758 
Q 403 890 348 1104 
Q 294 1318 352 1574 
Q 403 1843 560 2054 
Q 717 2266 937 2387 
Q 1158 2509 1408 2509 
Q 1658 2509 1808 2381 
Q 1958 2253 2009 2041 
Q 2061 1830 2003 1574 
Q 1946 1286 1782 1075 
Q 1619 864 1401 745 
Q 1184 627 960 627 
z
M 1120 742 
Q 1318 742 1488 908 
Q 1658 1075 1715 1370 
Q 1754 1587 1722 1824 
Q 1690 2061 1574 2230 
Q 1459 2400 1248 2400 
Q 1043 2400 870 2221 
Q 698 2042 646 1766 
Q 602 1542 640 1302 
Q 678 1062 800 902 
Q 922 742 1120 742 
z
M 1645 2214 
L 1638 2259 
Q 1830 2374 2048 2444 
Q 2266 2515 2445 2515 
Q 2477 2515 2480 2467 
Q 2483 2419 2467 2361 
Q 2451 2304 2432 2262 
Q 2413 2221 2394 2234 
Q 2246 2304 2038 2291 
Q 1830 2278 1645 2214 
z
" transform="scale(0.015625)"/>
      <path id="CormorantGaramond-LightItalic-20" transform="scale(0.015625)"/>
      <path id="CormorantGaramond-LightItalic-79" d="M -122 -1798 
Q -224 -1798 -291 -1740 
Q -358 -1683 -346 -1562 
Q -307 -1421 -122 -1421 
Q 13 -1421 150 -1398 
Q 288 -1376 416 -1325 
Q 544 -1274 646 -1203 
Q 787 -1107 972 -873 
Q 1158 -640 1363 -336 
Q 1568 -32 1753 291 
Q 1939 614 2073 902 
Q 2208 1190 2253 1382 
Q 2291 1555 2284 1712 
Q 2278 1869 2246 1997 
Q 2214 2125 2188 2217 
Q 2163 2310 2163 2355 
Q 2163 2432 2214 2483 
Q 2266 2534 2355 2534 
Q 2483 2534 2528 2441 
Q 2573 2349 2573 2208 
Q 2573 1971 2473 1644 
Q 2374 1318 2198 937 
Q 2022 557 1798 173 
Q 1574 -211 1321 -566 
Q 1069 -922 809 -1197 
Q 550 -1472 310 -1635 
Q 70 -1798 -122 -1798 
z
M 1197 -691 
Q 1235 717 1033 1491 
Q 832 2266 454 2266 
Q 371 2266 281 2214 
Q 192 2163 122 2022 
Q 109 1997 73 2006 
Q 38 2016 45 2042 
Q 166 2285 297 2406 
Q 429 2528 602 2528 
Q 832 2528 1008 2307 
Q 1184 2086 1296 1702 
Q 1408 1318 1453 816 
Q 1498 314 1466 -256 
L 1197 -691 
z
" transform="scale(0.015625)"/>
      <path id="CormorantGaramond-LightItalic-6f" d="M 979 -90 
Q 685 -90 489 86 
Q 294 262 220 563 
Q 147 864 218 1235 
Q 288 1606 483 1904 
Q 678 2202 956 2378 
Q 1235 2554 1549 2554 
Q 1875 2554 2073 2371 
Q 2272 2189 2336 1888 
Q 2400 1587 2330 1235 
Q 2253 838 2041 537 
Q 1830 237 1548 73 
Q 1267 -90 979 -90 
z
M 1203 70 
Q 1485 70 1721 300 
Q 1958 531 2035 954 
Q 2080 1178 2064 1427 
Q 2048 1677 1968 1897 
Q 1888 2118 1737 2259 
Q 1587 2400 1363 2400 
Q 1075 2400 835 2157 
Q 595 1914 512 1510 
Q 461 1274 480 1024 
Q 499 774 585 556 
Q 672 339 829 204 
Q 986 70 1203 70 
z
" transform="scale(0.015625)"/>
      <path id="CormorantGaramond-LightItalic-75" d="M 851 -83 
Q 576 -83 483 115 
Q 390 314 486 762 
L 717 1901 
Q 755 2099 723 2195 
Q 691 2291 608 2291 
Q 538 2291 422 2208 
Q 307 2125 166 1978 
Q 141 1952 115 1977 
Q 90 2003 115 2029 
Q 326 2272 499 2400 
Q 672 2528 832 2528 
Q 979 2528 1020 2390 
Q 1062 2253 986 1901 
L 781 883 
Q 698 499 762 316 
Q 826 134 1030 134 
Q 1242 134 1475 403 
Q 1709 672 1917 1187 
Q 2125 1702 2259 2432 
L 2330 2426 
Q 2202 1683 1974 1116 
Q 1747 550 1459 233 
Q 1171 -83 851 -83 
z
M 2086 -58 
Q 1939 -58 1904 80 
Q 1869 218 1933 570 
L 2259 2432 
Q 2272 2522 2426 2522 
Q 2509 2522 2534 2512 
Q 2560 2502 2560 2483 
Q 2560 2464 2528 2313 
Q 2496 2163 2464 1997 
L 2202 570 
Q 2138 179 2310 179 
Q 2387 179 2508 256 
Q 2630 333 2771 480 
Q 2790 506 2819 477 
Q 2848 448 2822 429 
Q 2605 186 2429 64 
Q 2253 -58 2086 -58 
z
" transform="scale(0.015625)"/>
      <path id="CormorantGaramond-LightItalic-6c" d="M 576 -58 
Q 422 -58 384 80 
Q 346 218 410 570 
L 1056 4013 
Q 1094 4218 1004 4275 
Q 915 4333 614 4186 
Q 589 4173 573 4211 
Q 557 4250 582 4256 
L 1370 4640 
Q 1395 4653 1420 4627 
Q 1446 4602 1440 4589 
L 691 570 
Q 646 371 681 275 
Q 717 179 800 179 
Q 870 179 985 265 
Q 1101 352 1242 493 
Q 1267 518 1292 492 
Q 1318 467 1293 442 
Q 1082 205 912 73 
Q 742 -58 576 -58 
z
" transform="scale(0.015625)"/>
      <path id="CormorantGaramond-LightItalic-66" d="M -262 -1760 
Q -474 -1760 -557 -1680 
Q -640 -1600 -627 -1504 
Q -621 -1434 -563 -1379 
Q -506 -1325 -410 -1325 
Q -320 -1325 -278 -1373 
Q -237 -1421 -217 -1485 
Q -198 -1549 -166 -1597 
Q -134 -1645 -58 -1645 
Q 19 -1645 76 -1549 
Q 134 -1453 195 -1165 
Q 256 -877 339 -301 
L 666 1958 
Q 691 2118 675 2192 
Q 659 2266 572 2288 
Q 486 2310 301 2310 
Q 275 2310 281 2348 
Q 288 2387 307 2387 
Q 544 2387 643 2451 
Q 742 2515 768 2675 
Q 864 3258 973 3638 
Q 1082 4019 1226 4240 
Q 1370 4461 1565 4553 
Q 1760 4646 2035 4646 
Q 2253 4646 2365 4547 
Q 2477 4448 2464 4320 
Q 2445 4230 2390 4192 
Q 2336 4154 2266 4154 
Q 2182 4154 2144 4214 
Q 2106 4275 2074 4355 
Q 2042 4435 1990 4496 
Q 1939 4557 1837 4557 
Q 1581 4557 1389 4118 
Q 1197 3680 1069 2810 
L 646 -134 
Q 557 -742 445 -1100 
Q 333 -1459 163 -1609 
Q -6 -1760 -262 -1760 
z
M 1510 2195 
Q 1421 2208 1315 2224 
Q 1210 2240 1088 2249 
Q 966 2259 832 2259 
L 845 2400 
Q 979 2400 1161 2413 
Q 1344 2426 1494 2435 
Q 1645 2445 1683 2445 
Q 1715 2445 1724 2432 
Q 1734 2419 1728 2394 
Q 1722 2342 1651 2262 
Q 1581 2182 1510 2195 
z
" transform="scale(0.015625)"/>
     </defs>
     <use xlink:href="#CormorantGaramond-LightItalic-50"/>
     <use xlink:href="#CormorantGaramond-LightItalic-72" transform="translate(49.599991 0)"/>
     <use xlink:href="#CormorantGaramond-LightItalic-65" transform="translate(83.199982 0)"/>
     <use xlink:href="#CormorantGaramond-LightItalic-73" transform="translate(117.099976 0)"/>
     <use xlink:href="#CormorantGaramond-LightItalic-65" transform="translate(146.899963 0)"/>
     <use xlink:href="#CormorantGaramond-LightItalic-72" transform="translate(180.799957 0)"/>
     <use xlink:href="#CormorantGaramond-LightItalic-76" transform="translate(214.399948 0)"/>
     <use xlink:href="#CormorantGaramond-LightItalic-69" transform="translate(257.199936 0)"/>
     <use xlink:href="#CormorantGaramond-LightItalic-6e" transform="translate(281.899933 0)"/>
     <use xlink:href="#CormorantGaramond-LightItalic-67" transform="translate(328.199921 0)"/>
     <use xlink:href="#CormorantGaramond-LightItalic-20" transform="translate(365.899918 0)"/>
     <use xlink:href="#CormorantGaramond-LightItalic-79" transform="translate(389.299911 0)"/>
     <use xlink:href="#CormorantGaramond-LightItalic-6f" transform="translate(433.299896 0)"/>
     <use xlink:href="#CormorantGaramond-LightItalic-75" transform="translate(472.899887 0)"/>
     <use xlink:href="#CormorantGaramond-LightItalic-72" transform="translate(519.099884 0)"/>
     <use xlink:href="#CormorantGaramond-LightItalic-20" transform="translate(552.699875 0)"/>
     <use xlink:href="#CormorantGaramond-LightItalic-73" transform="translate(576.099869 0)"/>
     <use xlink:href="#CormorantGaramond-LightItalic-65" transform="translate(605.899857 0)"/>
     <use xlink:href="#CormorantGaramond-LightItalic-6c" transform="translate(639.79985 0)"/>
     <use xlink:href="#CormorantGaramond-LightItalic-66" transform="translate(663.299835 0)"/>
    </g>
   </g>
   <g id="text_2">
    <!-- through GLP-1 use. -->
    <g style="fill: #7a3d14" transform="translate(602.073906 1051.837891) scale(0.19 -0.19)">
     <defs>
      <path id="CormorantGaramond-LightItalic-74" d="M 768 -77 
Q 653 -77 547 -29 
Q 442 19 390 131 
Q 339 243 371 435 
L 653 1958 
Q 698 2202 662 2256 
Q 627 2310 435 2310 
Q 410 2310 416 2348 
Q 422 2387 442 2387 
Q 646 2387 796 2521 
Q 947 2656 986 2861 
Q 986 2880 1040 2880 
Q 1094 2880 1088 2861 
L 691 653 
Q 640 384 710 259 
Q 781 134 979 134 
Q 1184 134 1334 227 
Q 1485 320 1619 435 
Q 1632 448 1657 422 
Q 1683 397 1670 384 
Q 1382 134 1168 28 
Q 954 -77 768 -77 
z
M 1677 2195 
Q 1658 2195 1530 2211 
Q 1402 2227 1232 2243 
Q 1062 2259 909 2259 
L 922 2400 
Q 1069 2400 1267 2413 
Q 1466 2426 1632 2435 
Q 1798 2445 1837 2445 
Q 1862 2445 1875 2432 
Q 1888 2419 1882 2394 
Q 1869 2342 1805 2268 
Q 1741 2195 1677 2195 
z
" transform="scale(0.015625)"/>
      <path id="CormorantGaramond-LightItalic-68" d="M 403 -51 
Q 320 -51 294 -41 
Q 269 -32 269 -13 
Q 269 6 304 156 
Q 339 307 365 474 
L 1030 4013 
Q 1075 4218 976 4275 
Q 877 4333 576 4186 
Q 550 4173 534 4211 
Q 518 4250 544 4256 
L 1331 4640 
Q 1357 4653 1382 4627 
Q 1408 4602 1402 4589 
L 570 38 
Q 557 -51 403 -51 
z
M 2022 -58 
Q 1869 -58 1833 80 
Q 1798 218 1862 570 
L 2048 1587 
Q 2118 1965 2060 2150 
Q 2003 2336 1798 2336 
Q 1587 2336 1353 2067 
Q 1120 1798 912 1283 
Q 704 768 570 38 
L 499 45 
Q 634 787 861 1353 
Q 1088 1920 1376 2237 
Q 1664 2554 1978 2554 
Q 2253 2554 2336 2358 
Q 2419 2163 2342 1709 
L 2131 570 
Q 2099 371 2128 275 
Q 2157 179 2240 179 
Q 2317 179 2432 265 
Q 2547 352 2688 493 
Q 2714 518 2739 492 
Q 2765 467 2739 442 
Q 2528 205 2358 73 
Q 2189 -58 2022 -58 
z
" transform="scale(0.015625)"/>
      <path id="CormorantGaramond-LightItalic-47" d="M 2112 -77 
Q 1478 -77 1068 195 
Q 659 467 502 931 
Q 346 1395 448 1971 
Q 531 2432 764 2819 
Q 998 3206 1344 3484 
Q 1690 3763 2112 3916 
Q 2534 4070 2995 4070 
Q 3258 4070 3482 4009 
Q 3706 3949 3846 3827 
Q 3885 3782 3885 3756 
Q 3885 3731 3878 3680 
L 3827 3008 
Q 3821 2982 3785 2982 
Q 3750 2982 3750 3008 
Q 3731 3469 3468 3702 
Q 3206 3936 2746 3936 
Q 2240 3936 1849 3721 
Q 1459 3507 1203 3116 
Q 947 2726 845 2202 
Q 730 1555 877 1065 
Q 1024 576 1385 304 
Q 1747 32 2266 32 
Q 2541 32 2717 89 
Q 2893 147 2995 313 
Q 3098 480 3149 806 
Q 3206 1114 3196 1258 
Q 3187 1402 3065 1446 
Q 2944 1491 2650 1491 
Q 2618 1491 2621 1542 
Q 2624 1594 2650 1594 
Q 2982 1568 3257 1565 
Q 3533 1562 3840 1581 
Q 3866 1581 3869 1536 
Q 3872 1491 3840 1491 
Q 3706 1498 3635 1450 
Q 3565 1402 3520 1242 
Q 3475 1082 3411 742 
Q 3379 531 3369 428 
Q 3360 326 3363 278 
Q 3366 230 3354 179 
Q 3347 141 3331 128 
Q 3315 115 3277 102 
Q 2995 26 2691 -25 
Q 2387 -77 2112 -77 
z
" transform="scale(0.015625)"/>
      <path id="CormorantGaramond-LightItalic-4c" d="M 77 0 
Q 58 0 58 38 
Q 58 77 77 77 
Q 282 77 390 109 
Q 499 141 550 237 
Q 602 333 634 518 
L 1158 3482 
Q 1210 3757 1136 3840 
Q 1062 3923 755 3923 
Q 742 3923 742 3961 
Q 742 4000 755 4000 
Q 883 4000 1040 3990 
Q 1197 3981 1376 3981 
Q 1562 3981 1731 3990 
Q 1901 4000 2022 4000 
Q 2035 4000 2035 3961 
Q 2035 3923 2022 3923 
Q 1818 3923 1706 3888 
Q 1594 3853 1546 3757 
Q 1498 3661 1459 3475 
L 941 544 
Q 896 275 966 195 
Q 1037 115 1338 115 
L 2106 115 
Q 2451 115 2649 345 
Q 2848 576 2950 941 
Q 2950 960 2992 953 
Q 3034 947 3027 928 
Q 2976 762 2918 528 
Q 2861 294 2829 96 
Q 2810 0 2726 0 
L 77 0 
z
" transform="scale(0.015625)"/>
      <path id="CormorantGaramond-LightItalic-2d" d="M 205 1075 
Q 186 1075 179 1139 
Q 173 1203 176 1273 
Q 179 1344 192 1350 
L 1792 1645 
Q 1811 1651 1814 1584 
Q 1818 1517 1814 1449 
Q 1811 1382 1792 1376 
L 205 1075 
z
" transform="scale(0.015625)"/>
      <path id="CormorantGaramond-LightItalic-31" d="M 102 0 
Q 77 0 77 38 
Q 77 77 102 77 
Q 339 77 467 109 
Q 595 141 656 237 
Q 717 333 749 518 
L 966 1722 
Q 1011 1990 998 2096 
Q 986 2202 864 2176 
Q 742 2150 454 2016 
Q 429 2003 416 2038 
Q 403 2074 429 2080 
L 1338 2528 
Q 1357 2541 1376 2528 
Q 1395 2515 1382 2502 
L 1030 518 
Q 998 333 1020 237 
Q 1043 141 1164 109 
Q 1286 77 1536 77 
Q 1555 77 1555 38 
Q 1555 0 1536 0 
Q 1389 0 1209 6 
Q 1030 13 826 13 
Q 627 13 438 6 
Q 250 0 102 0 
z
" transform="scale(0.015625)"/>
      <path id="CormorantGaramond-LightItalic-2e" d="M 416 -70 
Q 301 -70 233 -3 
Q 166 64 166 179 
Q 166 288 233 352 
Q 301 416 416 416 
Q 538 416 602 352 
Q 666 288 666 179 
Q 666 -70 416 -70 
z
" transform="scale(0.015625)"/>
     </defs>
     <use xlink:href="#CormorantGaramond-LightItalic-74"/>
     <use xlink:href="#CormorantGaramond-LightItalic-68" transform="translate(29.399994 0)"/>
     <use xlink:href="#CormorantGaramond-LightItalic-72" transform="translate(73.699982 0)"/>
     <use xlink:href="#CormorantGaramond-LightItalic-6f" transform="translate(107.299973 0)"/>
     <use xlink:href="#CormorantGaramond-LightItalic-75" transform="translate(146.899963 0)"/>
     <use xlink:href="#CormorantGaramond-LightItalic-67" transform="translate(193.09996 0)"/>
     <use xlink:href="#CormorantGaramond-LightItalic-68" transform="translate(230.799957 0)"/>
     <use xlink:href="#CormorantGaramond-LightItalic-20" transform="translate(275.099945 0)"/>
     <use xlink:href="#CormorantGaramond-LightItalic-47" transform="translate(298.499939 0)"/>
     <use xlink:href="#CormorantGaramond-LightItalic-4c" transform="translate(361.499924 0)"/>
     <use xlink:href="#CormorantGaramond-LightItalic-50" transform="translate(410.899918 0)"/>
     <use xlink:href="#CormorantGaramond-LightItalic-2d" transform="translate(460.499908 0)"/>
     <use xlink:href="#CormorantGaramond-LightItalic-31" transform="translate(490.999893 0)"/>
     <use xlink:href="#CormorantGaramond-LightItalic-20" transform="translate(520.099884 0)"/>
     <use xlink:href="#CormorantGaramond-LightItalic-75" transform="translate(543.499878 0)"/>
     <use xlink:href="#CormorantGaramond-LightItalic-73" transform="translate(589.699875 0)"/>
     <use xlink:href="#CormorantGaramond-LightItalic-65" transform="translate(619.499863 0)"/>
     <use xlink:href="#CormorantGaramond-LightItalic-2e" transform="translate(653.399857 0)"/>
    </g>
   </g>
   <g id="patch_29">
    <path d="M 489.909223 452.546881 
Q 489.864002 452.546881 489.864002 452.479049 
Q 489.864002 452.411216 489.909223 452.411216 
Q 490.203164 452.411216 490.598853 452.122929 
Q 490.994542 451.834641 491.401537 451.111095 
L 494.612271 445.36795 
Q 494.634882 445.322729 494.719672 445.339687 
Q 494.804463 445.356645 494.815768 445.390561 
L 495.889781 451.597227 
Q 495.935003 451.902473 496.002835 452.08336 
Q 496.070668 452.264246 496.223291 452.337731 
Q 496.375914 452.411216 496.692465 452.411216 
Q 496.737687 452.411216 496.737687 452.479049 
Q 496.737687 452.546881 496.692465 452.546881 
Q 496.421135 452.546881 496.1385 452.52427 
Q 495.855865 452.50166 495.516703 452.50166 
Q 495.188846 452.50166 494.928822 452.52427 
Q 494.668798 452.546881 494.386163 452.546881 
Q 494.352247 452.546881 494.352247 452.479049 
Q 494.352247 452.411216 494.386163 452.411216 
Q 494.883601 452.411216 495.019265 452.241635 
Q 495.15493 452.072054 495.064487 451.597227 
L 494.182666 446.430658 
L 494.567049 445.93322 
L 491.752004 451.065873 
Q 491.458064 451.597227 491.4298 451.891168 
Q 491.401537 452.185108 491.599381 452.298162 
Q 491.797226 452.411216 492.192915 452.411216 
Q 492.238136 452.411216 492.238136 452.479049 
Q 492.238136 452.546881 492.181609 452.546881 
Q 491.955501 452.546881 491.616339 452.52427 
Q 491.277177 452.50166 490.94932 452.50166 
Q 490.621464 452.50166 490.412314 452.52427 
Q 490.203164 452.546881 489.909223 452.546881 
z
M 492.396412 449.596171 
L 492.565993 449.347452 
L 495.019265 449.347452 
L 495.041876 449.596171 
z
" clip-path="url(#pc3e279a49a)" style="fill: #1a1512"/>
   </g>
   <g id="patch_30">
    <path d="M 496.421135 455.655867 
Q 496.375914 455.667172 496.364608 455.59934 
Q 496.353303 455.531508 496.398525 455.520202 
Q 496.635938 455.474981 496.754645 455.401495 
Q 496.873352 455.32801 496.941184 455.152777 
Q 497.009016 454.977543 497.065543 454.638381 
L 498.218694 448.182996 
Q 498.218694 448.149079 498.31479 448.081247 
Q 498.410886 448.013415 498.546551 447.906013 
Q 498.682216 447.798612 498.789617 447.651642 
Q 498.897019 447.504671 498.94224 447.33509 
Q 498.953546 447.289869 499.015725 447.301174 
Q 499.077905 447.31248 499.0666 447.357701 
L 497.789089 454.559243 
Q 497.709951 455.011459 497.834311 455.141471 
Q 497.95867 455.271483 498.399581 455.214956 
Q 498.444803 455.203651 498.467413 455.265831 
Q 498.490024 455.32801 498.433497 455.339316 
z
M 498.738743 452.558187 
Q 498.365665 452.558187 498.133904 452.52427 
Q 497.902143 452.490354 497.743868 452.456438 
L 497.856922 451.834641 
Q 498.08303 451.992916 498.371317 452.111623 
Q 498.659605 452.23033 499.08921 452.23033 
Q 499.552732 452.23033 499.874936 451.947695 
Q 500.19714 451.66506 500.394985 451.173275 
Q 500.592829 450.68149 500.660661 450.059693 
Q 500.717188 449.675309 500.666314 449.336147 
Q 500.61544 448.996985 500.40629 448.776529 
Q 500.19714 448.556074 499.756229 448.556074 
Q 499.236181 448.556074 498.710479 448.838709 
Q 498.184778 449.121344 497.495149 449.641393 
Q 497.461232 449.664003 497.416011 449.613129 
Q 497.370789 449.562255 497.416011 449.528339 
Q 498.10564 448.929152 498.85745 448.516505 
Q 499.609259 448.103858 500.321499 448.103858 
Q 500.965907 448.103858 501.248542 448.510852 
Q 501.531178 448.917847 501.418123 449.686614 
Q 501.338986 450.26319 501.078961 450.783238 
Q 500.818937 451.303287 500.445859 451.704629 
Q 500.072781 452.10597 499.63187 452.332079 
Q 499.190959 452.558187 498.738743 452.558187 
z
" clip-path="url(#pc3e279a49a)" style="fill: #1a1512"/>
   </g>
   <g id="patch_31">
    <path d="M 502.72955 452.64863 
Q 502.401694 452.64863 502.322556 452.388606 
Q 502.243418 452.128581 502.345167 451.5407 
L 503.441791 445.650585 
Q 503.520928 445.209675 503.368305 445.102273 
Q 503.215683 444.994872 502.718245 445.243591 
Q 502.673023 445.254896 502.64476 445.187064 
Q 502.616496 445.119231 502.661718 445.107926 
L 504.210558 444.350464 
Q 504.267085 444.327853 504.312307 444.373075 
Q 504.357528 444.418296 504.346223 444.440907 
L 503.046101 451.5407 
Q 502.978269 451.879862 503.034796 452.02118 
Q 503.091323 452.162497 503.215683 452.162497 
Q 503.340042 452.162497 503.515276 452.026833 
Q 503.690509 451.891168 503.916618 451.676365 
Q 503.961839 451.631144 504.007061 451.676365 
Q 504.052282 451.721587 504.007061 451.766808 
Q 503.645288 452.185108 503.340042 452.416869 
Q 503.034796 452.64863 502.72955 452.64863 
z
" clip-path="url(#pc3e279a49a)" style="fill: #1a1512"/>
   </g>
   <g id="patch_32">
    <path d="M 506.155087 452.705157 
Q 505.589817 452.705157 505.233697 452.388606 
Q 504.877577 452.072054 504.75887 451.5407 
Q 504.640163 451.009346 504.753217 450.364938 
Q 504.888882 449.69792 505.23935 449.172218 
Q 505.589817 448.646517 506.092908 448.341271 
Q 506.595998 448.036025 507.172574 448.036025 
Q 507.77176 448.036025 508.133533 448.352577 
Q 508.495306 448.669128 508.614012 449.200482 
Q 508.732719 449.731836 508.60836 450.364938 
Q 508.461389 451.09979 508.077006 451.625491 
Q 507.692622 452.151192 507.183879 452.428174 
Q 506.675136 452.705157 506.155087 452.705157 
z
M 506.550776 452.422522 
Q 506.980382 452.422522 507.330849 452.009875 
Q 507.681317 451.597227 507.816982 450.862376 
Q 507.896119 450.41016 507.879161 449.963597 
Q 507.862203 449.517033 507.737844 449.138302 
Q 507.613484 448.759571 507.387376 448.533463 
Q 507.161268 448.307355 506.822106 448.307355 
Q 506.403806 448.307355 506.047686 448.71435 
Q 505.691566 449.121344 505.544596 449.878806 
Q 505.454152 450.342328 505.476763 450.788891 
Q 505.499374 451.235454 505.629386 451.608533 
Q 505.759398 451.981611 505.991159 452.202066 
Q 506.22292 452.422522 506.550776 452.422522 
z
" clip-path="url(#pc3e279a49a)" style="fill: #1a1512"/>
   </g>
   <g id="patch_33">
    <path d="M 515.131577 452.64863 
Q 514.815026 452.64863 514.735888 452.388606 
Q 514.65675 452.128581 514.758499 451.5407 
L 515.086356 449.743141 
Q 515.188104 449.132649 515.108966 448.833056 
Q 515.029829 448.533463 514.747193 448.533463 
Q 514.419337 448.533463 514.051911 448.980027 
Q 513.684486 449.42659 513.350976 450.302759 
Q 513.017467 451.178927 512.791359 452.445133 
L 512.633083 452.433827 
Q 512.859191 451.09979 513.249228 450.104914 
Q 513.639264 449.110039 514.136702 448.573032 
Q 514.634139 448.036025 515.176799 448.036025 
Q 515.629015 448.036025 515.792943 448.386493 
Q 515.956872 448.73696 515.809901 449.528339 
L 515.448128 451.5407 
Q 515.391601 451.879862 515.442476 452.02118 
Q 515.49335 452.162497 515.61771 452.162497 
Q 515.742069 452.162497 515.917303 452.026833 
Q 516.092536 451.891168 516.318644 451.676365 
Q 516.363866 451.631144 516.409088 451.676365 
Q 516.454309 451.721587 516.409088 451.766808 
Q 516.047315 452.185108 515.742069 452.416869 
Q 515.436823 452.64863 515.131577 452.64863 
z
M 509.851954 452.637324 
Q 509.671068 452.637324 509.614541 452.614714 
Q 509.558014 452.592103 509.558014 452.558187 
Q 509.558014 452.52427 509.620193 452.269899 
Q 509.682373 452.015527 509.727595 451.744198 
L 510.191116 449.189177 
Q 510.30417 448.556074 510.01023 448.556074 
Q 509.88587 448.556074 509.693678 448.686086 
Q 509.501487 448.816098 509.264073 449.053512 
Q 509.230157 449.098733 509.184935 449.047859 
Q 509.139714 448.996985 509.17363 448.963068 
Q 509.569319 448.510852 509.891523 448.29605 
Q 510.213727 448.081247 510.518973 448.081247 
Q 510.824219 448.081247 510.909009 448.329966 
Q 510.9938 448.578685 510.892051 449.132649 
L 510.30417 452.445133 
Q 510.258949 452.637324 509.851954 452.637324 
z
M 512.350448 452.637324 
Q 512.169562 452.637324 512.113035 452.614714 
Q 512.056508 452.592103 512.056508 452.558187 
Q 512.056508 452.52427 512.118687 452.252941 
Q 512.180867 451.981611 512.226089 451.710281 
L 512.599167 449.731836 
Q 512.68961 449.121344 512.60482 448.827404 
Q 512.520029 448.533463 512.248699 448.533463 
Q 511.920843 448.533463 511.547764 448.996985 
Q 511.174686 449.460506 510.846829 450.331022 
Q 510.518973 451.201538 510.30417 452.445133 
L 510.134589 452.433827 
Q 510.360697 451.111095 510.750734 450.121872 
Q 511.14077 449.132649 511.638208 448.584337 
Q 512.135645 448.036025 512.68961 448.036025 
Q 513.119215 448.036025 513.294449 448.38084 
Q 513.469683 448.725655 513.322713 449.517033 
L 512.791359 452.445133 
Q 512.768748 452.637324 512.350448 452.637324 
z
" clip-path="url(#pc3e279a49a)" style="fill: #1a1512"/>
   </g>
   <g id="patch_34">
    <path d="M 518.29709 452.693851 
Q 517.697904 452.693851 517.381352 452.411216 
Q 517.064801 452.128581 517.155244 451.642449 
L 518.274479 445.650585 
Q 518.353617 445.209675 518.195341 445.102273 
Q 518.037066 444.994872 517.528323 445.243591 
Q 517.483101 445.254896 517.46049 445.187064 
Q 517.437879 445.119231 517.483101 445.107926 
L 519.031941 444.350464 
Q 519.088468 444.327853 519.13369 444.373075 
Q 519.178911 444.418296 519.167606 444.440907 
L 517.890095 451.461562 
Q 517.822263 451.868557 518.070982 452.134234 
Q 518.319701 452.399911 518.749306 452.399911 
Q 519.099774 452.399911 519.455894 452.122929 
Q 519.812014 451.845946 520.088996 451.325898 
Q 520.365979 450.805849 520.490338 450.059693 
Q 520.580781 449.664003 520.552518 449.341799 
Q 520.524254 449.019595 520.382937 448.821751 
Q 520.241619 448.623906 519.936373 448.623906 
Q 519.495463 448.623906 519.082816 448.980027 
Q 518.670168 449.336147 518.364922 449.974902 
Q 518.059677 450.613657 517.890095 451.461562 
L 517.810958 451.235454 
Q 517.912706 450.591046 518.167078 450.008818 
Q 518.421449 449.42659 518.788875 448.985679 
Q 519.156301 448.544769 519.585906 448.290397 
Q 520.015511 448.036025 520.456422 448.036025 
Q 520.987776 448.036025 521.236495 448.5052 
Q 521.485214 448.974374 521.349549 449.709225 
Q 521.202579 450.444076 520.863416 451.003694 
Q 520.524254 451.563311 520.077691 451.936389 
Q 519.631128 452.309468 519.161953 452.50166 
Q 518.692779 452.693851 518.29709 452.693851 
z
" clip-path="url(#pc3e279a49a)" style="fill: #1a1512"/>
   </g>
   <g id="patch_35">
    <path d="M 522.37834 452.659935 
Q 522.129622 452.659935 521.988304 452.518618 
Q 521.846987 452.3773 521.846987 452.128581 
Q 521.846987 451.891168 521.988304 451.755503 
Q 522.129622 451.619838 522.37834 451.619838 
Q 522.627059 451.619838 522.762724 451.755503 
Q 522.898389 451.891168 522.898389 452.128581 
Q 522.898389 452.659935 522.37834 452.659935 
z
" clip-path="url(#pc3e279a49a)" style="fill: #7a3d14"/>
   </g>
   <g id="line2d_2">
    <path d="M 565.2 450 
L 741.6 450 
" clip-path="url(#pc3e279a49a)" style="fill: none; stroke: #d9cfbd; stroke-width: 0.7; stroke-linecap: square"/>
   </g>
   <g id="text_3">
    <!-- Get Aplomb. -->
    <g style="fill: #7a3d14" transform="translate(807.12 452.97) scale(0.11 -0.11)">
     <defs>
      <path id="IBMPlexSans-Regular-47" d="M 3488 0 
L 3488 653 
L 3469 653 
Q 3386 339 3062 131 
Q 2739 -77 2227 -77 
Q 1683 -77 1264 188 
Q 845 454 608 969 
Q 371 1485 371 2234 
Q 371 2976 608 3491 
Q 845 4006 1273 4275 
Q 1702 4544 2272 4544 
Q 2874 4544 3277 4272 
Q 3680 4000 3898 3565 
L 3456 3296 
Q 3302 3654 2998 3859 
Q 2694 4064 2272 4064 
Q 1882 4064 1581 3881 
Q 1280 3699 1113 3369 
Q 947 3040 947 2598 
L 947 1875 
Q 947 1434 1113 1104 
Q 1280 774 1590 588 
Q 1901 403 2323 403 
Q 2637 403 2893 512 
Q 3149 621 3305 838 
Q 3462 1056 3462 1382 
L 3462 1824 
L 2477 1824 
L 2477 2298 
L 3987 2298 
L 3987 0 
L 3488 0 
z
" transform="scale(0.015625)"/>
      <path id="IBMPlexSans-Regular-65" d="M 1786 -77 
Q 1338 -77 1005 137 
Q 672 352 486 739 
Q 301 1126 301 1651 
Q 301 2176 486 2563 
Q 672 2950 1005 3164 
Q 1338 3379 1786 3379 
Q 2227 3379 2547 3171 
Q 2867 2963 3040 2598 
Q 3213 2234 3213 1766 
L 3213 1523 
L 838 1523 
L 838 1370 
Q 838 941 1097 656 
Q 1357 371 1818 371 
Q 2131 371 2364 518 
Q 2598 666 2726 941 
L 3091 678 
Q 2931 346 2592 134 
Q 2253 -77 1786 -77 
z
M 1786 2950 
Q 1510 2950 1296 2822 
Q 1082 2694 960 2467 
Q 838 2240 838 1952 
L 838 1907 
L 2662 1907 
L 2662 1978 
Q 2662 2272 2553 2489 
Q 2445 2707 2246 2828 
Q 2048 2950 1786 2950 
z
" transform="scale(0.015625)"/>
      <path id="IBMPlexSans-Regular-74" d="M 1914 0 
L 1274 0 
Q 1011 0 870 153 
Q 730 307 730 544 
L 730 2854 
L 186 2854 
L 186 3302 
L 493 3302 
Q 659 3302 720 3369 
Q 781 3437 781 3603 
L 781 4218 
L 1242 4218 
L 1242 3302 
L 1965 3302 
L 1965 2854 
L 1242 2854 
L 1242 448 
L 1914 448 
L 1914 0 
z
" transform="scale(0.015625)"/>
      <path id="IBMPlexSans-Regular-20" transform="scale(0.015625)"/>
      <path id="IBMPlexSans-Regular-41" d="M 3955 0 
L 3392 0 
L 2944 1318 
L 1139 1318 
L 691 0 
L 147 0 
L 1709 4467 
L 2394 4467 
L 3955 0 
z
M 2810 1792 
L 2246 3411 
L 2054 3968 
L 2022 3968 
L 1830 3411 
L 1267 1792 
L 2810 1792 
z
" transform="scale(0.015625)"/>
      <path id="IBMPlexSans-Regular-70" d="M 544 -1280 
L 544 3302 
L 1056 3302 
L 1056 2765 
L 1082 2765 
Q 1210 3078 1459 3228 
Q 1709 3379 2048 3379 
Q 2464 3379 2765 3168 
Q 3066 2957 3229 2569 
Q 3392 2182 3392 1651 
Q 3392 1126 3229 736 
Q 3066 346 2765 134 
Q 2464 -77 2048 -77 
Q 1709 -77 1469 76 
Q 1229 230 1082 538 
L 1056 538 
L 1056 -1280 
L 544 -1280 
z
M 1907 384 
Q 2342 384 2592 656 
Q 2842 928 2842 1370 
L 2842 1933 
Q 2842 2374 2592 2646 
Q 2342 2918 1907 2918 
Q 1677 2918 1481 2835 
Q 1286 2752 1171 2611 
Q 1056 2470 1056 2285 
L 1056 1056 
Q 1056 845 1171 694 
Q 1286 544 1481 464 
Q 1677 384 1907 384 
z
" transform="scale(0.015625)"/>
      <path id="IBMPlexSans-Regular-6c" d="M 1542 0 
L 1088 0 
Q 826 0 685 150 
Q 544 301 544 531 
L 544 4736 
L 1056 4736 
L 1056 448 
L 1542 448 
L 1542 0 
z
" transform="scale(0.015625)"/>
      <path id="IBMPlexSans-Regular-6f" d="M 1792 -77 
Q 1350 -77 1014 137 
Q 678 352 489 739 
Q 301 1126 301 1651 
Q 301 2176 489 2563 
Q 678 2950 1014 3164 
Q 1350 3379 1792 3379 
Q 2234 3379 2570 3164 
Q 2906 2950 3094 2563 
Q 3283 2176 3283 1651 
Q 3283 1126 3094 739 
Q 2906 352 2570 137 
Q 2234 -77 1792 -77 
z
M 1792 378 
Q 2208 378 2470 634 
Q 2733 890 2733 1414 
L 2733 1888 
Q 2733 2413 2470 2669 
Q 2208 2925 1792 2925 
Q 1382 2925 1116 2669 
Q 851 2413 851 1888 
L 851 1414 
Q 851 890 1116 634 
Q 1382 378 1792 378 
z
" transform="scale(0.015625)"/>
      <path id="IBMPlexSans-Regular-6d" d="M 1056 0 
L 544 0 
L 544 3302 
L 1056 3302 
L 1056 2765 
L 1082 2765 
Q 1190 3021 1388 3200 
Q 1587 3379 1971 3379 
Q 2298 3379 2573 3222 
Q 2848 3066 2982 2707 
L 2995 2707 
Q 3085 2976 3331 3177 
Q 3578 3379 4000 3379 
Q 4506 3379 4790 3049 
Q 5075 2720 5075 2118 
L 5075 0 
L 4563 0 
L 4563 2029 
Q 4563 2464 4390 2691 
Q 4218 2918 3840 2918 
Q 3642 2918 3462 2851 
Q 3283 2784 3174 2643 
Q 3066 2502 3066 2291 
L 3066 0 
L 2554 0 
L 2554 2029 
Q 2554 2470 2381 2694 
Q 2208 2918 1843 2918 
Q 1645 2918 1462 2851 
Q 1280 2784 1168 2643 
Q 1056 2502 1056 2291 
L 1056 0 
z
" transform="scale(0.015625)"/>
      <path id="IBMPlexSans-Regular-62" d="M 544 0 
L 544 4736 
L 1056 4736 
L 1056 2765 
L 1082 2765 
Q 1210 3078 1459 3228 
Q 1709 3379 2048 3379 
Q 2464 3379 2765 3168 
Q 3066 2957 3229 2569 
Q 3392 2182 3392 1651 
Q 3392 1126 3229 736 
Q 3066 346 2765 134 
Q 2464 -77 2048 -77 
Q 1709 -77 1469 76 
Q 1229 230 1082 538 
L 1056 538 
L 1056 0 
L 544 0 
z
M 1907 384 
Q 2342 384 2592 656 
Q 2842 928 2842 1370 
L 2842 1933 
Q 2842 2374 2592 2646 
Q 2342 2918 1907 2918 
Q 1677 2918 1481 2835 
Q 1286 2752 1171 2611 
Q 1056 2470 1056 2285 
L 1056 1056 
Q 1056 845 1171 694 
Q 1286 544 1481 464 
Q 1677 384 1907 384 
z
" transform="scale(0.015625)"/>
      <path id="IBMPlexSans-Regular-2e" d="M 870 -77 
Q 672 -77 576 28 
Q 480 134 480 294 
L 480 378 
Q 480 544 576 646 
Q 672 749 870 749 
Q 1075 749 1168 646 
Q 1261 544 1261 378 
L 1261 294 
Q 1261 134 1168 28 
Q 1075 -77 870 -77 
z
" transform="scale(0.015625)"/>
     </defs>
     <use xlink:href="#IBMPlexSans-Regular-47"/>
     <use xlink:href="#IBMPlexSans-Regular-65" transform="translate(69.499985 0)"/>
     <use xlink:href="#IBMPlexSans-Regular-74" transform="translate(124.399979 0)"/>
     <use xlink:href="#IBMPlexSans-Regular-20" transform="translate(159.499969 0)"/>
     <use xlink:href="#IBMPlexSans-Regular-41" transform="translate(183.09996 0)"/>
     <use xlink:href="#IBMPlexSans-Regular-70" transform="translate(247.199951 0)"/>
     <use xlink:href="#IBMPlexSans-Regular-6c" transform="translate(305.199936 0)"/>
     <use xlink:href="#IBMPlexSans-Regular-6f" transform="translate(332.399933 0)"/>
     <use xlink:href="#IBMPlexSans-Regular-6d" transform="translate(388.399918 0)"/>
     <use xlink:href="#IBMPlexSans-Regular-62" transform="translate(475.699905 0)"/>
     <use xlink:href="#IBMPlexSans-Regular-2e" transform="translate(533.69989 0)"/>
    </g>
   </g>
   <g id="patch_36">
    <path d="M 235.088372 701.376279 
L 235.088372 779.086047 
L 231.496744 784.310233 
C 228.340465 788.935814 227.959535 789.697674 228.55814 790.731628 
C 229.047907 791.765581 228.93907 792.092093 227.469767 793.289302 
C 223.388372 796.717674 221.755814 802.377209 223.279535 807.710233 
C 224.204651 810.92093 234.870698 827.518605 236.013488 827.518605 
C 236.884186 827.518605 245.101395 815.818605 247.495814 811.193023 
C 249.128372 807.982326 249.454884 806.839535 249.454884 803.846512 
C 249.454884 799.493023 247.876744 795.846977 244.883721 793.39814 
C 242.97907 791.928837 242.870233 791.602326 243.36 790.459535 
C 243.904186 789.262326 243.632093 788.609302 240.747907 784.41907 
L 237.537209 779.630233 
L 237.265116 701.811628 
C 236.993023 628.292093 236.938605 623.993023 236.067907 623.829767 
C 235.142791 623.666512 235.088372 627.63907 235.088372 701.376279 
z
M 238.788837 785.344186 
L 241.128837 788.609302 
L 236.176744 788.609302 
L 231.224651 788.609302 
L 233.455814 785.344186 
C 234.653023 783.548372 235.850233 782.07907 236.067907 782.07907 
C 236.34 782.07907 237.537209 783.548372 238.788837 785.344186 
z
" clip-path="url(#pc3e279a49a)" style="fill: #7a3d14"/>
   </g>
   <g id="patch_37">
    <path d="M 1099.088372 701.376279 
L 1099.088372 779.086047 
L 1095.496744 784.310233 
C 1092.340465 788.935814 1091.959535 789.697674 1092.55814 790.731628 
C 1093.047907 791.765581 1092.93907 792.092093 1091.469767 793.289302 
C 1087.388372 796.717674 1085.755814 802.377209 1087.279535 807.710233 
C 1088.204651 810.92093 1098.870698 827.518605 1100.013488 827.518605 
C 1100.884186 827.518605 1109.101395 815.818605 1111.495814 811.193023 
C 1113.128372 807.982326 1113.454884 806.839535 1113.454884 803.846512 
C 1113.454884 799.493023 1111.876744 795.846977 1108.883721 793.39814 
C 1106.97907 791.928837 1106.870233 791.602326 1107.36 790.459535 
C 1107.904186 789.262326 1107.632093 788.609302 1104.747907 784.41907 
L 1101.537209 779.630233 
L 1101.265116 701.811628 
C 1100.993023 628.292093 1100.938605 623.993023 1100.067907 623.829767 
C 1099.142791 623.666512 1099.088372 627.63907 1099.088372 701.376279 
z
M 1102.788837 785.344186 
L 1105.128837 788.609302 
L 1100.176744 788.609302 
L 1095.224651 788.609302 
L 1097.455814 785.344186 
C 1098.653023 783.548372 1099.850233 782.07907 1100.067907 782.07907 
C 1100.34 782.07907 1101.537209 783.548372 1102.788837 785.344186 
z
" clip-path="url(#pc3e279a49a)" style="fill: #7a3d14"/>
   </g>
   <g id="patch_38">
    <path d="M 540 813.24 
L 792 813.24 
L 792 651.24 
L 540 651.24 
L 540 813.24 
z
" clip-path="url(#pc3e279a49a)" style="fill: none; stroke-dasharray: 1.8,1.8; stroke-dashoffset: 0; stroke: #d9cfbd; stroke-width: 0.6; stroke-linejoin: miter"/>
   </g>
   <g id="text_4">
    <!-- shipping label area -->
    <g style="fill: #6b5d4c; opacity: 0.85" transform="translate(636.340234 831.38) scale(0.07 -0.07)">
     <defs>
      <path id="IBMPlexSans-Regular-73" d="M 1536 -77 
Q 1082 -77 768 99 
Q 454 275 230 570 
L 595 864 
Q 787 627 1024 492 
Q 1261 358 1574 358 
Q 1901 358 2083 499 
Q 2266 640 2266 896 
Q 2266 1088 2141 1229 
Q 2016 1370 1690 1414 
L 1427 1453 
Q 1126 1498 883 1603 
Q 640 1709 502 1904 
Q 365 2099 365 2406 
Q 365 2899 701 3139 
Q 1037 3379 1542 3379 
Q 1811 3379 2019 3315 
Q 2227 3251 2393 3132 
Q 2560 3014 2694 2848 
L 2355 2541 
Q 2246 2694 2035 2819 
Q 1824 2944 1504 2944 
Q 1190 2944 1024 2806 
Q 858 2669 858 2432 
Q 858 2195 1021 2083 
Q 1184 1971 1491 1920 
L 1747 1882 
Q 2298 1798 2528 1564 
Q 2758 1331 2758 954 
Q 2758 634 2611 403 
Q 2464 173 2189 48 
Q 1914 -77 1536 -77 
z
" transform="scale(0.015625)"/>
      <path id="IBMPlexSans-Regular-68" d="M 544 0 
L 544 4736 
L 1056 4736 
L 1056 2765 
L 1082 2765 
Q 1203 3046 1424 3212 
Q 1645 3379 2016 3379 
Q 2528 3379 2825 3049 
Q 3123 2720 3123 2118 
L 3123 0 
L 2611 0 
L 2611 2029 
Q 2611 2470 2422 2694 
Q 2234 2918 1862 2918 
Q 1658 2918 1472 2851 
Q 1286 2784 1171 2643 
Q 1056 2502 1056 2291 
L 1056 0 
L 544 0 
z
" transform="scale(0.015625)"/>
      <path id="IBMPlexSans-Regular-69" d="M 800 4077 
Q 640 4077 563 4157 
Q 486 4237 486 4365 
L 486 4448 
Q 486 4576 563 4656 
Q 640 4736 800 4736 
Q 966 4736 1040 4656 
Q 1114 4576 1114 4448 
L 1114 4365 
Q 1114 4237 1040 4157 
Q 966 4077 800 4077 
z
M 544 0 
L 544 3302 
L 1056 3302 
L 1056 0 
L 544 0 
z
" transform="scale(0.015625)"/>
      <path id="IBMPlexSans-Regular-6e" d="M 1056 0 
L 544 0 
L 544 3302 
L 1056 3302 
L 1056 2765 
L 1082 2765 
Q 1203 3046 1424 3212 
Q 1645 3379 2016 3379 
Q 2528 3379 2825 3049 
Q 3123 2720 3123 2118 
L 3123 0 
L 2611 0 
L 2611 2029 
Q 2611 2470 2422 2694 
Q 2234 2918 1862 2918 
Q 1658 2918 1472 2851 
Q 1286 2784 1171 2643 
Q 1056 2502 1056 2291 
L 1056 0 
z
" transform="scale(0.015625)"/>
      <path id="IBMPlexSans-Regular-67" d="M 3328 -365 
Q 3328 -704 3149 -925 
Q 2970 -1146 2614 -1251 
Q 2259 -1357 1728 -1357 
Q 1216 -1357 893 -1261 
Q 570 -1165 422 -982 
Q 275 -800 275 -544 
Q 275 -275 416 -121 
Q 557 32 800 96 
L 800 166 
Q 659 237 582 349 
Q 506 461 506 627 
Q 506 877 666 1008 
Q 826 1139 1075 1203 
L 1075 1229 
Q 781 1370 617 1632 
Q 454 1894 454 2240 
Q 454 2579 608 2835 
Q 762 3091 1043 3235 
Q 1325 3379 1696 3379 
Q 1875 3379 2032 3347 
Q 2189 3315 2323 3251 
L 2323 3309 
Q 2323 3501 2412 3625 
Q 2502 3750 2707 3750 
L 3200 3750 
L 3200 3302 
L 2573 3302 
L 2573 3091 
Q 2752 2938 2851 2720 
Q 2950 2502 2950 2240 
Q 2950 1907 2796 1648 
Q 2643 1389 2361 1245 
Q 2080 1101 1702 1101 
Q 1619 1101 1536 1110 
Q 1453 1120 1382 1133 
Q 1222 1088 1084 1001 
Q 947 915 947 762 
Q 947 614 1088 563 
Q 1229 512 1453 512 
L 2157 512 
Q 2771 512 3049 278 
Q 3328 45 3328 -365 
z
M 2848 -403 
Q 2848 -205 2697 -86 
Q 2547 32 2163 32 
L 1062 32 
Q 902 -38 828 -150 
Q 755 -262 755 -416 
Q 755 -634 918 -787 
Q 1082 -941 1472 -941 
L 1946 -941 
Q 2374 -941 2611 -806 
Q 2848 -672 2848 -403 
z
M 1702 1510 
Q 2029 1510 2221 1667 
Q 2413 1824 2413 2150 
L 2413 2330 
Q 2413 2656 2221 2813 
Q 2029 2970 1702 2970 
Q 1376 2970 1184 2813 
Q 992 2656 992 2330 
L 992 2150 
Q 992 1824 1184 1667 
Q 1376 1510 1702 1510 
z
" transform="scale(0.015625)"/>
      <path id="IBMPlexSans-Regular-61" d="M 3232 0 
L 2944 0 
Q 2739 0 2611 86 
Q 2483 173 2425 326 
Q 2368 480 2368 678 
L 2368 723 
L 2566 538 
L 2342 538 
Q 2240 237 1987 80 
Q 1734 -77 1389 -77 
Q 864 -77 573 192 
Q 282 461 282 922 
Q 282 1235 435 1449 
Q 589 1664 899 1776 
Q 1210 1888 1690 1888 
L 2342 1888 
L 2342 2214 
Q 2342 2566 2150 2752 
Q 1958 2938 1562 2938 
Q 1267 2938 1062 2803 
Q 858 2669 723 2445 
L 416 2733 
Q 550 2995 844 3187 
Q 1139 3379 1587 3379 
Q 2182 3379 2518 3084 
Q 2854 2790 2854 2266 
L 2854 448 
L 3232 448 
L 3232 0 
z
M 2342 1504 
L 1664 1504 
Q 1229 1504 1024 1376 
Q 819 1248 819 1005 
L 819 870 
Q 819 627 998 492 
Q 1178 358 1472 358 
Q 1728 358 1923 438 
Q 2118 518 2230 656 
Q 2342 794 2342 960 
L 2342 1504 
z
" transform="scale(0.015625)"/>
      <path id="IBMPlexSans-Regular-72" d="M 1056 0 
L 544 0 
L 544 3302 
L 1056 3302 
L 1056 2694 
L 1088 2694 
Q 1146 2854 1267 2992 
Q 1389 3130 1581 3216 
Q 1773 3302 2042 3302 
L 2240 3302 
L 2240 2790 
L 1939 2790 
Q 1664 2790 1465 2716 
Q 1267 2643 1161 2521 
Q 1056 2400 1056 2240 
L 1056 0 
z
" transform="scale(0.015625)"/>
     </defs>
     <use xlink:href="#IBMPlexSans-Regular-73"/>
     <use xlink:href="#IBMPlexSans-Regular-68" transform="translate(48.699997 0)"/>
     <use xlink:href="#IBMPlexSans-Regular-69" transform="translate(105.499985 0)"/>
     <use xlink:href="#IBMPlexSans-Regular-70" transform="translate(130.499969 0)"/>
     <use xlink:href="#IBMPlexSans-Regular-70" transform="translate(188.499954 0)"/>
     <use xlink:href="#IBMPlexSans-Regular-69" transform="translate(246.499939 0)"/>
     <use xlink:href="#IBMPlexSans-Regular-6e" transform="translate(271.499924 0)"/>
     <use xlink:href="#IBMPlexSans-Regular-67" transform="translate(328.299911 0)"/>
     <use xlink:href="#IBMPlexSans-Regular-20" transform="translate(381.099899 0)"/>
     <use xlink:href="#IBMPlexSans-Regular-6c" transform="translate(404.69989 0)"/>
     <use xlink:href="#IBMPlexSans-Regular-61" transform="translate(431.899887 0)"/>
     <use xlink:href="#IBMPlexSans-Regular-62" transform="translate(485.299881 0)"/>
     <use xlink:href="#IBMPlexSans-Regular-65" transform="translate(543.299866 0)"/>
     <use xlink:href="#IBMPlexSans-Regular-6c" transform="translate(598.19986 0)"/>
     <use xlink:href="#IBMPlexSans-Regular-20" transform="translate(625.399857 0)"/>
     <use xlink:href="#IBMPlexSans-Regular-61" transform="translate(648.999847 0)"/>
     <use xlink:href="#IBMPlexSans-Regular-72" transform="translate(702.399841 0)"/>
     <use xlink:href="#IBMPlexSans-Regular-65" transform="translate(739.099838 0)"/>
     <use xlink:href="#IBMPlexSans-Regular-61" transform="translate(793.999832 0)"/>
    </g>
   </g>
   <g id="text_5">
    <!-- Designed in Los Angeles · Printed on FSC paperboard · Recycle this carton. -->
    <g style="fill: #6b5d4c" transform="translate(532.630625 898.511875) scale(0.08 -0.08)">
     <defs>
      <path id="IBMPlexSans-Regular-44" d="M 595 0 
L 595 4467 
L 2093 4467 
Q 2650 4467 3062 4220 
Q 3475 3974 3699 3478 
Q 3923 2982 3923 2234 
Q 3923 1485 3699 989 
Q 3475 493 3062 246 
Q 2650 0 2093 0 
L 595 0 
z
M 1133 474 
L 2093 474 
Q 2464 474 2745 640 
Q 3027 806 3187 1116 
Q 3347 1427 3347 1869 
L 3347 2598 
Q 3347 3040 3187 3353 
Q 3027 3667 2745 3830 
Q 2464 3994 2093 3994 
L 1133 3994 
L 1133 474 
z
" transform="scale(0.015625)"/>
      <path id="IBMPlexSans-Regular-64" d="M 2656 0 
L 2656 538 
L 2630 538 
Q 2483 230 2243 76 
Q 2003 -77 1664 -77 
Q 1254 -77 950 134 
Q 646 346 483 736 
Q 320 1126 320 1651 
Q 320 2182 483 2569 
Q 646 2957 950 3168 
Q 1254 3379 1664 3379 
Q 2003 3379 2252 3228 
Q 2502 3078 2630 2765 
L 2656 2765 
L 2656 4736 
L 3168 4736 
L 3168 0 
L 2656 0 
z
M 1805 384 
Q 2042 384 2234 464 
Q 2426 544 2541 694 
Q 2656 845 2656 1056 
L 2656 2285 
Q 2656 2470 2541 2611 
Q 2426 2752 2234 2835 
Q 2042 2918 1805 2918 
Q 1376 2918 1123 2646 
Q 870 2374 870 1933 
L 870 1370 
Q 870 928 1123 656 
Q 1376 384 1805 384 
z
" transform="scale(0.015625)"/>
      <path id="IBMPlexSans-Regular-4c" d="M 3034 0 
L 595 0 
L 595 4467 
L 1133 4467 
L 1133 474 
L 3034 474 
L 3034 0 
z
" transform="scale(0.015625)"/>
      <path id="IBMPlexSans-Regular-b7" d="M 1043 1536 
Q 845 1536 749 1641 
Q 653 1747 653 1907 
L 653 1990 
Q 653 2157 749 2259 
Q 845 2362 1043 2362 
Q 1248 2362 1341 2259 
Q 1434 2157 1434 1990 
L 1434 1907 
Q 1434 1747 1341 1641 
Q 1248 1536 1043 1536 
z
" transform="scale(0.015625)"/>
      <path id="IBMPlexSans-Regular-50" d="M 1133 0 
L 595 0 
L 595 4467 
L 2374 4467 
Q 2778 4467 3056 4310 
Q 3334 4154 3478 3869 
Q 3622 3584 3622 3187 
Q 3622 2797 3478 2509 
Q 3334 2221 3056 2064 
Q 2778 1907 2374 1907 
L 1133 1907 
L 1133 0 
z
M 1133 3994 
L 1133 2381 
L 2374 2381 
Q 2586 2381 2736 2454 
Q 2886 2528 2966 2672 
Q 3046 2816 3046 3021 
L 3046 3354 
Q 3046 3558 2966 3702 
Q 2886 3846 2736 3920 
Q 2586 3994 2374 3994 
L 1133 3994 
z
" transform="scale(0.015625)"/>
      <path id="IBMPlexSans-Regular-46" d="M 1133 0 
L 595 0 
L 595 4467 
L 3258 4467 
L 3258 3994 
L 1133 3994 
L 1133 2496 
L 3072 2496 
L 3072 2022 
L 1133 2022 
L 1133 0 
z
" transform="scale(0.015625)"/>
      <path id="IBMPlexSans-Regular-53" d="M 1850 -77 
Q 1312 -77 925 131 
Q 538 339 269 704 
L 666 1037 
Q 902 723 1190 560 
Q 1478 397 1869 397 
Q 2349 397 2601 627 
Q 2854 858 2854 1242 
Q 2854 1453 2771 1600 
Q 2688 1747 2505 1846 
Q 2323 1946 2029 2010 
L 1664 2093 
Q 1261 2189 979 2342 
Q 698 2496 550 2739 
Q 403 2982 403 3322 
Q 403 3718 588 3990 
Q 774 4262 1110 4403 
Q 1446 4544 1882 4544 
Q 2387 4544 2748 4358 
Q 3110 4173 3360 3814 
L 2957 3520 
Q 2778 3776 2512 3923 
Q 2246 4070 1856 4070 
Q 1427 4070 1180 3884 
Q 934 3699 934 3341 
Q 934 3130 1027 2989 
Q 1120 2848 1305 2755 
Q 1491 2662 1773 2598 
L 2138 2515 
Q 2573 2419 2848 2252 
Q 3123 2086 3254 1843 
Q 3386 1600 3386 1267 
Q 3386 858 3200 557 
Q 3014 256 2672 89 
Q 2330 -77 1850 -77 
z
" transform="scale(0.015625)"/>
      <path id="IBMPlexSans-Regular-43" d="M 2170 -77 
Q 1606 -77 1203 182 
Q 800 442 585 950 
Q 371 1459 371 2208 
Q 371 2957 585 3478 
Q 800 4000 1203 4272 
Q 1606 4544 2170 4544 
Q 2726 4544 3110 4288 
Q 3494 4032 3706 3565 
L 3270 3302 
Q 3136 3648 2861 3856 
Q 2586 4064 2170 4064 
Q 1594 4064 1270 3645 
Q 947 3226 947 2541 
L 947 1875 
Q 947 1190 1270 796 
Q 1594 403 2170 403 
Q 2598 403 2886 624 
Q 3174 845 3309 1210 
L 3738 941 
Q 3526 474 3126 198 
Q 2726 -77 2170 -77 
z
" transform="scale(0.015625)"/>
      <path id="IBMPlexSans-Regular-52" d="M 1133 1920 
L 1133 0 
L 595 0 
L 595 4467 
L 2374 4467 
Q 2765 4467 3043 4320 
Q 3322 4173 3472 3891 
Q 3622 3610 3622 3200 
Q 3622 2714 3392 2394 
Q 3162 2074 2726 1971 
L 3750 0 
L 3142 0 
L 2176 1920 
L 1133 1920 
z
M 1133 2381 
L 2374 2381 
Q 2586 2381 2736 2454 
Q 2886 2528 2966 2672 
Q 3046 2816 3046 3021 
L 3046 3354 
Q 3046 3558 2966 3702 
Q 2886 3846 2736 3920 
Q 2586 3994 2374 3994 
L 1133 3994 
L 1133 2381 
z
" transform="scale(0.015625)"/>
      <path id="IBMPlexSans-Regular-63" d="M 1773 -77 
Q 1075 -77 688 390 
Q 301 858 301 1651 
Q 301 2445 688 2912 
Q 1075 3379 1773 3379 
Q 2266 3379 2566 3161 
Q 2867 2944 3008 2605 
L 2579 2387 
Q 2490 2643 2282 2784 
Q 2074 2925 1773 2925 
Q 1318 2925 1084 2646 
Q 851 2368 851 1933 
L 851 1370 
Q 851 941 1084 659 
Q 1318 378 1773 378 
Q 2086 378 2310 525 
Q 2534 672 2669 954 
L 3040 704 
Q 2880 352 2563 137 
Q 2246 -77 1773 -77 
z
" transform="scale(0.015625)"/>
      <path id="IBMPlexSans-Regular-79" d="M 1779 1056 
L 2579 3302 
L 3085 3302 
L 1606 -768 
Q 1536 -966 1449 -1078 
Q 1363 -1190 1222 -1235 
Q 1082 -1280 838 -1280 
L 576 -1280 
L 576 -832 
L 1094 -832 
L 1344 -128 
L 109 3302 
L 621 3302 
L 1414 1056 
L 1568 518 
L 1600 518 
L 1779 1056 
z
" transform="scale(0.015625)"/>
     </defs>
     <use xlink:href="#IBMPlexSans-Regular-44"/>
     <use xlink:href="#IBMPlexSans-Regular-65" transform="translate(67.099991 0)"/>
     <use xlink:href="#IBMPlexSans-Regular-73" transform="translate(121.999985 0)"/>
     <use xlink:href="#IBMPlexSans-Regular-69" transform="translate(170.699982 0)"/>
     <use xlink:href="#IBMPlexSans-Regular-67" transform="translate(195.699966 0)"/>
     <use xlink:href="#IBMPlexSans-Regular-6e" transform="translate(248.499954 0)"/>
     <use xlink:href="#IBMPlexSans-Regular-65" transform="translate(305.299942 0)"/>
     <use xlink:href="#IBMPlexSans-Regular-64" transform="translate(360.199936 0)"/>
     <use xlink:href="#IBMPlexSans-Regular-20" transform="translate(418.199921 0)"/>
     <use xlink:href="#IBMPlexSans-Regular-69" transform="translate(441.799911 0)"/>
     <use xlink:href="#IBMPlexSans-Regular-6e" transform="translate(466.799896 0)"/>
     <use xlink:href="#IBMPlexSans-Regular-20" transform="translate(523.599884 0)"/>
     <use xlink:href="#IBMPlexSans-Regular-4c" transform="translate(547.199875 0)"/>
     <use xlink:href="#IBMPlexSans-Regular-6f" transform="translate(597.299866 0)"/>
     <use xlink:href="#IBMPlexSans-Regular-73" transform="translate(653.29985 0)"/>
     <use xlink:href="#IBMPlexSans-Regular-20" transform="translate(701.999847 0)"/>
     <use xlink:href="#IBMPlexSans-Regular-41" transform="translate(725.599838 0)"/>
     <use xlink:href="#IBMPlexSans-Regular-6e" transform="translate(789.699829 0)"/>
     <use xlink:href="#IBMPlexSans-Regular-67" transform="translate(846.499817 0)"/>
     <use xlink:href="#IBMPlexSans-Regular-65" transform="translate(899.299805 0)"/>
     <use xlink:href="#IBMPlexSans-Regular-6c" transform="translate(954.199799 0)"/>
     <use xlink:href="#IBMPlexSans-Regular-65" transform="translate(981.399796 0)"/>
     <use xlink:href="#IBMPlexSans-Regular-73" transform="translate(1036.299789 0)"/>
     <use xlink:href="#IBMPlexSans-Regular-20" transform="translate(1084.999786 0)"/>
     <use xlink:href="#IBMPlexSans-Regular-b7" transform="translate(1108.599777 0)"/>
     <use xlink:href="#IBMPlexSans-Regular-20" transform="translate(1141.199768 0)"/>
     <use xlink:href="#IBMPlexSans-Regular-50" transform="translate(1164.799759 0)"/>
     <use xlink:href="#IBMPlexSans-Regular-72" transform="translate(1225.39975 0)"/>
     <use xlink:href="#IBMPlexSans-Regular-69" transform="translate(1262.099747 0)"/>
     <use xlink:href="#IBMPlexSans-Regular-6e" transform="translate(1287.099731 0)"/>
     <use xlink:href="#IBMPlexSans-Regular-74" transform="translate(1343.899719 0)"/>
     <use xlink:href="#IBMPlexSans-Regular-65" transform="translate(1378.99971 0)"/>
     <use xlink:href="#IBMPlexSans-Regular-64" transform="translate(1433.899704 0)"/>
     <use xlink:href="#IBMPlexSans-Regular-20" transform="translate(1491.899689 0)"/>
     <use xlink:href="#IBMPlexSans-Regular-6f" transform="translate(1515.49968 0)"/>
     <use xlink:href="#IBMPlexSans-Regular-6e" transform="translate(1571.499664 0)"/>
     <use xlink:href="#IBMPlexSans-Regular-20" transform="translate(1628.299652 0)"/>
     <use xlink:href="#IBMPlexSans-Regular-46" transform="translate(1651.899643 0)"/>
     <use xlink:href="#IBMPlexSans-Regular-53" transform="translate(1707.799637 0)"/>
     <use xlink:href="#IBMPlexSans-Regular-43" transform="translate(1765.899628 0)"/>
     <use xlink:href="#IBMPlexSans-Regular-20" transform="translate(1827.999619 0)"/>
     <use xlink:href="#IBMPlexSans-Regular-70" transform="translate(1851.599609 0)"/>
     <use xlink:href="#IBMPlexSans-Regular-61" transform="translate(1909.599594 0)"/>
     <use xlink:href="#IBMPlexSans-Regular-70" transform="translate(1962.999588 0)"/>
     <use xlink:href="#IBMPlexSans-Regular-65" transform="translate(2020.999573 0)"/>
     <use xlink:href="#IBMPlexSans-Regular-72" transform="translate(2075.899567 0)"/>
     <use xlink:href="#IBMPlexSans-Regular-62" transform="translate(2112.599564 0)"/>
     <use xlink:href="#IBMPlexSans-Regular-6f" transform="translate(2170.599548 0)"/>
     <use xlink:href="#IBMPlexSans-Regular-61" transform="translate(2226.599533 0)"/>
     <use xlink:href="#IBMPlexSans-Regular-72" transform="translate(2279.999527 0)"/>
     <use xlink:href="#IBMPlexSans-Regular-64" transform="translate(2316.699524 0)"/>
     <use xlink:href="#IBMPlexSans-Regular-20" transform="translate(2374.699509 0)"/>
     <use xlink:href="#IBMPlexSans-Regular-b7" transform="translate(2398.2995 0)"/>
     <use xlink:href="#IBMPlexSans-Regular-20" transform="translate(2430.89949 0)"/>
     <use xlink:href="#IBMPlexSans-Regular-52" transform="translate(2454.499481 0)"/>
     <use xlink:href="#IBMPlexSans-Regular-65" transform="translate(2518.499466 0)"/>
     <use xlink:href="#IBMPlexSans-Regular-63" transform="translate(2573.39946 0)"/>
     <use xlink:href="#IBMPlexSans-Regular-79" transform="translate(2623.699448 0)"/>
     <use xlink:href="#IBMPlexSans-Regular-63" transform="translate(2673.599442 0)"/>
     <use xlink:href="#IBMPlexSans-Regular-6c" transform="translate(2723.899429 0)"/>
     <use xlink:href="#IBMPlexSans-Regular-65" transform="translate(2751.099426 0)"/>
     <use xlink:href="#IBMPlexSans-Regular-20" transform="translate(2805.99942 0)"/>
     <use xlink:href="#IBMPlexSans-Regular-74" transform="translate(2829.599411 0)"/>
     <use xlink:href="#IBMPlexSans-Regular-68" transform="translate(2864.699402 0)"/>
     <use xlink:href="#IBMPlexSans-Regular-69" transform="translate(2921.49939 0)"/>
     <use xlink:href="#IBMPlexSans-Regular-73" transform="translate(2946.499374 0)"/>
     <use xlink:href="#IBMPlexSans-Regular-20" transform="translate(2995.199371 0)"/>
     <use xlink:href="#IBMPlexSans-Regular-63" transform="translate(3018.799362 0)"/>
     <use xlink:href="#IBMPlexSans-Regular-61" transform="translate(3069.09935 0)"/>
     <use xlink:href="#IBMPlexSans-Regular-72" transform="translate(3122.499344 0)"/>
     <use xlink:href="#IBMPlexSans-Regular-74" transform="translate(3159.199341 0)"/>
     <use xlink:href="#IBMPlexSans-Regular-6f" transform="translate(3194.299332 0)"/>
     <use xlink:href="#IBMPlexSans-Regular-6e" transform="translate(3250.299316 0)"/>
     <use xlink:href="#IBMPlexSans-Regular-2e" transform="translate(3307.099304 0)"/>
    </g>
   </g>
  </g>
 </g>
 <defs>
  <clipPath id="pc3e279a49a">
   <rect x="0" y="0" width="1332" height="1152"/>
  </clipPath>
 </defs>
</svg>
