<svg xmlns="http://www.w3.org/2000/svg" viewBox="0 0 3623.3 6405.2" role="img" aria-label="Aplomb">
  <title>Aplomb</title>
  <g transform="translate(1159.95,450.36) scale(9.309856)" fill="#7a3d14">
    <g transform="translate(0.000000,430.000000) scale(0.100000,-0.100000)">
      <path d="M720 2823 l0 -1428 -66 -96 c-58 -85 -65 -99 -54 -118 9 -19 7 -25
-20 -47 -75 -63 -105 -167 -77 -265 17 -59 213 -364 234 -364 16 0 167 215
211 300 30 59 36 80 36 135 0 80 -29 147 -84 192 -35 27 -37 33 -28 54 10 22
5 34 -48 111 l-59 88 -5 1430 c-5 1351 -6 1430 -22 1433 -17 3 -18 -70 -18
-1425z m68 -1543 l43 -60 -91 0 -91 0 41 60 c22 33 44 60 48 60 5 0 27 -27 50
-60z"/>
    </g>
  </g>
  <text x="1811.64" y="5954.82" text-anchor="middle" font-family="'Cormorant Garamond', 'EB Garamond', Garamond, 'Times New Roman', serif" font-style="italic" font-weight="500" font-size="1390.01" fill="#1a1512">Aplomb<tspan fill="#7a3d14">.</tspan></text>
</svg>
