<svg xmlns="http://www.w3.org/2000/svg" viewBox="0 0 3623.3 6405.2" role="img" aria-label="Aplomb">
  <title>Aplomb</title>
  <g transform="translate(1159.95,450.36) scale(9.309856)" fill="#7a3d14">
    <g transform="translate(0.000000,430.000000) scale(0.100000,-0.100000)">
      <path d="M720 2823 l0 -1428 -66 -96 c-58 -85 -65 -99 -54 -118 9 -19 7 -25
-20 -47 -75 -63 -105 -167 -77 -265 17 -59 213 -364 234 -364 16 0 167 215
211 300 30 59 36 80 36 135 0 80 -29 147 -84 192 -35 27 -37 33 -28 54 10 22
5 34 -48 111 l-59 88 -5 1430 c-5 1351 -6 1430 -22 1433 -17 3 -18 -70 -18
-1425z m68 -1543 l43 -60 -91 0 -91 0 41 60 c22 33 44 60 48 60 5 0 27 -27 50
-60z"/>
    </g>
  </g>
  <g transform="translate(388.64,5679.67) scale(1,-1)">
    <path d="M-34 0Q-38 0 -38.0 6.0Q-38 12 -34 12Q-8 12 27.0 37.5Q62 63 98 127L382 635Q384 639 391.5 637.5Q399 636 400 633L495 84Q499 57 505.0 41.0Q511 25 524.5 18.5Q538 12 566 12Q570 12 570.0 6.0Q570 0 566 0Q542 0 517.0 2.0Q492 4 462 4Q433 4 410.0 2.0Q387 0 362 0Q359 0 359.0 6.0Q359 12 362 12Q406 12 418.0 27.0Q430 42 422 84L344 541L378 585L129 131Q103 84 100.5 58.0Q98 32 115.5 22.0Q133 12 168 12Q172 12 172.0 6.0Q172 0 167 0Q147 0 117.0 2.0Q87 4 58 4Q29 4 10.5 2.0Q-8 0 -34 0ZM186 261 201 283H418L420 261Z" transform="translate(0,0)" fill="#1a1512"/>
    <path d="M-60 -275Q-64 -276 -65.0 -270.0Q-66 -264 -62 -263Q-41 -259 -30.5 -252.5Q-20 -246 -14.0 -230.5Q-8 -215 -3 -185L99 386Q99 389 107.5 395.0Q116 401 128.0 410.5Q140 420 149.5 433.0Q159 446 163 461Q164 465 169.5 464.0Q175 463 174 459L61 -178Q54 -218 65.0 -229.5Q76 -241 115 -236Q119 -235 121.0 -240.5Q123 -246 118 -247ZM145 -1Q112 -1 91.5 2.0Q71 5 57 8L67 63Q87 49 112.5 38.5Q138 28 176 28Q217 28 245.5 53.0Q274 78 291.5 121.5Q309 165 315 220Q320 254 315.5 284.0Q311 314 292.5 333.5Q274 353 235 353Q189 353 142.5 328.0Q96 303 35 257Q32 255 28.0 259.5Q24 264 28 267Q89 320 155.5 356.5Q222 393 285 393Q342 393 367.0 357.0Q392 321 382 253Q375 202 352.0 156.0Q329 110 296.0 74.5Q263 39 224.0 19.0Q185 -1 145 -1Z" transform="translate(602,0)" fill="#1a1512"/>
    <path d="M92 -9Q63 -9 56.0 14.0Q49 37 58 89L155 610Q162 649 148.5 658.5Q135 668 91 646Q87 645 84.5 651.0Q82 657 86 658L223 725Q228 727 232.0 723.0Q236 719 235 717L120 89Q114 59 119.0 46.5Q124 34 135 34Q146 34 161.5 46.0Q177 58 197 77Q201 81 205.0 77.0Q209 73 205 69Q173 32 146.0 11.5Q119 -9 92 -9Z" transform="translate(1008,0)" fill="#1a1512"/>
    <path d="M155 -14Q105 -14 73.5 14.0Q42 42 31.5 89.0Q21 136 31 193Q43 252 74.0 298.5Q105 345 149.5 372.0Q194 399 245 399Q298 399 330.0 371.0Q362 343 372.5 296.0Q383 249 372 193Q359 128 325.0 81.5Q291 35 246.0 10.5Q201 -14 155 -14ZM190 11Q228 11 259.0 47.5Q290 84 302 149Q309 189 307.5 228.5Q306 268 295.0 301.5Q284 335 264.0 355.0Q244 375 214 375Q177 375 145.5 339.0Q114 303 101 236Q93 195 95.0 155.5Q97 116 108.5 83.0Q120 50 140.5 30.5Q161 11 190 11Z" transform="translate(1248,0)" fill="#1a1512"/>
    <path d="M548 -9Q520 -9 513.0 14.0Q506 37 515 89L544 248Q553 302 546.0 328.5Q539 355 514 355Q485 355 452.5 315.5Q420 276 390.5 198.5Q361 121 341 9L327 10Q347 128 381.5 216.0Q416 304 460.0 351.5Q504 399 552 399Q592 399 606.5 368.0Q621 337 608 267L576 89Q571 59 575.5 46.5Q580 34 591 34Q602 34 617.5 46.0Q633 58 653 77Q657 81 661.0 77.0Q665 73 661 69Q629 32 602.0 11.5Q575 -9 548 -9ZM81 -8Q65 -8 60.0 -6.0Q55 -4 55 -1Q55 2 60.5 24.5Q66 47 70 71L111 297Q121 353 95 353Q84 353 67.0 341.5Q50 330 29 309Q26 305 22.0 309.5Q18 314 21 317Q56 357 84.5 376.0Q113 395 140 395Q167 395 174.5 373.0Q182 351 173 302L121 9Q117 -8 81 -8ZM302 -8Q286 -8 281.0 -6.0Q276 -4 276 -1Q276 2 281.5 26.0Q287 50 291 74L324 249Q332 303 324.5 329.0Q317 355 293 355Q264 355 231.0 314.0Q198 273 169.0 196.0Q140 119 121 9L106 10Q126 127 160.5 214.5Q195 302 239.0 350.5Q283 399 332 399Q370 399 385.5 368.5Q401 338 388 268L341 9Q339 -8 302 -8Z" transform="translate(1649,0)" fill="#1a1512"/>
    <path d="M149 -13Q96 -13 68.0 12.0Q40 37 48 80L147 610Q154 649 140.0 658.5Q126 668 81 646Q77 645 75.0 651.0Q73 657 77 658L214 725Q219 727 223.0 723.0Q227 719 226 717L113 96Q107 60 129.0 36.5Q151 13 189 13Q220 13 251.5 37.5Q283 62 307.5 108.0Q332 154 343 220Q351 255 348.5 283.5Q346 312 333.5 329.5Q321 347 294 347Q255 347 218.5 315.5Q182 284 155.0 227.5Q128 171 113 96L106 116Q115 173 137.5 224.5Q160 276 192.5 315.0Q225 354 263.0 376.5Q301 399 340 399Q387 399 409.0 357.5Q431 316 419 251Q406 186 376.0 136.5Q346 87 306.5 54.0Q267 21 225.5 4.0Q184 -13 149 -13Z" transform="translate(2328,0)" fill="#1a1512"/>
    <path d="M71 -10Q49 -10 36.5 2.5Q24 15 24 37Q24 58 36.5 70.0Q49 82 71 82Q93 82 105.0 70.0Q117 58 117 37Q117 -10 71 -10Z" transform="translate(2767,0)" fill="#7a3d14"/>
  </g>
</svg>
